<?xml version="1.0" encoding="UTF-8"?>
<!DOCTYPE svg PUBLIC "-//W3C//DTD SVG 1.1//EN" "http://www.w3.org/Graphics/SVG/1.1/DTD/svg11.dtd">
<!-- Creator: CorelDRAW 2020 (64-Bit) -->
<svg xmlns="http://www.w3.org/2000/svg" xml:space="preserve" width="1.30748in" height="1.30748in" version="1.1" shape-rendering="geometricPrecision" text-rendering="geometricPrecision" image-rendering="optimizeQuality" fill-rule="evenodd" clip-rule="evenodd"
viewBox="0 0 238.07 238.07"
 xmlns:xlink="http://www.w3.org/1999/xlink"
 xmlns:xodm="http://www.corel.com/coreldraw/odm/2003">
 <g id="Layer_x0020_1">
  <metadata id="CorelCorpID_0Corel-Layer"/>
  <path fill="black" stroke="black" stroke-width="7.59" stroke-miterlimit="2.61313" d="M149.43 7.85c14.02,3.82 26.97,10.23 38.31,18.67l-38.31 39.38 0 -58.04zm60.21 39.97c11.01,13.99 18.85,30.59 22.43,48.72l-68.53 -1.34 46.1 -47.38zm21.48 98.1c-3.78,15.83 -10.83,30.39 -20.4,42.92l-44.33 -44.19 64.73 1.26zm-41.96 64.57c-11.68,8.97 -25.12,15.75 -39.72,19.73l0 -59.33 39.72 39.6zm-100.5 19.73c-14.02,-3.82 -26.97,-10.23 -38.31,-18.67l38.31 -39.38 0 58.04zm-60.21 -39.97c-11.01,-13.99 -18.85,-30.59 -22.43,-48.71l68.53 1.34 -46.1 47.38zm-24.64 -71.15l-0 -0.06 0 -0.06 0 0.11zm3.17 -26.94c3.78,-15.83 10.83,-30.39 20.4,-42.93l44.33 44.19 -64.73 -1.26zm41.96 -64.57c11.68,-8.97 25.12,-15.75 39.72,-19.73l0 59.33 -39.72 -39.59z"/>
  <path fill="none" stroke="black" stroke-width="7.59" stroke-miterlimit="2.61313" d="M200.66 200.39c-3.66,3.67 -7.5,7.03 -11.5,10.11l-39.73 -39.6 0 -26.57 16.96 0.33 44.34 44.2c-3.06,4.01 -6.41,7.86 -10.07,11.53zm-112.01 -28.22l-38.32 39.39c-4.04,-3.01 -7.94,-6.32 -11.65,-9.93 -3.71,-3.61 -7.12,-7.42 -10.24,-11.38l46.11 -47.39 14.12 0.28 0 29.03zm-16.96 -78.76l-44.34 -44.2c3.06,-4.01 6.41,-7.86 10.07,-11.53 3.66,-3.67 7.5,-7.03 11.5,-10.11l39.73 39.6 0 26.57 -16.96 -0.33zm77.74 -27.52l38.32 -39.39c4.04,3.01 7.94,6.32 11.65,9.93 3.71,3.61 7.12,7.42 10.24,11.38l-46.11 47.39 -14.11 -0.28 0 -29.03z"/>
  <path fill="none" stroke="black" stroke-width="7.59" stroke-linejoin="round" stroke-miterlimit="2.61313" d="M119.04 3.79c10.3,0 20.44,0.35 30.39,1.01l0 90.13 84.02 1.64c0.6,8.09 0.89,16.34 0.83,24.72 -0.06,8.37 -0.47,16.61 -1.19,24.68l-83.65 -1.63 0 88.94c-9.94,0.66 -20.08,1.01 -30.39,1.01 -10.3,0 -20.45,-0.35 -30.39,-1.01l0 -90.13 -84.02 -1.64c-0.6,-8.09 -0.89,-16.34 -0.83,-24.72 0.06,-8.37 0.47,-16.61 1.19,-24.68l83.65 1.63 0 -88.94c9.94,-0.66 20.08,-1.01 30.39,-1.01z"/>
  <rect fill="black" stroke="black" stroke-width="1.26" stroke-miterlimit="2.61313" x="106.68" y="3.89" width="22.5" height="230.28"/>
  <rect fill="black" stroke="black" stroke-width="1.26" stroke-miterlimit="2.61313" transform="matrix(-0.0156328 1.64298 -0.999878 -0.0256875 233.166 110.781)" width="13.65" height="230.28"/>
  <line fill="none" stroke="black" stroke-width="7.59" stroke-miterlimit="2.61313" x1="88.65" y1="153.01" x2="39.93" y2= "202.84" />
  <line fill="none" stroke="black" stroke-width="7.59" stroke-miterlimit="2.61313" x1="153.17" y1="148.51" x2="202.64" y2= "197.59" />
  <line fill="none" stroke="black" stroke-width="7.59" stroke-miterlimit="2.61313" x1="151.07" y1="82.6" x2="200.31" y2= "33.29" />
  <line fill="none" stroke="black" stroke-width="7.59" stroke-miterlimit="2.61313" x1="87.59" y1="90.07" x2="39.92" y2= "39.24" />
 </g>
</svg>
