<?xml version="1.0" encoding="UTF-8"?>
<!DOCTYPE svg PUBLIC "-//W3C//DTD SVG 1.1//EN" "http://www.w3.org/Graphics/SVG/1.1/DTD/svg11.dtd">
<!-- Creator: CorelDRAW 2020 (64-Bit) -->
<svg xmlns="http://www.w3.org/2000/svg" xml:space="preserve" width="0.698909in" height="0.260646in" version="1.1" shape-rendering="geometricPrecision" text-rendering="geometricPrecision" image-rendering="optimizeQuality" fill-rule="evenodd" clip-rule="evenodd"
viewBox="0 0 153.4 57.21"
 xmlns:xlink="http://www.w3.org/1999/xlink"
 xmlns:xodm="http://www.corel.com/coreldraw/odm/2003">
 <g id="Layer_x0020_1">
  <metadata id="CorelCorpID_0Corel-Layer"/>
  <g id="_2411595591952">
   <path fill="#24305b" fill-rule="nonzero" d="M24.66 7.31c2.02,0 3.66,0.61 4.9,1.82 1.24,1.21 1.87,3.02 1.87,5.4l0 9.35 -4.74 0 0 -8.62c0,-1.29 -0.28,-2.26 -0.85,-2.9 -0.57,-0.64 -1.39,-0.96 -2.46,-0.96 -1.19,0 -2.15,0.37 -2.85,1.11 -0.71,0.74 -1.06,1.84 -1.06,3.29l0 8.07 -4.73 0 0 -16.33 4.52 0 0 1.91c0.63,-0.69 1.41,-1.22 2.34,-1.59 0.93,-0.38 1.95,-0.56 3.07,-0.56l0 0z"/>
   <path id="_1" fill="#24305b" fill-rule="nonzero" d="M43.66 24.13c-1.72,0 -3.26,-0.36 -4.63,-1.08 -1.36,-0.72 -2.43,-1.72 -3.2,-2.99 -0.77,-1.27 -1.15,-2.72 -1.15,-4.34 0,-1.62 0.38,-3.06 1.15,-4.34 0.77,-1.28 1.84,-2.27 3.2,-2.99 1.37,-0.72 2.91,-1.08 4.63,-1.08 1.72,0 3.26,0.36 4.61,1.08 1.35,0.72 2.42,1.72 3.19,2.99 0.77,1.27 1.15,2.72 1.15,4.34 0,1.62 -0.38,3.07 -1.15,4.34 -0.77,1.28 -1.83,2.27 -3.19,2.99 -1.35,0.72 -2.89,1.08 -4.61,1.08zm0 -3.88c1.21,0 2.21,-0.41 2.99,-1.23 0.78,-0.82 1.17,-1.92 1.17,-3.29 0,-1.38 -0.39,-2.47 -1.17,-3.29 -0.78,-0.82 -1.78,-1.23 -2.99,-1.23 -1.21,0 -2.21,0.41 -3,1.23 -0.79,0.82 -1.18,1.92 -1.18,3.29 0,1.38 0.39,2.47 1.18,3.29 0.79,0.82 1.79,1.23 3,1.23z"/>
   <path id="_2" fill="#24305b" fill-rule="nonzero" d="M71.71 12.84c1.21,0.38 2.17,1.03 2.85,1.93 0.69,0.9 1.03,2.01 1.03,3.32 0,1.86 -0.72,3.29 -2.17,4.29 -1.45,1 -3.56,1.5 -6.33,1.5l-10.99 0 0 -21.25 10.38 0c2.59,0 4.58,0.5 5.96,1.49 1.39,0.99 2.08,2.34 2.08,4.04 0,1.03 -0.25,1.95 -0.74,2.76 -0.5,0.81 -1.19,1.45 -2.08,1.91l0 0zm-10.72 -6.5l0 5.01 4.89 0c1.21,0 2.14,-0.21 2.76,-0.64 0.63,-0.43 0.94,-1.05 0.94,-1.88 0,-0.83 -0.31,-1.45 -0.94,-1.87 -0.63,-0.41 -1.55,-0.62 -2.76,-0.62l-4.89 0zm5.74 13.84c1.29,0 2.27,-0.21 2.93,-0.64 0.66,-0.43 0.99,-1.08 0.99,-1.97 0,-1.76 -1.3,-2.64 -3.91,-2.64l-5.74 0 0 5.25 5.74 0 -0 0z"/>
   <path id="_3" fill="#24305b" fill-rule="nonzero" d="M78.99 7.56l4.73 0 0 16.33 -4.73 0 0 -16.33zm2.37 -2.28c-0.87,0 -1.58,-0.25 -2.13,-0.76 -0.55,-0.51 -0.82,-1.13 -0.82,-1.88 0,-0.75 0.27,-1.38 0.82,-1.88 0.55,-0.51 1.25,-0.76 2.13,-0.76 0.87,0 1.58,0.24 2.12,0.73 0.55,0.49 0.82,1.09 0.82,1.82 0,0.79 -0.27,1.44 -0.82,1.96 -0.55,0.52 -1.25,0.77 -2.12,0.77l0 -0z"/>
   <path id="_4" fill="#24305b" fill-rule="nonzero" d="M94.72 7.31c2.53,0 4.47,0.6 5.83,1.81 1.35,1.2 2.03,3.02 2.03,5.45l0 9.32 -4.43 0 0 -2.03c-0.89,1.52 -2.55,2.28 -4.98,2.28 -1.25,0 -2.34,-0.21 -3.26,-0.64 -0.92,-0.42 -1.62,-1.01 -2.11,-1.76 -0.49,-0.75 -0.73,-1.6 -0.73,-2.55 0,-1.52 0.57,-2.71 1.72,-3.58 1.14,-0.87 2.91,-1.3 5.3,-1.3l3.76 0c0,-1.03 -0.31,-1.83 -0.94,-2.38 -0.63,-0.56 -1.57,-0.83 -2.82,-0.83 -0.87,0 -1.72,0.14 -2.56,0.41 -0.84,0.27 -1.55,0.64 -2.14,1.11l-1.7 -3.31c0.89,-0.63 1.96,-1.11 3.2,-1.46 1.24,-0.34 2.52,-0.52 3.84,-0.52l-0.01 0zm-0.36 13.63c0.81,0 1.53,-0.19 2.15,-0.56 0.63,-0.38 1.07,-0.93 1.34,-1.65l0 -1.67 -3.25 0c-1.94,0 -2.91,0.64 -2.91,1.91 0,0.61 0.24,1.09 0.71,1.44 0.48,0.35 1.13,0.53 1.96,0.53l-0 0z"/>
   <path id="_5" fill="#24305b" fill-rule="nonzero" d="M122.76 7.56l-7.38 17.33c-0.75,1.88 -1.67,3.21 -2.78,3.97 -1.1,0.77 -2.43,1.15 -3.99,1.15 -0.85,0 -1.69,-0.13 -2.52,-0.39 -0.83,-0.26 -1.51,-0.63 -2.03,-1.09l1.73 -3.37c0.36,0.32 0.78,0.58 1.26,0.76 0.48,0.18 0.94,0.27 1.41,0.27 0.65,0 1.17,-0.16 1.58,-0.47 0.41,-0.31 0.77,-0.83 1.09,-1.56l0.06 -0.15 -7.07 -16.45 4.89 0 4.58 11.08 4.61 -11.08 4.55 0 0 0z"/>
   <path id="_6" fill="#24305b" fill-rule="nonzero" d="M130.74 7.31c2.53,0 4.47,0.6 5.83,1.81 1.35,1.2 2.03,3.02 2.03,5.45l0 9.32 -4.43 0 0 -2.03c-0.89,1.52 -2.55,2.28 -4.98,2.28 -1.25,0 -2.34,-0.21 -3.26,-0.64 -0.92,-0.42 -1.62,-1.01 -2.11,-1.76 -0.49,-0.75 -0.73,-1.6 -0.73,-2.55 0,-1.52 0.57,-2.71 1.72,-3.58 1.14,-0.87 2.91,-1.3 5.3,-1.3l3.76 0c0,-1.03 -0.31,-1.83 -0.94,-2.38 -0.63,-0.56 -1.57,-0.83 -2.82,-0.83 -0.87,0 -1.72,0.14 -2.56,0.41 -0.84,0.27 -1.55,0.64 -2.14,1.11l-1.7 -3.31c0.89,-0.63 1.96,-1.11 3.2,-1.46 1.24,-0.34 2.52,-0.52 3.84,-0.52l-0.01 0zm-0.36 13.63c0.81,0 1.53,-0.19 2.15,-0.56 0.63,-0.38 1.07,-0.93 1.34,-1.65l0 -1.67 -3.25 0c-1.94,0 -2.91,0.64 -2.91,1.91 0,0.61 0.24,1.09 0.71,1.44 0.48,0.35 1.13,0.53 1.96,0.53l-0 0z"/>
   <path id="_7" fill="#24305b" fill-rule="nonzero" d="M8.23 35.08c1.5,0 2.85,0.34 4.07,1.02 1.21,0.68 2.17,1.63 2.85,2.87 0.69,1.23 1.03,2.64 1.03,4.22 0,1.58 -0.34,2.98 -1.03,4.22 -0.69,1.23 -1.64,2.2 -2.85,2.88 -1.21,0.69 -2.57,1.03 -4.07,1.03 -1.33,0 -2.53,-0.28 -3.6,-0.85 -1.06,-0.57 -1.92,-1.39 -2.56,-2.46l0 3.16 -2.07 0 0 -22.52 2.16 0 0 9.59c0.67,-1.03 1.52,-1.82 2.56,-2.35 1.04,-0.54 2.21,-0.8 3.51,-0.8l0 -0zm-0.15 14.33c1.11,0 2.12,-0.26 3.03,-0.77 0.91,-0.52 1.62,-1.25 2.14,-2.2 0.52,-0.95 0.77,-2.03 0.77,-3.25 0,-1.21 -0.26,-2.3 -0.77,-3.25 -0.52,-0.95 -1.23,-1.69 -2.14,-2.2 -0.91,-0.52 -1.92,-0.77 -3.03,-0.77 -1.13,0 -2.15,0.26 -3.05,0.77 -0.9,0.52 -1.61,1.25 -2.13,2.2 -0.52,0.95 -0.77,2.03 -0.77,3.25 0,1.21 0.26,2.3 0.77,3.25 0.52,0.95 1.22,1.69 2.13,2.2 0.9,0.52 1.92,0.77 3.05,0.77z"/>
   <path id="_8" fill="#24305b" fill-rule="nonzero" d="M26.07 35.08c2.08,0 3.68,0.52 4.8,1.56 1.11,1.04 1.67,2.58 1.67,4.63l0 9.89 -2.07 0 0 -2.49c-0.49,0.83 -1.2,1.48 -2.14,1.94 -0.94,0.47 -2.06,0.7 -3.35,0.7 -1.78,0 -3.2,-0.43 -4.25,-1.28 -1.05,-0.85 -1.58,-1.97 -1.58,-3.37 0,-1.35 0.49,-2.45 1.47,-3.28 0.98,-0.83 2.54,-1.24 4.69,-1.24l5.07 0 0 -0.97c0,-1.38 -0.38,-2.42 -1.15,-3.14 -0.77,-0.72 -1.89,-1.08 -3.37,-1.08 -1.01,0 -1.98,0.17 -2.91,0.5 -0.93,0.33 -1.73,0.79 -2.4,1.38l-0.97 -1.61c0.81,-0.69 1.78,-1.22 2.91,-1.59 1.13,-0.38 2.33,-0.56 3.58,-0.56l0 0zm-0.76 14.54c1.21,0 2.26,-0.28 3.13,-0.83 0.87,-0.56 1.52,-1.36 1.94,-2.41l0 -2.61 -5.01 0c-2.73,0 -4.1,0.95 -4.1,2.85 0,0.93 0.35,1.66 1.06,2.2 0.71,0.54 1.7,0.8 2.97,0.8z"/>
   <path id="_9" fill="#24305b" fill-rule="nonzero" d="M46.53 35.08c2,0 3.6,0.58 4.78,1.75 1.18,1.16 1.78,2.86 1.78,5.08l0 9.26 -2.16 0 0 -9.04c0,-1.66 -0.41,-2.92 -1.24,-3.8 -0.83,-0.87 -2.01,-1.3 -3.55,-1.3 -1.72,0 -3.08,0.51 -4.08,1.53 -1,1.02 -1.5,2.43 -1.5,4.23l0 8.38 -2.16 0 0 -15.96 2.07 0 0 2.94c0.59,-0.97 1.4,-1.72 2.44,-2.26 1.04,-0.54 2.25,-0.8 3.63,-0.8l0 -0z"/>
   <path id="_10" fill="#24305b" fill-rule="nonzero" d="M73.79 35.2l0 14.02c0,2.71 -0.66,4.72 -1.99,6.02 -1.32,1.31 -3.32,1.96 -5.99,1.96 -1.48,0 -2.88,-0.22 -4.2,-0.65 -1.32,-0.44 -2.4,-1.04 -3.23,-1.81l1.09 -1.64c0.77,0.69 1.71,1.22 2.81,1.61 1.1,0.38 2.26,0.58 3.48,0.58 2.02,0 3.51,-0.47 4.46,-1.41 0.95,-0.94 1.43,-2.4 1.43,-4.39l0 -2.03c-0.67,1.01 -1.54,1.78 -2.63,2.31 -1.08,0.53 -2.28,0.79 -3.6,0.79 -1.5,0 -2.86,-0.33 -4.08,-0.99 -1.22,-0.66 -2.19,-1.58 -2.88,-2.76 -0.7,-1.18 -1.05,-2.52 -1.05,-4.02 0,-1.5 0.35,-2.83 1.05,-4.01 0.7,-1.17 1.65,-2.08 2.87,-2.73 1.21,-0.65 2.58,-0.97 4.1,-0.97 1.35,0 2.58,0.27 3.67,0.82 1.09,0.55 1.97,1.34 2.64,2.37l0 -3.07 2.06 0 -0 0zm-8.16 13.45c1.15,0 2.2,-0.25 3.13,-0.74 0.93,-0.5 1.65,-1.19 2.17,-2.08 0.52,-0.89 0.77,-1.9 0.77,-3.03 0,-1.13 -0.26,-2.14 -0.77,-3.02 -0.52,-0.88 -1.23,-1.57 -2.16,-2.07 -0.92,-0.5 -1.97,-0.74 -3.14,-0.74 -1.15,0 -2.19,0.24 -3.11,0.73 -0.92,0.49 -1.64,1.17 -2.16,2.06 -0.52,0.89 -0.77,1.9 -0.77,3.04 0,1.13 0.26,2.14 0.77,3.03 0.52,0.89 1.23,1.58 2.16,2.08 0.92,0.5 1.96,0.74 3.11,0.74l-0 0z"/>
   <path id="_11" fill="#24305b" fill-rule="nonzero" d="M94.21 35.2l0 15.96 -2.07 0 0 -2.91c-0.57,0.97 -1.35,1.72 -2.34,2.26 -0.99,0.54 -2.12,0.8 -3.4,0.8 -2.08,0 -3.73,-0.58 -4.93,-1.75 -1.2,-1.16 -1.81,-2.87 -1.81,-5.11l0 -9.26 2.16 0 0 9.05c0,1.68 0.41,2.95 1.24,3.82 0.83,0.87 2.01,1.31 3.55,1.31 1.68,0 3.01,-0.51 3.98,-1.53 0.97,-1.02 1.46,-2.44 1.46,-4.26l0 -8.38 2.16 0 -0 -0z"/>
   <path id="_12" fill="#24305b" fill-rule="nonzero" d="M108.39 35.08c2,0 3.6,0.58 4.78,1.75 1.18,1.16 1.78,2.86 1.78,5.08l0 9.26 -2.16 0 0 -9.04c0,-1.66 -0.41,-2.92 -1.24,-3.8 -0.83,-0.87 -2.01,-1.3 -3.55,-1.3 -1.72,0 -3.08,0.51 -4.08,1.53 -1,1.02 -1.5,2.43 -1.5,4.23l0 8.38 -2.16 0 0 -15.96 2.07 0 0 2.94c0.59,-0.97 1.4,-1.72 2.44,-2.26 1.04,-0.54 2.25,-0.8 3.63,-0.8l0 -0z"/>
   <path id="_13" fill="#24305b" fill-rule="nonzero" d="M126.39 35.08c2.08,0 3.68,0.52 4.8,1.56 1.11,1.04 1.67,2.58 1.67,4.63l0 9.89 -2.07 0 0 -2.49c-0.49,0.83 -1.2,1.48 -2.14,1.94 -0.94,0.47 -2.06,0.7 -3.35,0.7 -1.78,0 -3.2,-0.43 -4.25,-1.28 -1.05,-0.85 -1.58,-1.97 -1.58,-3.37 0,-1.35 0.49,-2.45 1.47,-3.28 0.98,-0.83 2.54,-1.24 4.69,-1.24l5.07 0 0 -0.97c0,-1.38 -0.38,-2.42 -1.15,-3.14 -0.77,-0.72 -1.89,-1.08 -3.37,-1.08 -1.01,0 -1.98,0.17 -2.91,0.5 -0.93,0.33 -1.73,0.79 -2.4,1.38l-0.97 -1.61c0.81,-0.69 1.78,-1.22 2.91,-1.59 1.13,-0.38 2.33,-0.56 3.58,-0.56l0 0zm-0.76 14.54c1.21,0 2.26,-0.28 3.13,-0.83 0.87,-0.56 1.52,-1.36 1.94,-2.41l0 -2.61 -5.01 0c-2.73,0 -4.1,0.95 -4.1,2.85 0,0.93 0.35,1.66 1.06,2.2 0.71,0.54 1.7,0.8 2.97,0.8z"/>
   <path id="_14" fill="#24305b" fill-rule="nonzero" d="M146.85 35.08c2,0 3.6,0.58 4.78,1.75 1.18,1.16 1.78,2.86 1.78,5.08l0 9.26 -2.16 0 0 -9.04c0,-1.66 -0.41,-2.92 -1.24,-3.8 -0.83,-0.87 -2.01,-1.3 -3.55,-1.3 -1.72,0 -3.08,0.51 -4.08,1.53 -1,1.02 -1.5,2.43 -1.5,4.23l0 8.38 -2.16 0 0 -15.96 2.07 0 0 2.94c0.59,-0.97 1.4,-1.72 2.44,-2.26 1.04,-0.54 2.25,-0.8 3.63,-0.8l0 -0z"/>
  </g>
 </g>
</svg>
