<?xml version="1.0" encoding="UTF-8"?>
<!DOCTYPE svg PUBLIC "-//W3C//DTD SVG 1.1//EN" "http://www.w3.org/Graphics/SVG/1.1/DTD/svg11.dtd">
<!-- Creator: CorelDRAW 2020 (64-Bit) -->
<svg xmlns="http://www.w3.org/2000/svg" xml:space="preserve" width="0.404425in" height="0.279866in" version="1.1" shape-rendering="geometricPrecision" text-rendering="geometricPrecision" image-rendering="optimizeQuality" fill-rule="evenodd" clip-rule="evenodd"
viewBox="0 0 117.96 81.63"
 xmlns:xlink="http://www.w3.org/1999/xlink"
 xmlns:xodm="http://www.corel.com/coreldraw/odm/2003">
 <g id="Layer_x0020_1">
  <metadata id="CorelCorpID_0Corel-Layer"/>
  <g id="_2503160228944">
   <path fill="#24305b" fill-rule="nonzero" d="M46.43 57.72c-3.11,0 -5.92,-0.77 -8.42,-2.3 -2.5,-1.53 -4.48,-3.76 -5.92,-6.67 -1.44,-2.91 -2.17,-6.35 -2.17,-10.32 0,-6.86 1.47,-13.21 4.4,-19.05 2.93,-5.84 7.26,-10.53 12.99,-14.07 5.73,-3.54 12.61,-5.31 20.64,-5.31 2.08,0 4.3,0.16 6.67,0.48 2.37,0.32 4.52,0.79 6.46,1.42 1.26,0.36 1.89,1.26 1.89,2.71 0,1.17 -0.44,2.28 -1.32,3.32 -0.88,1.04 -1.91,1.56 -3.08,1.56 -0.36,0 -0.63,-0.02 -0.81,-0.07 -2.35,-0.54 -4.35,-0.94 -6.02,-1.19 -1.67,-0.25 -3.43,-0.37 -5.28,-0.37 -5.73,0 -10.6,1.39 -14.62,4.16 -4.01,2.77 -7.02,6.44 -9,11 -1.98,4.56 -2.98,9.47 -2.98,14.75 0,3.83 0.75,6.8 2.27,8.9 1.51,2.1 3.48,3.15 5.92,3.15 2.75,0 5.16,-1.13 7.24,-3.38 2.08,-2.26 3.97,-5.91 5.69,-10.96 1.72,-5.05 3.41,-11.91 5.08,-20.57 0.27,-1.26 0.81,-2.12 1.62,-2.57 0.81,-0.45 1.89,-0.68 3.25,-0.68 3.2,0 4.8,1.04 4.8,3.11 0,0.36 -0.07,0.81 -0.2,1.35 -1.17,4.38 -2.24,9.21 -3.22,14.52 -0.97,5.3 -1.45,9.33 -1.45,12.08 0,2.44 0.36,4.21 1.08,5.31 0.72,1.11 1.83,1.66 3.32,1.66 1.44,0 2.82,-0.49 4.13,-1.45 1.31,-0.97 2.96,-2.63 4.94,-4.97 0.54,-0.63 1.15,-0.95 1.83,-0.95 0.59,0 1.05,0.27 1.39,0.81 0.34,0.54 0.51,1.28 0.51,2.23 0,1.76 -0.43,3.16 -1.28,4.2 -2.21,2.66 -4.37,4.69 -6.49,6.09 -2.12,1.4 -4.71,2.1 -7.78,2.1 -3.16,0 -5.7,-0.91 -7.65,-2.74 -1.94,-1.83 -3.16,-4.41 -3.66,-7.75 -3.34,6.99 -8.26,10.49 -14.75,10.49l0.01 -0z"/>
   <path fill="#24305b" fill-rule="nonzero" d="M5.67 68.31c1.71,0 3.02,0.43 3.93,1.28 0.91,0.86 1.37,2.12 1.37,3.8l0 8.12 -1.69 0 0 -2.04c-0.4,0.68 -0.98,1.21 -1.76,1.6 -0.77,0.38 -1.69,0.57 -2.75,0.57 -1.46,0 -2.62,-0.35 -3.48,-1.04 -0.86,-0.7 -1.29,-1.62 -1.29,-2.76 0,-1.11 0.4,-2.01 1.21,-2.69 0.8,-0.68 2.09,-1.02 3.85,-1.02l4.16 0 0 -0.8c0,-1.13 -0.32,-1.99 -0.95,-2.58 -0.63,-0.59 -1.55,-0.89 -2.76,-0.89 -0.83,0 -1.62,0.14 -2.39,0.41 -0.76,0.27 -1.42,0.65 -1.97,1.13l-0.79 -1.32c0.66,-0.56 1.46,-1 2.39,-1.31 0.93,-0.31 1.91,-0.46 2.94,-0.46l-0.01 0zm-0.62 11.92c1,0 1.85,-0.23 2.56,-0.68 0.71,-0.45 1.24,-1.11 1.6,-1.98l0 -2.14 -4.11 0c-2.24,0 -3.36,0.78 -3.36,2.34 0,0.76 0.29,1.37 0.87,1.81 0.58,0.44 1.39,0.66 2.44,0.66z"/>
   <polygon id="_1" fill="#24305b" fill-rule="nonzero" points="20.63,74.93 17.55,77.77 17.55,81.5 15.78,81.5 15.78,63.03 17.55,63.03 17.55,75.55 25.36,68.41 27.55,68.41 21.95,73.76 28.07,81.5 25.91,81.5 "/>
   <path id="_2" fill="#24305b" fill-rule="nonzero" d="M32.23 70.97c0.41,-0.88 1.03,-1.54 1.85,-1.99 0.82,-0.45 1.84,-0.67 3.05,-0.67l0 1.72 -0.42 -0.03c-1.38,0 -2.46,0.42 -3.23,1.27 -0.78,0.85 -1.17,2.03 -1.17,3.56l0 6.67 -1.77 0 0 -13.09 1.69 0 0 2.56 0 0z"/>
   <path id="_3" fill="#24305b" fill-rule="nonzero" d="M51.6 75.5l-10.95 0c0.1,1.36 0.62,2.46 1.57,3.3 0.95,0.84 2.14,1.26 3.59,1.26 0.81,0 1.56,-0.15 2.24,-0.44 0.68,-0.29 1.27,-0.72 1.77,-1.28l1 1.14c-0.58,0.7 -1.31,1.23 -2.18,1.59 -0.87,0.37 -1.83,0.55 -2.88,0.55 -1.35,0 -2.54,-0.29 -3.57,-0.86 -1.04,-0.57 -1.85,-1.37 -2.43,-2.38 -0.58,-1.01 -0.87,-2.16 -0.87,-3.43 0,-1.28 0.28,-2.42 0.83,-3.43 0.56,-1.01 1.32,-1.8 2.29,-2.36 0.97,-0.56 2.06,-0.85 3.27,-0.85 1.21,0 2.3,0.28 3.26,0.85 0.96,0.57 1.72,1.35 2.26,2.35 0.55,1 0.82,2.15 0.82,3.45l-0.03 0.55 -0 -0.01zm-6.32 -5.68c-1.26,0 -2.32,0.4 -3.17,1.21 -0.86,0.8 -1.34,1.85 -1.46,3.15l9.28 0c-0.12,-1.29 -0.6,-2.34 -1.46,-3.15 -0.86,-0.8 -1.92,-1.21 -3.2,-1.21l0 0z"/>
   <path id="_4" fill="#24305b" fill-rule="nonzero" d="M67.18 63.03l0 18.47 -1.69 0 0 -2.59c-0.53,0.88 -1.23,1.55 -2.1,2.02 -0.87,0.47 -1.85,0.7 -2.95,0.7 -1.23,0 -2.34,-0.28 -3.34,-0.85 -1,-0.56 -1.78,-1.35 -2.34,-2.36 -0.56,-1.01 -0.85,-2.17 -0.85,-3.46 0,-1.29 0.28,-2.45 0.85,-3.46 0.57,-1.01 1.35,-1.8 2.34,-2.35 1,-0.56 2.11,-0.83 3.34,-0.83 1.06,0 2.02,0.22 2.88,0.66 0.86,0.44 1.56,1.08 2.1,1.93l0 -7.87 1.77 0 -0 -0zm-6.6 17.03c0.91,0 1.74,-0.21 2.47,-0.63 0.74,-0.42 1.32,-1.02 1.74,-1.81 0.42,-0.78 0.63,-1.67 0.63,-2.66 0,-1 -0.21,-1.88 -0.63,-2.66 -0.42,-0.78 -1,-1.38 -1.74,-1.81 -0.74,-0.42 -1.57,-0.63 -2.47,-0.63 -0.93,0 -1.76,0.21 -2.5,0.63 -0.74,0.42 -1.32,1.02 -1.74,1.81 -0.42,0.78 -0.63,1.67 -0.63,2.66 0,1 0.21,1.88 0.63,2.66 0.42,0.78 1,1.38 1.74,1.81 0.74,0.42 1.57,0.63 2.5,0.63z"/>
   <path id="_5" fill="#24305b" fill-rule="nonzero" d="M72.11 68.41l1.77 0 0 13.09 -1.77 0 0 -13.09zm0.9 -2.86c-0.37,0 -0.67,-0.12 -0.92,-0.37 -0.25,-0.25 -0.37,-0.55 -0.37,-0.9 0,-0.33 0.13,-0.62 0.37,-0.87 0.25,-0.25 0.56,-0.37 0.92,-0.37 0.37,0 0.67,0.12 0.92,0.36 0.25,0.24 0.37,0.53 0.37,0.86 0,0.37 -0.13,0.67 -0.37,0.92 -0.25,0.25 -0.56,0.37 -0.92,0.37z"/>
   <path id="_6" fill="#24305b" fill-rule="nonzero" d="M85.7 80.71c-0.33,0.3 -0.74,0.53 -1.23,0.68 -0.49,0.16 -1,0.24 -1.53,0.24 -1.23,0 -2.17,-0.33 -2.84,-1 -0.66,-0.66 -1,-1.6 -1,-2.81l0 -7.92 -2.34 0 0 -1.49 2.34 0 0 -2.86 1.77 0 0 2.86 3.98 0 0 1.49 -3.98 0 0 7.82c0,0.78 0.2,1.37 0.59,1.78 0.39,0.41 0.95,0.61 1.68,0.61 0.37,0 0.72,-0.06 1.06,-0.17 0.34,-0.12 0.63,-0.28 0.89,-0.5l0.62 1.27 0 0z"/>
   <path id="_7" fill="#24305b" fill-rule="nonzero" d="M93.49 68.31c1.71,0 3.02,0.43 3.93,1.28 0.91,0.86 1.37,2.12 1.37,3.8l0 8.12 -1.69 0 0 -2.04c-0.4,0.68 -0.98,1.21 -1.76,1.6 -0.77,0.38 -1.69,0.57 -2.75,0.57 -1.46,0 -2.62,-0.35 -3.48,-1.04 -0.86,-0.7 -1.29,-1.62 -1.29,-2.76 0,-1.11 0.4,-2.01 1.21,-2.69 0.8,-0.68 2.09,-1.02 3.85,-1.02l4.16 0 0 -0.8c0,-1.13 -0.32,-1.99 -0.95,-2.58 -0.63,-0.59 -1.55,-0.89 -2.76,-0.89 -0.83,0 -1.62,0.14 -2.39,0.41 -0.76,0.27 -1.42,0.65 -1.97,1.13l-0.79 -1.32c0.66,-0.56 1.46,-1 2.39,-1.31 0.93,-0.31 1.91,-0.46 2.94,-0.46l-0.01 0zm-0.62 11.92c1,0 1.85,-0.23 2.56,-0.68 0.71,-0.45 1.24,-1.11 1.6,-1.98l0 -2.14 -4.11 0c-2.24,0 -3.36,0.78 -3.36,2.34 0,0.76 0.29,1.37 0.87,1.81 0.58,0.44 1.39,0.66 2.44,0.66z"/>
   <path id="_8" fill="#24305b" fill-rule="nonzero" d="M107.11 81.63c-1.06,0 -2.08,-0.15 -3.05,-0.46 -0.97,-0.31 -1.73,-0.69 -2.28,-1.16l0.79 -1.39c0.55,0.43 1.24,0.78 2.06,1.06 0.83,0.27 1.69,0.41 2.59,0.41 1.2,0 2.08,-0.19 2.65,-0.56 0.57,-0.37 0.86,-0.9 0.86,-1.58 0,-0.48 -0.16,-0.86 -0.47,-1.13 -0.31,-0.27 -0.71,-0.48 -1.2,-0.62 -0.48,-0.14 -1.12,-0.28 -1.92,-0.41 -1.06,-0.2 -1.92,-0.4 -2.56,-0.61 -0.65,-0.21 -1.2,-0.56 -1.65,-1.06 -0.46,-0.5 -0.69,-1.19 -0.69,-2.06 0,-1.1 0.46,-1.99 1.37,-2.69 0.91,-0.7 2.18,-1.05 3.81,-1.05 0.85,0 1.69,0.11 2.54,0.34 0.85,0.22 1.54,0.52 2.09,0.88l-0.77 1.42c-1.08,-0.75 -2.36,-1.12 -3.86,-1.12 -1.13,0 -1.98,0.2 -2.55,0.6 -0.57,0.4 -0.86,0.92 -0.86,1.57 0,0.5 0.16,0.9 0.49,1.2 0.32,0.3 0.73,0.52 1.21,0.66 0.48,0.14 1.14,0.29 1.99,0.44 1.04,0.2 1.88,0.4 2.51,0.6 0.63,0.2 1.17,0.54 1.62,1.02 0.45,0.48 0.67,1.14 0.67,1.99 0,1.14 -0.48,2.05 -1.43,2.72 -0.95,0.67 -2.28,1.01 -3.97,1.01l0 -0z"/>
   <path id="_9" fill="#24305b" fill-rule="nonzero" d="M115.77 68.41l1.77 0 0 13.09 -1.77 0 0 -13.09zm0.9 -2.86c-0.37,0 -0.67,-0.12 -0.92,-0.37 -0.25,-0.25 -0.37,-0.55 -0.37,-0.9 0,-0.33 0.13,-0.62 0.37,-0.87 0.25,-0.25 0.56,-0.37 0.92,-0.37 0.37,0 0.67,0.12 0.92,0.36 0.25,0.24 0.37,0.53 0.37,0.86 0,0.37 -0.13,0.67 -0.37,0.92 -0.25,0.25 -0.56,0.37 -0.92,0.37z"/>
   <path id="_10" fill="#24305b" fill-rule="nonzero" d="M5.67 68.31c1.71,0 3.02,0.43 3.93,1.28 0.91,0.86 1.37,2.12 1.37,3.8l0 8.12 -1.69 0 0 -2.04c-0.4,0.68 -0.98,1.21 -1.76,1.6 -0.77,0.38 -1.69,0.57 -2.75,0.57 -1.46,0 -2.62,-0.35 -3.48,-1.04 -0.86,-0.7 -1.29,-1.62 -1.29,-2.76 0,-1.11 0.4,-2.01 1.21,-2.69 0.8,-0.68 2.09,-1.02 3.85,-1.02l4.16 0 0 -0.8c0,-1.13 -0.32,-1.99 -0.95,-2.58 -0.63,-0.59 -1.55,-0.89 -2.76,-0.89 -0.83,0 -1.62,0.14 -2.39,0.41 -0.76,0.27 -1.42,0.65 -1.97,1.13l-0.79 -1.32c0.66,-0.56 1.46,-1 2.39,-1.31 0.93,-0.31 1.91,-0.46 2.94,-0.46l-0.01 0zm-0.62 11.92c1,0 1.85,-0.23 2.56,-0.68 0.71,-0.45 1.24,-1.11 1.6,-1.98l0 -2.14 -4.11 0c-2.24,0 -3.36,0.78 -3.36,2.34 0,0.76 0.29,1.37 0.87,1.81 0.58,0.44 1.39,0.66 2.44,0.66z"/>
   <polygon id="_11" fill="#24305b" fill-rule="nonzero" points="20.63,74.93 17.55,77.77 17.55,81.5 15.78,81.5 15.78,63.03 17.55,63.03 17.55,75.55 25.36,68.41 27.55,68.41 21.95,73.76 28.07,81.5 25.91,81.5 "/>
   <path id="_12" fill="#24305b" fill-rule="nonzero" d="M32.23 70.97c0.41,-0.88 1.03,-1.54 1.85,-1.99 0.82,-0.45 1.84,-0.67 3.05,-0.67l0 1.72 -0.42 -0.03c-1.38,0 -2.46,0.42 -3.23,1.27 -0.78,0.85 -1.17,2.03 -1.17,3.56l0 6.67 -1.77 0 0 -13.09 1.69 0 0 2.56 0 0z"/>
   <path id="_13" fill="#24305b" fill-rule="nonzero" d="M51.6 75.5l-10.95 0c0.1,1.36 0.62,2.46 1.57,3.3 0.95,0.84 2.14,1.26 3.59,1.26 0.81,0 1.56,-0.15 2.24,-0.44 0.68,-0.29 1.27,-0.72 1.77,-1.28l1 1.14c-0.58,0.7 -1.31,1.23 -2.18,1.59 -0.87,0.37 -1.83,0.55 -2.88,0.55 -1.35,0 -2.54,-0.29 -3.57,-0.86 -1.04,-0.57 -1.85,-1.37 -2.43,-2.38 -0.58,-1.01 -0.87,-2.16 -0.87,-3.43 0,-1.28 0.28,-2.42 0.83,-3.43 0.56,-1.01 1.32,-1.8 2.29,-2.36 0.97,-0.56 2.06,-0.85 3.27,-0.85 1.21,0 2.3,0.28 3.26,0.85 0.96,0.57 1.72,1.35 2.26,2.35 0.55,1 0.82,2.15 0.82,3.45l-0.03 0.55 -0 -0.01zm-6.32 -5.68c-1.26,0 -2.32,0.4 -3.17,1.21 -0.86,0.8 -1.34,1.85 -1.46,3.15l9.28 0c-0.12,-1.29 -0.6,-2.34 -1.46,-3.15 -0.86,-0.8 -1.92,-1.21 -3.2,-1.21l0 0z"/>
   <path id="_14" fill="#24305b" fill-rule="nonzero" d="M67.18 63.03l0 18.47 -1.69 0 0 -2.59c-0.53,0.88 -1.23,1.55 -2.1,2.02 -0.87,0.47 -1.85,0.7 -2.95,0.7 -1.23,0 -2.34,-0.28 -3.34,-0.85 -1,-0.56 -1.78,-1.35 -2.34,-2.36 -0.56,-1.01 -0.85,-2.17 -0.85,-3.46 0,-1.29 0.28,-2.45 0.85,-3.46 0.57,-1.01 1.35,-1.8 2.34,-2.35 1,-0.56 2.11,-0.83 3.34,-0.83 1.06,0 2.02,0.22 2.88,0.66 0.86,0.44 1.56,1.08 2.1,1.93l0 -7.87 1.77 0 -0 -0zm-6.6 17.03c0.91,0 1.74,-0.21 2.47,-0.63 0.74,-0.42 1.32,-1.02 1.74,-1.81 0.42,-0.78 0.63,-1.67 0.63,-2.66 0,-1 -0.21,-1.88 -0.63,-2.66 -0.42,-0.78 -1,-1.38 -1.74,-1.81 -0.74,-0.42 -1.57,-0.63 -2.47,-0.63 -0.93,0 -1.76,0.21 -2.5,0.63 -0.74,0.42 -1.32,1.02 -1.74,1.81 -0.42,0.78 -0.63,1.67 -0.63,2.66 0,1 0.21,1.88 0.63,2.66 0.42,0.78 1,1.38 1.74,1.81 0.74,0.42 1.57,0.63 2.5,0.63z"/>
   <path id="_15" fill="#24305b" fill-rule="nonzero" d="M72.11 68.41l1.77 0 0 13.09 -1.77 0 0 -13.09zm0.9 -2.86c-0.37,0 -0.67,-0.12 -0.92,-0.37 -0.25,-0.25 -0.37,-0.55 -0.37,-0.9 0,-0.33 0.13,-0.62 0.37,-0.87 0.25,-0.25 0.56,-0.37 0.92,-0.37 0.37,0 0.67,0.12 0.92,0.36 0.25,0.24 0.37,0.53 0.37,0.86 0,0.37 -0.13,0.67 -0.37,0.92 -0.25,0.25 -0.56,0.37 -0.92,0.37z"/>
   <path id="_16" fill="#24305b" fill-rule="nonzero" d="M85.7 80.71c-0.33,0.3 -0.74,0.53 -1.23,0.68 -0.49,0.16 -1,0.24 -1.53,0.24 -1.23,0 -2.17,-0.33 -2.84,-1 -0.66,-0.66 -1,-1.6 -1,-2.81l0 -7.92 -2.34 0 0 -1.49 2.34 0 0 -2.86 1.77 0 0 2.86 3.98 0 0 1.49 -3.98 0 0 7.82c0,0.78 0.2,1.37 0.59,1.78 0.39,0.41 0.95,0.61 1.68,0.61 0.37,0 0.72,-0.06 1.06,-0.17 0.34,-0.12 0.63,-0.28 0.89,-0.5l0.62 1.27 0 0z"/>
   <path id="_17" fill="#24305b" fill-rule="nonzero" d="M93.49 68.31c1.71,0 3.02,0.43 3.93,1.28 0.91,0.86 1.37,2.12 1.37,3.8l0 8.12 -1.69 0 0 -2.04c-0.4,0.68 -0.98,1.21 -1.76,1.6 -0.77,0.38 -1.69,0.57 -2.75,0.57 -1.46,0 -2.62,-0.35 -3.48,-1.04 -0.86,-0.7 -1.29,-1.62 -1.29,-2.76 0,-1.11 0.4,-2.01 1.21,-2.69 0.8,-0.68 2.09,-1.02 3.85,-1.02l4.16 0 0 -0.8c0,-1.13 -0.32,-1.99 -0.95,-2.58 -0.63,-0.59 -1.55,-0.89 -2.76,-0.89 -0.83,0 -1.62,0.14 -2.39,0.41 -0.76,0.27 -1.42,0.65 -1.97,1.13l-0.79 -1.32c0.66,-0.56 1.46,-1 2.39,-1.31 0.93,-0.31 1.91,-0.46 2.94,-0.46l-0.01 0zm-0.62 11.92c1,0 1.85,-0.23 2.56,-0.68 0.71,-0.45 1.24,-1.11 1.6,-1.98l0 -2.14 -4.11 0c-2.24,0 -3.36,0.78 -3.36,2.34 0,0.76 0.29,1.37 0.87,1.81 0.58,0.44 1.39,0.66 2.44,0.66z"/>
   <path id="_18" fill="#24305b" fill-rule="nonzero" d="M107.11 81.63c-1.06,0 -2.08,-0.15 -3.05,-0.46 -0.97,-0.31 -1.73,-0.69 -2.28,-1.16l0.79 -1.39c0.55,0.43 1.24,0.78 2.06,1.06 0.83,0.27 1.69,0.41 2.59,0.41 1.2,0 2.08,-0.19 2.65,-0.56 0.57,-0.37 0.86,-0.9 0.86,-1.58 0,-0.48 -0.16,-0.86 -0.47,-1.13 -0.31,-0.27 -0.71,-0.48 -1.2,-0.62 -0.48,-0.14 -1.12,-0.28 -1.92,-0.41 -1.06,-0.2 -1.92,-0.4 -2.56,-0.61 -0.65,-0.21 -1.2,-0.56 -1.65,-1.06 -0.46,-0.5 -0.69,-1.19 -0.69,-2.06 0,-1.1 0.46,-1.99 1.37,-2.69 0.91,-0.7 2.18,-1.05 3.81,-1.05 0.85,0 1.69,0.11 2.54,0.34 0.85,0.22 1.54,0.52 2.09,0.88l-0.77 1.42c-1.08,-0.75 -2.36,-1.12 -3.86,-1.12 -1.13,0 -1.98,0.2 -2.55,0.6 -0.57,0.4 -0.86,0.92 -0.86,1.57 0,0.5 0.16,0.9 0.49,1.2 0.32,0.3 0.73,0.52 1.21,0.66 0.48,0.14 1.14,0.29 1.99,0.44 1.04,0.2 1.88,0.4 2.51,0.6 0.63,0.2 1.17,0.54 1.62,1.02 0.45,0.48 0.67,1.14 0.67,1.99 0,1.14 -0.48,2.05 -1.43,2.72 -0.95,0.67 -2.28,1.01 -3.97,1.01l0 -0z"/>
   <path id="_19" fill="#24305b" fill-rule="nonzero" d="M115.77 68.41l1.77 0 0 13.09 -1.77 0 0 -13.09zm0.9 -2.86c-0.37,0 -0.67,-0.12 -0.92,-0.37 -0.25,-0.25 -0.37,-0.55 -0.37,-0.9 0,-0.33 0.13,-0.62 0.37,-0.87 0.25,-0.25 0.56,-0.37 0.92,-0.37 0.37,0 0.67,0.12 0.92,0.36 0.25,0.24 0.37,0.53 0.37,0.86 0,0.37 -0.13,0.67 -0.37,0.92 -0.25,0.25 -0.56,0.37 -0.92,0.37z"/>
  </g>
 </g>
</svg>
