<?xml version="1.0" encoding="UTF-8"?>
<!DOCTYPE svg PUBLIC "-//W3C//DTD SVG 1.1//EN" "http://www.w3.org/Graphics/SVG/1.1/DTD/svg11.dtd">
<!-- Creator: CorelDRAW 2020 (64-Bit) -->
<svg xmlns="http://www.w3.org/2000/svg" xml:space="preserve" width="0.548815in" height="0.117453in" version="1.1" shape-rendering="geometricPrecision" text-rendering="geometricPrecision" image-rendering="optimizeQuality" fill-rule="evenodd" clip-rule="evenodd"
viewBox="0 0 2509.32 537.02"
 xmlns:xlink="http://www.w3.org/1999/xlink"
 xmlns:xodm="http://www.corel.com/coreldraw/odm/2003">
 <g id="Layer_x0020_1">
  <metadata id="CorelCorpID_0Corel-Layer"/>
  <path fill="#24305b" d="M686.67 0l0 0c379.17,0 686.67,120.25 686.67,268.5l0 0c0,148.24 -307.49,268.49 -686.67,268.49l0 0.04c-379.17,-0.04 -686.67,-120.28 -686.67,-268.52l0 0c0,-148.26 307.49,-268.5 686.67,-268.5z"/>
  <path fill="#24305b" fill-rule="nonzero" d="M325.15 200.19l60.81 0 0 52.89 -59.03 0 0 178.86 -68.73 0 0 -178.86 -36.56 0 0 -52.89 36.56 0 0 -10.57c0,-27.02 8.01,-48.46 24.01,-64.32 16,-15.86 38.56,-23.82 67.63,-23.82 10.3,0 20.07,1.1 29.31,3.31 9.27,2.21 16.96,5.36 23.15,9.47l-18.06 49.81c-7.92,-5.6 -17.19,-8.35 -27.76,-8.35 -20.86,0 -31.27,11.43 -31.27,34.35l0 10.13 -0.07 -0.02z"/>
  <path id="_1" fill="#24305b" fill-rule="nonzero" d="M521.17 226.18c8.24,-11.47 19.32,-20.11 33.28,-25.99 13.95,-5.87 30.04,-8.84 48.22,-8.84l0 63.45c-7.65,-0.59 -12.78,-0.86 -15.41,-0.86 -19.68,0 -35.1,5.53 -46.24,16.52 -11.16,11 -16.76,27.52 -16.76,49.57l0 111.91 -68.73 0 0 -237.02 65.65 0 0 31.27 -0.02 -0.02z"/>
  <path id="_2" fill="#24305b" fill-rule="nonzero" d="M873.64 314.32c0,0.86 -0.43,7.06 -1.3,18.49l-179.34 0c3.24,14.71 10.89,26.26 22.92,34.81 12.02,8.51 27.02,12.78 44.91,12.78 12.35,0 23.26,-1.85 32.85,-5.53 9.54,-3.67 18.42,-9.47 26.66,-17.39l36.56 39.62c-22.32,25.54 -54.92,38.32 -97.84,38.32 -26.73,0 -50.35,-5.2 -70.94,-15.66 -20.54,-10.4 -36.43,-24.88 -47.59,-43.42 -11.16,-18.49 -16.76,-39.51 -16.76,-63 0,-23.19 5.53,-44.12 16.52,-62.77 11,-18.65 26.14,-33.19 45.38,-43.62 19.24,-10.4 40.77,-15.66 64.55,-15.66 23.19,0 44.21,4.97 63,14.98 18.81,9.97 33.55,24.34 44.28,42.99 10.73,18.65 16.09,40.3 16.09,64.98l0.04 0.07zm-122.91 -70.94c-15.53,0 -28.62,4.41 -39.19,13.25 -10.57,8.78 -17.03,20.86 -19.41,36.13l116.75 0c-2.32,-14.98 -8.78,-26.97 -19.41,-35.93 -10.57,-8.95 -23.51,-13.45 -38.76,-13.45z"/>
  <path id="_3" fill="#24305b" fill-rule="nonzero" d="M1151.69 314.32c0,0.86 -0.43,7.06 -1.3,18.49l-179.34 0c3.24,14.71 10.89,26.26 22.92,34.81 12.02,8.51 27.02,12.78 44.91,12.78 12.35,0 23.26,-1.85 32.85,-5.53 9.54,-3.67 18.42,-9.47 26.66,-17.39l36.56 39.62c-22.32,25.54 -54.92,38.32 -97.84,38.32 -26.73,0 -50.35,-5.2 -70.94,-15.66 -20.54,-10.4 -36.43,-24.88 -47.59,-43.42 -11.16,-18.49 -16.76,-39.51 -16.76,-63 0,-23.19 5.53,-44.12 16.52,-62.77 11,-18.65 26.14,-33.19 45.38,-43.62 19.24,-10.4 40.77,-15.66 64.55,-15.66 23.19,0 44.21,4.97 63,14.98 18.81,9.97 33.55,24.34 44.28,42.99 10.73,18.65 16.09,40.3 16.09,64.98l0.04 0.07zm-122.91 -70.94c-15.53,0 -28.62,4.41 -39.19,13.25 -10.57,8.78 -17.03,20.86 -19.41,36.13l116.75 0c-2.32,-14.98 -8.78,-26.97 -19.41,-35.93 -10.57,-8.95 -23.51,-13.45 -38.76,-13.45z"/>
  <path fill="#24305b" fill-rule="nonzero" d="M1604.25 460.52c-28.03,0 -54.92,-4.5 -80.64,-13.48 -25.71,-8.98 -45.58,-20.86 -59.58,-35.61l15.66 -30.76c13.64,13.64 31.83,24.72 54.49,33.16 22.63,8.44 46.01,12.65 70.11,12.65 33.79,0 59.15,-6.19 76.07,-18.61 16.92,-12.42 25.36,-28.51 25.36,-48.26 0,-15.1 -4.57,-27.16 -13.75,-36.16 -9.14,-8.98 -20.43,-15.93 -33.72,-20.77 -13.28,-4.84 -31.83,-10.13 -55.55,-15.93 -28.39,-7.18 -51.07,-14.11 -67.94,-20.74 -16.92,-6.66 -31.39,-16.79 -43.45,-30.48 -12.02,-13.64 -18.06,-32.17 -18.06,-55.55 0,-19.05 5,-36.43 15.1,-52.06 10.06,-15.66 25.51,-28.15 46.37,-37.5 20.86,-9.34 46.73,-14.04 77.64,-14.04 21.57,0 42.7,2.95 63.36,8.91 20.7,5.92 38.56,14.11 53.66,24.54l-13.48 31.83c-15.8,-10.4 -32.69,-18.25 -50.71,-23.46 -17.98,-5.2 -35.61,-7.85 -52.89,-7.85 -33.09,0 -57.96,6.39 -74.72,19.17 -16.72,12.78 -25.08,29.22 -25.08,49.38 0,15.1 4.57,27.25 13.75,36.4 9.18,9.18 20.7,16.16 34.54,21.06 13.84,4.84 32.46,10.13 55.84,15.93 27.69,6.82 50.08,13.57 67.14,20.23 17.08,6.66 31.54,16.72 43.42,30.21 11.86,13.48 17.79,31.74 17.79,54.78 0,19.05 -5.13,36.4 -15.37,52.06 -10.26,15.66 -25.99,28.03 -47.2,37.23 -21.22,9.14 -47.27,13.75 -78.23,13.75l0.05 -0.02z"/>
  <path id="_1_0" fill="#24305b" fill-rule="nonzero" d="M1973.16 79.69c48.19,0 85.95,11.52 113.28,34.54 27.33,22.99 40.97,54.65 40.97,94.96 0,40.27 -13.64,71.81 -40.97,94.63 -27.33,22.83 -65.11,34.27 -113.28,34.27l-101.38 0 0 119.2 -39.91 0 0 -377.55 141.33 0 -0.04 -0.05zm-1.06 223.3c37.39,0 65.97,-8.15 85.76,-24.54 19.75,-16.36 29.65,-39.48 29.65,-69.32 0,-30.57 -9.9,-54.02 -29.65,-70.38 -19.8,-16.36 -48.39,-24.54 -85.76,-24.54l-100.36 0 0 188.76 100.36 0 0 0.02z"/>
  <path id="_2_1" fill="#24305b" fill-rule="nonzero" d="M2355.07 79.69c48.19,0 85.95,11.52 113.28,34.54 27.33,22.99 40.97,54.65 40.97,94.96 0,40.27 -13.64,71.81 -40.97,94.63 -27.33,22.83 -65.11,34.27 -113.28,34.27l-101.38 0 0 119.2 -39.91 0 0 -377.55 141.33 0 -0.04 -0.05zm-1.08 223.3c37.39,0 65.97,-8.15 85.76,-24.54 19.75,-16.36 29.65,-39.48 29.65,-69.32 0,-30.57 -9.9,-54.02 -29.65,-70.38 -19.8,-16.36 -48.39,-24.54 -85.76,-24.54l-100.36 0 0 188.76 100.36 0 0 0.02z"/>
  <path fill="white" fill-rule="nonzero" d="M323.68 198.59l33.1 0 0 -17.08c0,-19.03 2.03,-33.27 6.1,-42.63 4.07,-9.45 11.56,-17.06 22.45,-22.95 10.96,-5.89 24.77,-8.86 41.47,-8.86 17.06,0 33.84,2.54 50.26,7.61l-7.63 41.55c-9.72,-2.25 -19.1,-3.4 -28.1,-3.4 -8.86,0 -15.17,2.03 -19.03,6.1 -3.85,4.05 -5.81,11.9 -5.81,23.53l0 16.13 44.89 0 0 47.05 -44.89 0 0 179.11 -59.71 0 0 -179.11 -33.1 0 0 -47.05z"/>
  <path id="1" fill="white" fill-rule="nonzero" d="M552.02 424.75l-59.69 0 0 -226.16 55.34 0 0 32.1c9.52,-15.17 18.09,-25.13 25.72,-29.85 7.61,-4.73 16.25,-7.06 25.92,-7.06 13.66,0 26.8,3.78 39.44,11.27l-18.52 52.15c-10.1,-6.53 -19.46,-9.81 -28.1,-9.81 -8.42,0 -15.55,2.32 -21.37,6.89 -5.8,4.64 -10.39,12.92 -13.72,24.99 -3.35,12.06 -5.02,37.33 -5.02,75.77l0 69.72z"/>
  <path id="2" fill="white" fill-rule="nonzero" d="M795.27 353.29l59.69 10.03c-7.61,21.85 -19.75,38.49 -36.24,49.95 -16.56,11.41 -37.26,17.15 -62.03,17.15 -39.3,0 -68.42,-12.85 -87.23,-38.58 -14.89,-20.63 -22.36,-46.62 -22.36,-78.07 0,-37.48 9.79,-66.89 29.34,-88.1 19.53,-21.3 44.3,-31.9 74.22,-31.9 33.55,0 60.07,11.12 79.55,33.34 19.39,22.23 28.68,56.29 27.81,102.19l-149.48 0c0.43,17.73 5.24,31.52 14.45,41.4 9.14,9.88 20.63,14.81 34.29,14.81 9.36,0 17.21,-2.54 23.53,-7.61 6.39,-5.09 11.18,-13.3 14.45,-24.63zm3.47 -60.57c-0.43,-17.37 -4.86,-30.58 -13.36,-39.58 -8.5,-9.09 -18.81,-13.59 -31.02,-13.59 -13,0 -23.74,4.79 -32.24,14.31 -8.5,9.52 -12.64,22.52 -12.49,38.86l89.11 0z"/>
  <path id="3" fill="white" fill-rule="nonzero" d="M1037.63 353.29l59.69 10.03c-7.61,21.85 -19.75,38.49 -36.24,49.95 -16.56,11.41 -37.26,17.15 -62.03,17.15 -39.3,0 -68.42,-12.85 -87.23,-38.58 -14.89,-20.63 -22.36,-46.62 -22.36,-78.07 0,-37.48 9.79,-66.89 29.34,-88.1 19.53,-21.3 44.3,-31.9 74.22,-31.9 33.55,0 60.07,11.12 79.55,33.34 19.39,22.23 28.68,56.29 27.81,102.19l-149.48 0c0.43,17.73 5.24,31.52 14.45,41.4 9.14,9.88 20.63,14.81 34.29,14.81 9.36,0 17.21,-2.54 23.53,-7.61 6.39,-5.09 11.18,-13.3 14.45,-24.63zm3.47 -60.57c-0.43,-17.37 -4.86,-30.58 -13.36,-39.58 -8.5,-9.09 -18.81,-13.59 -31.02,-13.59 -13,0 -23.74,4.79 -32.24,14.31 -8.5,9.52 -12.64,22.52 -12.49,38.86l89.11 0z"/>
 </g>
</svg>
