<?xml version="1.0" encoding="UTF-8"?>
<!DOCTYPE svg PUBLIC "-//W3C//DTD SVG 1.1//EN" "http://www.w3.org/Graphics/SVG/1.1/DTD/svg11.dtd">
<!-- Creator: CorelDRAW 2020 (64-Bit) -->
<svg xmlns="http://www.w3.org/2000/svg" xml:space="preserve" width="0.647772in" height="0.162248in" version="1.1" shape-rendering="geometricPrecision" text-rendering="geometricPrecision" image-rendering="optimizeQuality" fill-rule="evenodd" clip-rule="evenodd"
viewBox="0 0 314.48 78.77"
 xmlns:xlink="http://www.w3.org/1999/xlink"
 xmlns:xodm="http://www.corel.com/coreldraw/odm/2003">
 <g id="Layer_x0020_1">
  <metadata id="CorelCorpID_0Corel-Layer"/>
  <path fill="#24305b" d="M3.73 73.65l301.87 -0.1c1.63,-0 2.95,0.81 2.96,1.81l0.01 1.5c0.01,1 -1.31,1.81 -2.94,1.81l-301.87 0.1c-1.63,0 -2.95,-0.81 -2.96,-1.81l-0.01 -1.5c-0,-1 1.31,-1.81 2.94,-1.81z"/>
  <polygon fill="#24305b" fill-rule="nonzero" points="-0,2.83 10.88,2.83 10.88,40.96 34.44,40.96 34.44,49.82 -0,49.82 "/>
  <polygon id="_1" fill="#24305b" fill-rule="nonzero" points="57.67,31.36 51.36,37.94 51.36,49.82 40.55,49.82 40.55,2.83 51.36,2.83 51.36,24.78 72.17,2.83 84.26,2.83 64.79,23.77 85.4,49.82 72.71,49.82 "/>
  <path id="_2" fill="#24305b" fill-rule="nonzero" d="M104.67 50.63c-3.71,0 -7.31,-0.5 -10.77,-1.51 -3.47,-1.01 -6.26,-2.31 -8.36,-3.93l3.69 -8.19c2.01,1.48 4.41,2.66 7.18,3.56 2.78,0.9 5.55,1.34 8.32,1.34 3.09,0 5.37,-0.46 6.85,-1.38 1.48,-0.92 2.22,-2.13 2.22,-3.66 0,-1.12 -0.44,-2.05 -1.31,-2.79 -0.87,-0.74 -1.99,-1.33 -3.36,-1.78 -1.36,-0.45 -3.21,-0.94 -5.54,-1.47 -3.58,-0.85 -6.51,-1.7 -8.79,-2.55 -2.29,-0.85 -4.24,-2.22 -5.87,-4.09 -1.63,-1.88 -2.45,-4.39 -2.45,-7.52 0,-2.73 0.74,-5.2 2.22,-7.42 1.48,-2.22 3.71,-3.97 6.68,-5.27 2.98,-1.3 6.62,-1.95 10.91,-1.95 3,0 5.93,0.36 8.79,1.08 2.86,0.72 5.37,1.75 7.52,3.09l-3.36 8.26c-4.34,-2.46 -8.68,-3.69 -13.03,-3.69 -3.04,0 -5.29,0.49 -6.75,1.48 -1.45,0.98 -2.18,2.28 -2.18,3.89 0,1.61 0.84,2.81 2.52,3.59 1.68,0.78 4.24,1.56 7.69,2.31 3.58,0.85 6.51,1.7 8.8,2.55 2.28,0.85 4.24,2.19 5.87,4.03 1.63,1.83 2.45,4.32 2.45,7.45 0,2.68 -0.75,5.14 -2.25,7.35 -1.5,2.22 -3.75,3.97 -6.75,5.27 -3,1.3 -6.64,1.95 -10.94,1.95l-0.01 0.01z"/>
  <path id="_3" fill="#24305b" fill-rule="nonzero" d="M165.83 14.51l0 31.02c0,6 -1.47,10.44 -4.4,13.33 -2.93,2.89 -7.35,4.33 -13.26,4.33 -3.27,0 -6.37,-0.48 -9.29,-1.44 -2.93,-0.96 -5.32,-2.29 -7.15,-3.99l2.42 -3.63c1.7,1.52 3.77,2.71 6.21,3.56 2.44,0.85 5,1.27 7.69,1.27 4.48,0 7.77,-1.04 9.87,-3.12 2.11,-2.08 3.16,-5.32 3.16,-9.7l0 -4.5c-1.47,2.24 -3.41,3.94 -5.81,5.1 -2.39,1.16 -5.05,1.75 -7.95,1.75 -3.31,0 -6.32,-0.73 -9.03,-2.18 -2.7,-1.45 -4.84,-3.49 -6.38,-6.11 -1.54,-2.62 -2.31,-5.58 -2.31,-8.9 0,-3.31 0.77,-6.27 2.31,-8.86 1.54,-2.6 3.66,-4.61 6.34,-6.04 2.68,-1.43 5.71,-2.15 9.07,-2.15 3,0 5.71,0.6 8.12,1.81 2.42,1.21 4.36,2.96 5.84,5.24l0 -6.78 4.56 0 -0.01 0.01zm-18.06 29.74c2.55,0 4.86,-0.55 6.91,-1.65 2.06,-1.1 3.66,-2.63 4.8,-4.6 1.14,-1.97 1.71,-4.21 1.71,-6.71 0,-2.51 -0.57,-4.73 -1.71,-6.68 -1.14,-1.95 -2.73,-3.47 -4.77,-4.57 -2.04,-1.1 -4.35,-1.65 -6.95,-1.65 -2.55,0 -4.84,0.54 -6.88,1.61 -2.04,1.08 -3.63,2.6 -4.77,4.56 -1.14,1.97 -1.71,4.21 -1.71,6.72 0,2.5 0.57,4.74 1.71,6.71 1.14,1.97 2.73,3.5 4.77,4.6 2.04,1.1 4.33,1.65 6.88,1.65l-0 0z"/>
  <path id="_4" fill="#24305b" fill-rule="nonzero" d="M183.75 21.42c1.12,-2.37 2.79,-4.16 5,-5.37 2.22,-1.21 4.96,-1.81 8.22,-1.81l0 4.63 -1.14 -0.07c-3.71,0 -6.62,1.14 -8.73,3.43 -2.1,2.28 -3.16,5.48 -3.16,9.6l0 17.99 -4.77 0 0 -35.31 4.57 0 0 6.92 0 -0z"/>
  <path id="_5" fill="#24305b" fill-rule="nonzero" d="M217.86 14.24c4.61,0 8.15,1.15 10.61,3.46 2.46,2.31 3.69,5.71 3.69,10.24l0 21.88 -4.57 0 0 -5.51c-1.08,1.83 -2.65,3.27 -4.73,4.29 -2.08,1.03 -4.55,1.54 -7.42,1.54 -3.94,0 -7.07,-0.94 -9.4,-2.82 -2.33,-1.88 -3.49,-4.36 -3.49,-7.45 0,-3 1.08,-5.42 3.25,-7.25 2.17,-1.83 5.63,-2.75 10.37,-2.75l11.21 0 0 -2.15c0,-3.04 -0.85,-5.36 -2.55,-6.95 -1.7,-1.59 -4.18,-2.38 -7.45,-2.38 -2.24,0 -4.38,0.37 -6.44,1.1 -2.06,0.74 -3.83,1.76 -5.3,3.05l-2.15 -3.56c1.79,-1.52 3.94,-2.7 6.44,-3.52 2.5,-0.83 5.15,-1.24 7.92,-1.24l0 0.01zm-1.68 32.16c2.68,0 4.99,-0.62 6.92,-1.85 1.93,-1.23 3.36,-3.01 4.29,-5.34l0 -5.77 -11.08 0c-6.04,0 -9.06,2.1 -9.06,6.31 0,2.06 0.78,3.68 2.35,4.87 1.57,1.19 3.76,1.78 6.58,1.78z"/>
  <path id="_6" fill="#24305b" fill-rule="nonzero" d="M263.71 47.68c-0.9,0.81 -2,1.42 -3.32,1.85 -1.32,0.42 -2.7,0.64 -4.13,0.64 -3.31,0 -5.86,-0.9 -7.65,-2.68 -1.79,-1.79 -2.68,-4.32 -2.68,-7.59l0 -21.35 -6.31 0 0 -4.03 6.31 0 0 -7.72 4.77 0 0 7.72 10.74 0 0 4.03 -10.74 0 0 21.08c0,2.11 0.53,3.71 1.58,4.8 1.05,1.1 2.56,1.65 4.53,1.65 0.98,0 1.93,-0.15 2.86,-0.47 0.92,-0.31 1.71,-0.76 2.38,-1.34l1.68 3.43 -0 -0z"/>
  <path id="_7" fill="#24305b" fill-rule="nonzero" d="M272.37 14.51l4.77 0 0 35.31 -4.77 0 0 -35.31zm2.42 -7.72c-0.98,0 -1.81,-0.33 -2.48,-1.01 -0.67,-0.67 -1.01,-1.48 -1.01,-2.42 0,-0.9 0.33,-1.68 1.01,-2.35 0.67,-0.67 1.5,-1.01 2.48,-1.01 0.98,0 1.81,0.33 2.48,0.97 0.67,0.65 1.01,1.42 1.01,2.31 0,0.99 -0.33,1.81 -1.01,2.48 -0.67,0.67 -1.5,1.01 -2.48,1.01l0 0.01z"/>
  <path id="_8" fill="#24305b" fill-rule="nonzero" d="M299.9 50.16c-2.86,0 -5.61,-0.41 -8.22,-1.24 -2.62,-0.83 -4.66,-1.87 -6.14,-3.12l2.15 -3.76c1.48,1.16 3.34,2.11 5.57,2.85 2.24,0.74 4.56,1.11 6.98,1.11 3.22,0 5.61,-0.51 7.15,-1.51 1.54,-1.01 2.31,-2.43 2.31,-4.26 0,-1.3 -0.42,-2.31 -1.27,-3.05 -0.85,-0.74 -1.93,-1.3 -3.22,-1.68 -1.3,-0.38 -3.02,-0.75 -5.17,-1.11 -2.86,-0.54 -5.17,-1.08 -6.92,-1.65 -1.75,-0.56 -3.23,-1.51 -4.46,-2.86 -1.23,-1.34 -1.85,-3.2 -1.85,-5.57 0,-2.96 1.23,-5.37 3.69,-7.25 2.46,-1.88 5.89,-2.82 10.28,-2.82 2.28,0 4.56,0.3 6.85,0.9 2.29,0.6 4.16,1.4 5.64,2.38l-2.08 3.83c-2.91,-2.01 -6.38,-3.02 -10.4,-3.02 -3.04,0 -5.34,0.54 -6.88,1.61 -1.54,1.08 -2.31,2.48 -2.31,4.23 0,1.34 0.44,2.42 1.31,3.22 0.88,0.81 1.96,1.4 3.26,1.78 1.3,0.38 3.09,0.77 5.37,1.18 2.82,0.54 5.08,1.08 6.78,1.61 1.7,0.54 3.15,1.45 4.36,2.75 1.21,1.3 1.81,3.09 1.81,5.37 0,3.09 -1.28,5.54 -3.86,7.35 -2.57,1.81 -6.14,2.72 -10.71,2.72l-0.01 0z"/>
 </g>
</svg>
