<?xml version="1.0" encoding="UTF-8"?>
<!DOCTYPE svg PUBLIC "-//W3C//DTD SVG 1.1//EN" "http://www.w3.org/Graphics/SVG/1.1/DTD/svg11.dtd">
<!-- Creator: CorelDRAW 2020 (64-Bit) -->
<svg xmlns="http://www.w3.org/2000/svg" xml:space="preserve" width="2.90706in" height="0.281346in" version="1.1" shape-rendering="geometricPrecision" text-rendering="geometricPrecision" image-rendering="optimizeQuality" fill-rule="evenodd" clip-rule="evenodd"
viewBox="0 0 3579.57 346.43"
 xmlns:xlink="http://www.w3.org/1999/xlink"
 xmlns:xodm="http://www.corel.com/coreldraw/odm/2003">
 <g id="Layer_x0020_1">
  <metadata id="CorelCorpID_0Corel-Layer"/>
  <path fill="#2CA67B" fill-rule="nonzero" d="M138.36 52.85c11.35,0 20.52,3.4 27.5,10.21 6.98,6.81 10.47,16.91 10.47,30.31l0 52.44 -26.57 0 0 -48.36c0,-7.27 -1.59,-12.69 -4.77,-16.26 -3.18,-3.58 -7.78,-5.36 -13.79,-5.36 -6.7,0 -12.04,2.07 -16.01,6.21 -3.98,4.14 -5.96,10.3 -5.96,18.47l0 45.29 -26.56 0 0 -91.61 25.37 0 0 10.73c3.52,-3.86 7.89,-6.84 13.11,-8.94 5.22,-2.1 10.96,-3.15 17.2,-3.15z"/>
  <path id="1" fill="#2CA67B" fill-rule="nonzero" d="M244.95 147.18c-9.65,0 -18.31,-2.02 -25.97,-6.05 -7.66,-4.03 -13.65,-9.62 -17.96,-16.77 -4.31,-7.15 -6.47,-15.27 -6.47,-24.35 0,-9.08 2.16,-17.2 6.47,-24.35 4.31,-7.16 10.3,-12.74 17.96,-16.77 7.66,-4.03 16.32,-6.05 25.97,-6.05 9.65,0 18.28,2.01 25.88,6.05 7.61,4.03 13.56,9.62 17.88,16.77 4.31,7.15 6.47,15.27 6.47,24.35 0,9.08 -2.16,17.2 -6.47,24.35 -4.31,7.16 -10.27,12.74 -17.88,16.77 -7.61,4.03 -16.24,6.05 -25.88,6.05zm0 -21.8c6.81,0 12.4,-2.3 16.77,-6.9 4.37,-4.6 6.55,-10.75 6.55,-18.47 0,-7.72 -2.19,-13.87 -6.55,-18.47 -4.37,-4.6 -9.96,-6.89 -16.77,-6.89 -6.81,0 -12.43,2.3 -16.86,6.89 -4.43,4.6 -6.64,10.76 -6.64,18.47 0,7.72 2.21,13.88 6.64,18.47 4.43,4.6 10.04,6.9 16.86,6.9z"/>
  <path id="2" fill="#2CA67B" fill-rule="nonzero" d="M402.29 83.84c6.81,2.15 12.14,5.76 16,10.81 3.86,5.05 5.79,11.27 5.79,18.64 0,10.44 -4.06,18.47 -12.18,24.09 -8.12,5.62 -19.95,8.43 -35.5,8.43l-61.64 0 0 -119.19 58.24 0c14.53,0 25.68,2.78 33.46,8.34 7.78,5.56 11.66,13.11 11.66,22.64 0,5.79 -1.39,10.96 -4.17,15.5 -2.78,4.54 -6.67,8.12 -11.66,10.73zm-60.11 -36.44l0 28.09 27.42 0c6.81,0 11.97,-1.19 15.49,-3.57 3.52,-2.39 5.28,-5.9 5.28,-10.56 0,-4.65 -1.76,-8.14 -5.28,-10.47 -3.52,-2.33 -8.68,-3.49 -15.49,-3.49l-27.42 0zm32.18 77.65c7.27,0 12.74,-1.19 16.43,-3.58 3.69,-2.39 5.53,-6.07 5.53,-11.07 0,-9.87 -7.32,-14.81 -21.97,-14.81l-32.18 0 0 29.46 32.18 0z"/>
  <path id="3" fill="#2CA67B" fill-rule="nonzero" d="M443.16 54.21l26.56 0 0 91.61 -26.56 0 0 -91.61zm13.28 -12.77c-4.88,0 -8.86,-1.42 -11.92,-4.26 -3.06,-2.84 -4.6,-6.36 -4.6,-10.55 0,-4.2 1.53,-7.72 4.6,-10.56 3.06,-2.84 7.04,-4.26 11.92,-4.26 4.88,0 8.85,1.36 11.92,4.09 3.07,2.72 4.6,6.13 4.6,10.21 0,4.43 -1.53,8.09 -4.6,10.99 -3.06,2.89 -7.03,4.34 -11.92,4.34z"/>
  <path id="4" fill="#2CA67B" fill-rule="nonzero" d="M531.36 52.85c14.19,0 25.09,3.37 32.69,10.13 7.61,6.75 11.41,16.94 11.41,30.57l0 52.27 -24.86 0 0 -11.41c-4.99,8.51 -14.3,12.77 -27.92,12.77 -7.04,0 -13.14,-1.19 -18.31,-3.58 -5.17,-2.38 -9.11,-5.67 -11.83,-9.87 -2.72,-4.2 -4.09,-8.97 -4.09,-14.3 0,-8.52 3.2,-15.21 9.62,-20.09 6.41,-4.88 16.32,-7.32 29.71,-7.32l21.12 0c0,-5.79 -1.76,-10.25 -5.28,-13.37 -3.52,-3.12 -8.8,-4.68 -15.84,-4.68 -4.88,0 -9.68,0.77 -14.39,2.3 -4.71,1.54 -8.71,3.61 -12,6.22l-9.54 -18.56c4.99,-3.52 10.99,-6.24 17.97,-8.17 6.98,-1.93 14.16,-2.89 21.54,-2.89zm-2.04 76.45c4.54,0 8.57,-1.05 12.09,-3.15 3.52,-2.1 6.02,-5.19 7.49,-9.28l0 -9.37 -18.22 0c-10.9,0 -16.35,3.58 -16.35,10.73 0,3.4 1.33,6.1 4,8.09 2.67,1.99 6.33,2.98 10.99,2.98z"/>
  <path id="5" fill="#2CA67B" fill-rule="nonzero" d="M688.7 54.21l-41.38 97.23c-4.2,10.56 -9.39,17.99 -15.58,22.3 -6.19,4.31 -13.65,6.47 -22.39,6.47 -4.77,0 -9.48,-0.74 -14.13,-2.21 -4.65,-1.48 -8.45,-3.52 -11.41,-6.13l9.71 -18.9c2.04,1.82 4.4,3.24 7.07,4.26 2.67,1.02 5.3,1.53 7.92,1.53 3.63,0 6.58,-0.88 8.85,-2.64 2.27,-1.76 4.31,-4.68 6.13,-8.77l0.34 -0.85 -39.67 -92.29 27.41 0 25.71 62.15 25.88 -62.15 25.54 0z"/>
  <path id="6" fill="#2CA67B" fill-rule="nonzero" d="M733.48 52.85c14.19,0 25.09,3.37 32.69,10.13 7.61,6.75 11.41,16.94 11.41,30.57l0 52.27 -24.86 0 0 -11.41c-4.99,8.51 -14.3,12.77 -27.92,12.77 -7.04,0 -13.14,-1.19 -18.31,-3.58 -5.17,-2.38 -9.11,-5.67 -11.83,-9.87 -2.72,-4.2 -4.09,-8.97 -4.09,-14.3 0,-8.52 3.2,-15.21 9.62,-20.09 6.41,-4.88 16.32,-7.32 29.71,-7.32l21.12 0c0,-5.79 -1.76,-10.25 -5.28,-13.37 -3.52,-3.12 -8.8,-4.68 -15.84,-4.68 -4.88,0 -9.68,0.77 -14.39,2.3 -4.71,1.54 -8.71,3.61 -12,6.22l-9.54 -18.56c4.99,-3.52 10.99,-6.24 17.97,-8.17 6.98,-1.93 14.16,-2.89 21.54,-2.89zm-2.04 76.45c4.54,0 8.57,-1.05 12.09,-3.15 3.52,-2.1 6.02,-5.19 7.49,-9.28l0 -9.37 -18.22 0c-10.9,0 -16.35,3.58 -16.35,10.73 0,3.4 1.33,6.1 4,8.09 2.67,1.99 6.33,2.98 10.99,2.98z"/>
  <path id="7" fill="#CCCCCC" fill-rule="nonzero" d="M46.15 192.59c8.4,0 16.01,1.9 22.82,5.7 6.81,3.81 12.15,9.17 16.01,16.09 3.86,6.92 5.79,14.81 5.79,23.67 0,8.86 -1.93,16.74 -5.79,23.67 -3.86,6.92 -9.2,12.31 -16.01,16.17 -6.81,3.86 -14.42,5.79 -22.82,5.79 -7.49,0 -14.22,-1.59 -20.18,-4.77 -5.96,-3.18 -10.76,-7.78 -14.39,-13.79l0 17.71 -11.58 0 0 -126.35 12.09 0 0 53.81c3.75,-5.79 8.54,-10.19 14.39,-13.2 5.85,-3.01 12.41,-4.51 19.67,-4.51zm-0.85 80.37c6.24,0 11.92,-1.45 17.03,-4.34 5.11,-2.89 9.11,-7.01 12,-12.34 2.9,-5.34 4.34,-11.41 4.34,-18.22 0,-6.81 -1.44,-12.89 -4.34,-18.22 -2.89,-5.34 -6.89,-9.45 -12,-12.35 -5.11,-2.89 -10.78,-4.34 -17.03,-4.34 -6.36,0 -12.06,1.44 -17.11,4.34 -5.05,2.89 -9.03,7.01 -11.92,12.35 -2.89,5.33 -4.34,11.41 -4.34,18.22 0,6.81 1.45,12.89 4.34,18.22 2.89,5.33 6.87,9.45 11.92,12.34 5.05,2.89 10.75,4.34 17.11,4.34z"/>
  <path id="8" fill="#CCCCCC" fill-rule="nonzero" d="M146.27 192.59c11.69,0 20.66,2.92 26.91,8.77 6.24,5.85 9.37,14.5 9.37,25.96l0 55.51 -11.58 0 0 -13.96c-2.72,4.65 -6.72,8.28 -12,10.9 -5.28,2.61 -11.55,3.92 -18.81,3.92 -9.99,0 -17.94,-2.39 -23.84,-7.16 -5.9,-4.77 -8.85,-11.07 -8.85,-18.9 0,-7.61 2.75,-13.74 8.26,-18.39 5.51,-4.65 14.28,-6.98 26.31,-6.98l28.44 0 0 -5.45c0,-7.72 -2.16,-13.59 -6.47,-17.63 -4.31,-4.03 -10.61,-6.04 -18.9,-6.04 -5.67,0 -11.12,0.94 -16.35,2.81 -5.22,1.87 -9.71,4.46 -13.45,7.75l-5.45 -9.02c4.54,-3.86 9.99,-6.84 16.35,-8.94 6.36,-2.1 13.06,-3.15 20.09,-3.15zm-4.26 81.56c6.81,0 12.66,-1.56 17.54,-4.68 4.88,-3.12 8.51,-7.64 10.9,-13.54l0 -14.64 -28.1 0c-15.32,0 -22.98,5.33 -22.98,16 0,5.22 1.98,9.34 5.96,12.35 3.98,3.01 9.54,4.51 16.69,4.51z"/>
  <path id="9" fill="#CCCCCC" fill-rule="nonzero" d="M261.04 192.59c11.24,0 20.18,3.26 26.82,9.79 6.64,6.53 9.96,16.04 9.96,28.52l0 51.93 -12.09 0 0 -50.74c0,-9.31 -2.33,-16.4 -6.98,-21.29 -4.65,-4.88 -11.3,-7.32 -19.92,-7.32 -9.65,0 -17.28,2.87 -22.9,8.6 -5.62,5.73 -8.43,13.65 -8.43,23.75l0 46.99 -12.09 0 0 -89.57 11.58 0 0 16.52c3.29,-5.45 7.86,-9.68 13.7,-12.68 5.85,-3.01 12.63,-4.51 20.35,-4.51z"/>
  <path id="10" fill="#CCCCCC" fill-rule="nonzero" d="M413.95 193.27l0 78.67c0,15.21 -3.72,26.48 -11.15,33.8 -7.44,7.32 -18.65,10.99 -33.63,10.99 -8.28,0 -16.15,-1.22 -23.58,-3.66 -7.44,-2.44 -13.48,-5.82 -18.14,-10.13l6.13 -9.2c4.31,3.86 9.56,6.87 15.75,9.03 6.19,2.16 12.69,3.23 19.5,3.23 11.35,0 19.7,-2.64 25.03,-7.92 5.34,-5.28 8,-13.48 8,-24.61l0 -11.41c-3.74,5.68 -8.65,9.99 -14.73,12.94 -6.07,2.95 -12.8,4.43 -20.18,4.43 -8.4,0 -16.04,-1.85 -22.91,-5.54 -6.86,-3.69 -12.26,-8.86 -16.17,-15.49 -3.92,-6.64 -5.88,-14.17 -5.88,-22.56 0,-8.4 1.96,-15.9 5.88,-22.48 3.91,-6.58 9.28,-11.69 16.09,-15.32 6.81,-3.64 14.47,-5.45 22.99,-5.45 7.61,0 14.47,1.53 20.6,4.6 6.13,3.06 11.07,7.49 14.81,13.28l0 -17.2 11.58 0zm-45.8 75.44c6.47,0 12.31,-1.39 17.53,-4.17 5.23,-2.78 9.28,-6.67 12.18,-11.66 2.89,-4.99 4.34,-10.67 4.34,-17.03 0,-6.36 -1.45,-12.01 -4.34,-16.94 -2.89,-4.94 -6.92,-8.8 -12.09,-11.58 -5.16,-2.78 -11.04,-4.17 -17.62,-4.17 -6.47,0 -12.29,1.36 -17.46,4.09 -5.16,2.72 -9.19,6.58 -12.09,11.58 -2.89,4.99 -4.34,10.67 -4.34,17.03 0,6.36 1.44,12.03 4.34,17.03 2.9,4.99 6.93,8.88 12.09,11.66 5.17,2.78 10.99,4.17 17.46,4.17z"/>
  <path id="11" fill="#CCCCCC" fill-rule="nonzero" d="M528.55 193.27l0 89.57 -11.58 0 0 -16.35c-3.18,5.45 -7.55,9.68 -13.11,12.69 -5.56,3.01 -11.92,4.51 -19.07,4.51 -11.69,0 -20.91,-3.27 -27.67,-9.79 -6.76,-6.53 -10.13,-16.09 -10.13,-28.69l0 -51.93 12.09 0 0 50.75c0,9.42 2.33,16.57 6.98,21.45 4.65,4.88 11.3,7.32 19.92,7.32 9.42,0 16.86,-2.87 22.31,-8.6 5.45,-5.73 8.17,-13.71 8.17,-23.92l0 -47 12.09 0z"/>
  <path id="12" fill="#CCCCCC" fill-rule="nonzero" d="M608.07 192.59c11.24,0 20.18,3.26 26.82,9.79 6.64,6.53 9.96,16.04 9.96,28.52l0 51.93 -12.09 0 0 -50.74c0,-9.31 -2.33,-16.4 -6.98,-21.29 -4.65,-4.88 -11.3,-7.32 -19.92,-7.32 -9.65,0 -17.28,2.87 -22.9,8.6 -5.62,5.73 -8.43,13.65 -8.43,23.75l0 46.99 -12.09 0 0 -89.57 11.58 0 0 16.52c3.29,-5.45 7.86,-9.68 13.7,-12.68 5.85,-3.01 12.63,-4.51 20.35,-4.51z"/>
  <path id="13" fill="#CCCCCC" fill-rule="nonzero" d="M709.04 192.59c11.69,0 20.66,2.92 26.91,8.77 6.24,5.85 9.37,14.5 9.37,25.96l0 55.51 -11.58 0 0 -13.96c-2.72,4.65 -6.72,8.28 -12,10.9 -5.28,2.61 -11.55,3.92 -18.81,3.92 -9.99,0 -17.94,-2.39 -23.84,-7.16 -5.9,-4.77 -8.85,-11.07 -8.85,-18.9 0,-7.61 2.75,-13.74 8.26,-18.39 5.51,-4.65 14.28,-6.98 26.31,-6.98l28.44 0 0 -5.45c0,-7.72 -2.16,-13.59 -6.47,-17.63 -4.31,-4.03 -10.61,-6.04 -18.9,-6.04 -5.67,0 -11.12,0.94 -16.35,2.81 -5.22,1.87 -9.71,4.46 -13.45,7.75l-5.45 -9.02c4.54,-3.86 9.99,-6.84 16.35,-8.94 6.36,-2.1 13.06,-3.15 20.09,-3.15zm-4.26 81.56c6.81,0 12.66,-1.56 17.54,-4.68 4.88,-3.12 8.51,-7.64 10.9,-13.54l0 -14.64 -28.1 0c-15.32,0 -22.98,5.33 -22.98,16 0,5.22 1.98,9.34 5.96,12.35 3.98,3.01 9.54,4.51 16.69,4.51z"/>
  <path id="14" fill="#CCCCCC" fill-rule="nonzero" d="M823.81 192.59c11.24,0 20.18,3.26 26.82,9.79 6.64,6.53 9.96,16.04 9.96,28.52l0 51.93 -12.09 0 0 -50.74c0,-9.31 -2.33,-16.4 -6.98,-21.29 -4.65,-4.88 -11.3,-7.32 -19.92,-7.32 -9.65,0 -17.28,2.87 -22.9,8.6 -5.62,5.73 -8.43,13.65 -8.43,23.75l0 46.99 -12.09 0 0 -89.57 11.58 0 0 16.52c3.29,-5.45 7.86,-9.68 13.7,-12.68 5.85,-3.01 12.63,-4.51 20.35,-4.51z"/>
  <rect fill="#2CA67B" x="1886.58" y="99.98" width="369.85" height="144.62" rx="2031.2" ry="2031.2"/>
  <path fill="white" fill-rule="nonzero" d="M1974.15 153.9l16.37 0 0 14.24 -15.9 0 0 48.17 -18.51 0 0 -48.17 -9.85 0 0 -14.24 9.85 0 0 -2.85c0,-7.28 2.16,-13.05 6.47,-17.32 4.31,-4.27 10.38,-6.41 18.21,-6.41 2.77,0 5.4,0.3 7.89,0.89 2.49,0.59 4.57,1.44 6.23,2.55l-4.87 13.41c-2.13,-1.5 -4.62,-2.25 -7.48,-2.25 -5.61,0 -8.42,3.08 -8.42,9.25l0 2.73z"/>
  <path id="1" fill="white" fill-rule="nonzero" d="M2026.94 160.9c2.22,-3.09 5.2,-5.42 8.96,-7 3.76,-1.59 8.09,-2.38 12.99,-2.38l0 17.09c-2.06,-0.16 -3.44,-0.24 -4.15,-0.24 -5.3,0 -9.45,1.48 -12.46,4.45 -3.01,2.96 -4.51,7.41 -4.51,13.35l0 30.14 -18.51 0 0 -63.84 17.68 0 0 8.43z"/>
  <path id="2" fill="white" fill-rule="nonzero" d="M2121.87 184.63c0,0.24 -0.12,1.9 -0.35,4.98l-48.29 0c0.87,3.96 2.93,7.08 6.17,9.38 3.24,2.29 7.28,3.44 12.1,3.44 3.33,0 6.27,-0.49 8.84,-1.48 2.57,-0.99 4.96,-2.55 7.18,-4.68l9.85 10.67c-6.01,6.88 -14.79,10.33 -26.34,10.33 -7.2,0 -13.56,-1.41 -19.1,-4.21 -5.54,-2.81 -9.81,-6.7 -12.82,-11.69 -3.01,-4.98 -4.51,-10.64 -4.51,-16.97 0,-6.25 1.48,-11.89 4.45,-16.91 2.97,-5.02 7.04,-8.94 12.22,-11.75 5.18,-2.81 10.98,-4.21 17.38,-4.21 6.25,0 11.91,1.34 16.97,4.03 5.06,2.69 9.04,6.55 11.93,11.57 2.88,5.02 4.33,10.85 4.33,17.5zm-33.11 -19.11c-4.19,0 -7.71,1.19 -10.56,3.56 -2.85,2.37 -4.59,5.61 -5.22,9.73l31.44 0c-0.63,-4.04 -2.37,-7.26 -5.22,-9.67 -2.85,-2.41 -6.33,-3.62 -10.44,-3.62z"/>
  <path id="3" fill="white" fill-rule="nonzero" d="M2196.74 184.63c0,0.24 -0.12,1.9 -0.35,4.98l-48.29 0c0.87,3.96 2.93,7.08 6.17,9.38 3.24,2.29 7.28,3.44 12.1,3.44 3.33,0 6.27,-0.49 8.84,-1.48 2.57,-0.99 4.96,-2.55 7.18,-4.68l9.85 10.67c-6.01,6.88 -14.79,10.33 -26.34,10.33 -7.2,0 -13.56,-1.41 -19.1,-4.21 -5.54,-2.81 -9.81,-6.7 -12.82,-11.69 -3.01,-4.98 -4.51,-10.64 -4.51,-16.97 0,-6.25 1.48,-11.89 4.45,-16.91 2.97,-5.02 7.04,-8.94 12.22,-11.75 5.18,-2.81 10.98,-4.21 17.38,-4.21 6.25,0 11.91,1.34 16.97,4.03 5.06,2.69 9.04,6.55 11.93,11.57 2.88,5.02 4.33,10.85 4.33,17.5zm-33.11 -19.11c-4.19,0 -7.71,1.19 -10.56,3.56 -2.85,2.37 -4.59,5.61 -5.22,9.73l31.44 0c-0.63,-4.04 -2.37,-7.26 -5.22,-9.67 -2.85,-2.41 -6.33,-3.62 -10.44,-3.62z"/>
  <path fill="#CCCCCC" fill-rule="nonzero" d="M2318.62 224c-7.55,0 -14.79,-1.21 -21.72,-3.63 -6.92,-2.42 -12.27,-5.62 -16.05,-9.59l4.21 -8.28c3.68,3.68 8.57,6.66 14.67,8.93 6.1,2.27 12.4,3.41 18.88,3.41 9.1,0 15.93,-1.67 20.48,-5.01 4.55,-3.34 6.83,-7.67 6.83,-13 0,-4.07 -1.24,-7.32 -3.7,-9.73 -2.47,-2.42 -5.5,-4.29 -9.08,-5.59 -3.58,-1.3 -8.57,-2.73 -14.96,-4.29 -7.65,-1.93 -13.75,-3.8 -18.3,-5.59 -4.55,-1.79 -8.45,-4.53 -11.7,-8.21 -3.24,-3.68 -4.86,-8.67 -4.86,-14.96 0,-5.13 1.35,-9.81 4.07,-14.02 2.71,-4.21 6.87,-7.58 12.49,-10.1 5.61,-2.52 12.58,-3.78 20.91,-3.78 5.81,0 11.5,0.8 17.07,2.4 5.57,1.59 10.39,3.8 14.46,6.61l-3.64 8.57c-4.26,-2.81 -8.81,-4.92 -13.65,-6.32 -4.84,-1.41 -9.59,-2.11 -14.24,-2.11 -8.91,0 -15.61,1.72 -20.12,5.16 -4.5,3.44 -6.75,7.87 -6.75,13.29 0,4.07 1.24,7.33 3.7,9.8 2.47,2.47 5.57,4.36 9.3,5.67 3.73,1.3 8.74,2.73 15.03,4.29 7.46,1.84 13.49,3.66 18.09,5.44 4.6,1.79 8.5,4.5 11.69,8.13 3.19,3.63 4.79,8.55 4.79,14.75 0,5.13 -1.38,9.8 -4.14,14.01 -2.76,4.21 -7,7.55 -12.71,10.03 -5.72,2.47 -12.74,3.7 -21.06,3.7z"/>
  <path id="1" fill="#CCCCCC" fill-rule="nonzero" d="M2417.98 121.45c12.98,0 23.15,3.1 30.51,9.3 7.36,6.2 11.04,14.72 11.04,25.57 0,10.84 -3.68,19.34 -11.04,25.49 -7.36,6.15 -17.53,9.23 -30.51,9.23l-27.31 0 0 32.1 -10.75 0 0 -101.68 38.06 0zm-0.29 60.14c10.07,0 17.77,-2.2 23.09,-6.61 5.32,-4.41 7.99,-10.63 7.99,-18.66 0,-8.23 -2.67,-14.55 -7.99,-18.96 -5.33,-4.41 -13.03,-6.61 -23.09,-6.61l-27.02 0 0 50.84 27.02 0z"/>
  <path id="2" fill="#CCCCCC" fill-rule="nonzero" d="M2520.82 121.45c12.98,0 23.15,3.1 30.51,9.3 7.36,6.2 11.04,14.72 11.04,25.57 0,10.84 -3.68,19.34 -11.04,25.49 -7.36,6.15 -17.53,9.23 -30.51,9.23l-27.31 0 0 32.1 -10.75 0 0 -101.68 38.06 0zm-0.29 60.14c10.07,0 17.77,-2.2 23.09,-6.61 5.32,-4.41 7.99,-10.63 7.99,-18.66 0,-8.23 -2.67,-14.55 -7.99,-18.96 -5.33,-4.41 -13.03,-6.61 -23.09,-6.61l-27.02 0 0 50.84 27.02 0z"/>
  <g id="_2503358494192">
   <path fill="#2CA67B" fill-rule="nonzero" d="M1302.82 243.68c-13.14,0 -25,-3.24 -35.57,-9.71 -10.57,-6.48 -18.9,-15.86 -25,-28.14 -6.09,-12.28 -9.14,-26.81 -9.14,-43.57 0,-28.95 6.19,-55.75 18.57,-80.42 12.38,-24.66 30.66,-44.47 54.85,-59.42 24.19,-14.95 53.23,-22.43 87.13,-22.43 8.76,0 18.14,0.67 28.14,2 10,1.33 19.09,3.33 27.28,6 5.33,1.53 8,5.33 8,11.43 0,4.95 -1.86,9.62 -5.57,14 -3.71,4.38 -8.05,6.57 -13,6.57 -1.52,0 -2.67,-0.09 -3.43,-0.29 -9.9,-2.28 -18.38,-3.95 -25.43,-5 -7.04,-1.05 -14.48,-1.57 -22.28,-1.57 -24.19,0 -44.76,5.86 -61.71,17.57 -16.95,11.71 -29.62,27.19 -38,46.42 -8.38,19.24 -12.57,39.99 -12.57,62.28 0,16.19 3.19,28.71 9.57,37.57 6.38,8.86 14.71,13.28 25,13.28 11.62,0 21.81,-4.76 30.57,-14.28 8.76,-9.53 16.76,-24.95 24,-46.28 7.24,-21.33 14.38,-50.28 21.43,-86.84 1.14,-5.33 3.43,-8.95 6.85,-10.86 3.43,-1.91 8,-2.86 13.71,-2.86 13.52,0 20.28,4.38 20.28,13.14 0,1.52 -0.29,3.43 -0.86,5.71 -4.95,18.47 -9.47,38.9 -13.57,61.28 -4.1,22.38 -6.14,39.37 -6.14,50.99 0,10.29 1.52,17.76 4.57,22.43 3.05,4.67 7.71,7 14,7 6.1,0 11.91,-2.05 17.43,-6.14 5.52,-4.1 12.47,-11.09 20.86,-21 2.28,-2.67 4.86,-4 7.71,-4 2.48,0 4.43,1.14 5.86,3.43 1.43,2.28 2.14,5.43 2.14,9.43 0,7.43 -1.81,13.33 -5.43,17.71 -9.33,11.24 -18.47,19.81 -27.42,25.71 -8.95,5.9 -19.9,8.86 -32.85,8.86 -13.33,0 -24.09,-3.86 -32.28,-11.57 -8.19,-7.71 -13.33,-18.62 -15.43,-32.71 -14.09,29.52 -34.85,44.28 -62.27,44.28z"/>
   <path fill="#CCCCCC" fill-rule="nonzero" d="M1130.76 288.37c7.21,0 12.75,1.8 16.6,5.41 3.85,3.61 5.78,8.95 5.78,16.02l0 34.26 -7.15 0 0 -8.62c-1.68,2.87 -4.15,5.11 -7.41,6.73 -3.26,1.61 -7.13,2.41 -11.62,2.41 -6.16,0 -11.07,-1.47 -14.71,-4.41 -3.64,-2.94 -5.46,-6.83 -5.46,-11.66 0,-4.69 1.7,-8.48 5.1,-11.35 3.39,-2.87 8.81,-4.31 16.24,-4.31l17.55 0 0 -3.36c0,-4.76 -1.33,-8.39 -3.99,-10.87 -2.66,-2.49 -6.55,-3.73 -11.66,-3.73 -3.5,0 -6.86,0.58 -10.09,1.74 -3.22,1.15 -5.99,2.75 -8.3,4.78l-3.36 -5.57c2.8,-2.38 6.16,-4.22 10.09,-5.52 3.92,-1.29 8.06,-1.94 12.4,-1.94zm-2.63 50.33c4.2,0 7.81,-0.96 10.82,-2.89 3.02,-1.92 5.25,-4.71 6.73,-8.35l0 -9.04 -17.34 0c-9.46,0 -14.18,3.29 -14.18,9.87 0,3.22 1.23,5.76 3.67,7.62 2.45,1.86 5.89,2.78 10.3,2.78z"/>
   <polygon id="1" fill="#CCCCCC" fill-rule="nonzero" points="1193.92,316.32 1180.89,328.3 1180.89,344.06 1173.42,344.06 1173.42,266.09 1180.89,266.09 1180.89,318.95 1213.88,288.79 1223.13,288.79 1199.49,311.38 1225.33,344.06 1216.2,344.06 "/>
   <path id="2" fill="#CCCCCC" fill-rule="nonzero" d="M1242.88 299.61c1.75,-3.71 4.36,-6.52 7.83,-8.41 3.47,-1.89 7.76,-2.84 12.87,-2.84l0 7.25 -1.78 -0.11c-5.82,0 -10.37,1.79 -13.66,5.36 -3.29,3.57 -4.94,8.58 -4.94,15.03l0 28.16 -7.46 0 0 -55.27 7.15 0 0 10.83z"/>
   <path id="3" fill="#CCCCCC" fill-rule="nonzero" d="M1324.64 318.74l-46.24 0c0.42,5.74 2.63,10.38 6.62,13.92 3.99,3.54 9.04,5.31 15.13,5.31 3.43,0 6.59,-0.62 9.46,-1.84 2.87,-1.23 5.36,-3.03 7.46,-5.41l4.2 4.83c-2.45,2.94 -5.52,5.19 -9.19,6.72 -3.68,1.54 -7.73,2.31 -12.14,2.31 -5.68,0 -10.7,-1.21 -15.08,-3.62 -4.38,-2.42 -7.79,-5.76 -10.24,-10.04 -2.45,-4.27 -3.68,-9.1 -3.68,-14.5 0,-5.4 1.17,-10.23 3.52,-14.5 2.35,-4.28 5.57,-7.6 9.67,-9.99 4.1,-2.38 8.7,-3.57 13.82,-3.57 5.11,0 9.71,1.19 13.77,3.57 4.06,2.39 7.25,5.69 9.56,9.93 2.31,4.24 3.47,9.09 3.47,14.55l-0.11 2.31zm-26.69 -23.96c-5.32,0 -9.79,1.7 -13.4,5.1 -3.61,3.4 -5.66,7.83 -6.15,13.29l39.2 0c-0.49,-5.46 -2.54,-9.89 -6.15,-13.29 -3.61,-3.4 -8.11,-5.1 -13.51,-5.1z"/>
   <path id="4" fill="#CCCCCC" fill-rule="nonzero" d="M1390.43 266.09l0 77.97 -7.15 0 0 -10.93c-2.24,3.71 -5.2,6.55 -8.88,8.51 -3.67,1.96 -7.83,2.94 -12.45,2.94 -5.19,0 -9.88,-1.19 -14.08,-3.57 -4.2,-2.38 -7.49,-5.71 -9.88,-9.98 -2.38,-4.27 -3.57,-9.14 -3.57,-14.61 0,-5.46 1.19,-10.34 3.57,-14.61 2.39,-4.28 5.68,-7.59 9.88,-9.93 4.2,-2.35 8.9,-3.52 14.08,-3.52 4.48,0 8.53,0.93 12.13,2.79 3.61,1.86 6.57,4.57 8.88,8.14l0 -33.21 7.46 0zm-27.85 71.88c3.85,0 7.33,-0.9 10.45,-2.68 3.12,-1.79 5.57,-4.32 7.36,-7.62 1.78,-3.29 2.68,-7.04 2.68,-11.24 0,-4.2 -0.9,-7.95 -2.68,-11.24 -1.79,-3.3 -4.24,-5.84 -7.36,-7.62 -3.12,-1.79 -6.6,-2.68 -10.45,-2.68 -3.93,0 -7.45,0.89 -10.56,2.68 -3.12,1.78 -5.57,4.32 -7.35,7.62 -1.79,3.29 -2.68,7.04 -2.68,11.24 0,4.2 0.89,7.95 2.68,11.24 1.78,3.3 4.24,5.83 7.35,7.62 3.12,1.78 6.64,2.68 10.56,2.68z"/>
   <path id="5" fill="#CCCCCC" fill-rule="nonzero" d="M1411.23 288.79l7.46 0 0 55.27 -7.46 0 0 -55.27zm3.78 -12.09c-1.54,0 -2.84,-0.52 -3.89,-1.58 -1.05,-1.05 -1.58,-2.31 -1.58,-3.78 0,-1.41 0.53,-2.63 1.58,-3.68 1.05,-1.05 2.35,-1.58 3.89,-1.58 1.54,0 2.84,0.5 3.89,1.52 1.05,1.02 1.58,2.23 1.58,3.63 0,1.54 -0.53,2.84 -1.58,3.89 -1.05,1.05 -2.35,1.58 -3.89,1.58z"/>
   <path id="6" fill="#CCCCCC" fill-rule="nonzero" d="M1468.61 340.7c-1.4,1.26 -3.14,2.23 -5.2,2.89 -2.07,0.67 -4.22,1 -6.47,1 -5.18,0 -9.18,-1.4 -11.98,-4.2 -2.8,-2.8 -4.2,-6.76 -4.2,-11.87l0 -33.42 -9.87 0 0 -6.31 9.87 0 0 -12.09 7.46 0 0 12.09 16.82 0 0 6.31 -16.82 0 0 32.99c0,3.29 0.82,5.8 2.47,7.51 1.64,1.72 4.01,2.57 7.09,2.57 1.54,0 3.03,-0.24 4.46,-0.74 1.43,-0.49 2.68,-1.19 3.73,-2.1l2.63 5.36z"/>
   <path id="7" fill="#CCCCCC" fill-rule="nonzero" d="M1501.5 288.37c7.21,0 12.75,1.8 16.6,5.41 3.85,3.61 5.78,8.95 5.78,16.02l0 34.26 -7.15 0 0 -8.62c-1.68,2.87 -4.15,5.11 -7.41,6.73 -3.26,1.61 -7.13,2.41 -11.62,2.41 -6.16,0 -11.07,-1.47 -14.71,-4.41 -3.64,-2.94 -5.46,-6.83 -5.46,-11.66 0,-4.69 1.7,-8.48 5.1,-11.35 3.39,-2.87 8.81,-4.31 16.24,-4.31l17.55 0 0 -3.36c0,-4.76 -1.33,-8.39 -3.99,-10.87 -2.66,-2.49 -6.55,-3.73 -11.66,-3.73 -3.5,0 -6.86,0.58 -10.09,1.74 -3.22,1.15 -5.99,2.75 -8.3,4.78l-3.36 -5.57c2.8,-2.38 6.16,-4.22 10.09,-5.52 3.92,-1.29 8.06,-1.94 12.4,-1.94zm-2.63 50.33c4.2,0 7.81,-0.96 10.82,-2.89 3.02,-1.92 5.25,-4.71 6.73,-8.35l0 -9.04 -17.34 0c-9.46,0 -14.18,3.29 -14.18,9.87 0,3.22 1.23,5.76 3.67,7.62 2.45,1.86 5.89,2.78 10.3,2.78z"/>
   <path id="8" fill="#CCCCCC" fill-rule="nonzero" d="M1558.98 344.59c-4.48,0 -8.77,-0.64 -12.87,-1.94 -4.1,-1.29 -7.31,-2.92 -9.61,-4.89l3.36 -5.89c2.31,1.82 5.22,3.31 8.72,4.47 3.5,1.15 7.15,1.73 10.93,1.73 5.04,0 8.77,-0.79 11.19,-2.36 2.42,-1.58 3.63,-3.8 3.63,-6.68 0,-2.03 -0.66,-3.63 -2,-4.78 -1.33,-1.16 -3.01,-2.03 -5.04,-2.63 -2.03,-0.6 -4.73,-1.17 -8.09,-1.74 -4.48,-0.84 -8.09,-1.7 -10.83,-2.57 -2.73,-0.87 -5.06,-2.37 -6.99,-4.46 -1.93,-2.1 -2.89,-5.01 -2.89,-8.72 0,-4.62 1.93,-8.41 5.78,-11.35 3.85,-2.94 9.21,-4.42 16.08,-4.42 3.57,0 7.15,0.48 10.72,1.42 3.57,0.95 6.52,2.19 8.83,3.73l-3.26 5.99c-4.55,-3.15 -9.98,-4.73 -16.29,-4.73 -4.76,0 -8.35,0.84 -10.77,2.53 -2.41,1.68 -3.62,3.89 -3.62,6.62 0,2.1 0.68,3.79 2.05,5.05 1.37,1.26 3.06,2.19 5.1,2.78 2.03,0.6 4.83,1.21 8.41,1.84 4.41,0.84 7.95,1.68 10.61,2.52 2.66,0.84 4.94,2.28 6.83,4.31 1.89,2.03 2.84,4.83 2.84,8.41 0,4.83 -2.01,8.67 -6.04,11.5 -4.03,2.84 -9.61,4.26 -16.76,4.26z"/>
   <path id="9" fill="#CCCCCC" fill-rule="nonzero" d="M1595.55 288.79l7.46 0 0 55.27 -7.46 0 0 -55.27zm3.78 -12.09c-1.54,0 -2.84,-0.52 -3.89,-1.58 -1.05,-1.05 -1.58,-2.31 -1.58,-3.78 0,-1.41 0.53,-2.63 1.58,-3.68 1.05,-1.05 2.35,-1.58 3.89,-1.58 1.54,0 2.84,0.5 3.89,1.52 1.05,1.02 1.58,2.23 1.58,3.63 0,1.54 -0.53,2.84 -1.58,3.89 -1.05,1.05 -2.35,1.58 -3.89,1.58z"/>
   <path id="10" fill="none" fill-rule="nonzero" stroke="#B3B3B3" stroke-width="3.69" stroke-miterlimit="2.61313" d="M1130.76 288.37c7.21,0 12.75,1.8 16.6,5.41 3.85,3.61 5.78,8.95 5.78,16.02l0 34.26 -7.15 0 0 -8.62c-1.68,2.87 -4.15,5.11 -7.41,6.73 -3.26,1.61 -7.13,2.41 -11.62,2.41 -6.16,0 -11.07,-1.47 -14.71,-4.41 -3.64,-2.94 -5.46,-6.83 -5.46,-11.66 0,-4.69 1.7,-8.48 5.1,-11.35 3.39,-2.87 8.81,-4.31 16.24,-4.31l17.55 0 0 -3.36c0,-4.76 -1.33,-8.39 -3.99,-10.87 -2.66,-2.49 -6.55,-3.73 -11.66,-3.73 -3.5,0 -6.86,0.58 -10.09,1.74 -3.22,1.15 -5.99,2.75 -8.3,4.78l-3.36 -5.57c2.8,-2.38 6.16,-4.22 10.09,-5.52 3.92,-1.29 8.06,-1.94 12.4,-1.94zm-2.63 50.33c4.2,0 7.81,-0.96 10.82,-2.89 3.02,-1.92 5.25,-4.71 6.73,-8.35l0 -9.04 -17.34 0c-9.46,0 -14.18,3.29 -14.18,9.87 0,3.22 1.23,5.76 3.67,7.62 2.45,1.86 5.89,2.78 10.3,2.78z"/>
   <polygon id="11" fill="none" fill-rule="nonzero" stroke="#B3B3B3" stroke-width="3.69" stroke-miterlimit="2.61313" points="1193.92,316.32 1180.89,328.3 1180.89,344.06 1173.42,344.06 1173.42,266.09 1180.89,266.09 1180.89,318.95 1213.88,288.79 1223.13,288.79 1199.49,311.38 1225.33,344.06 1216.2,344.06 "/>
   <path id="12" fill="none" fill-rule="nonzero" stroke="#B3B3B3" stroke-width="3.69" stroke-miterlimit="2.61313" d="M1242.88 299.61c1.75,-3.71 4.36,-6.52 7.83,-8.41 3.47,-1.89 7.76,-2.84 12.87,-2.84l0 7.25 -1.78 -0.11c-5.82,0 -10.37,1.79 -13.66,5.36 -3.29,3.57 -4.94,8.58 -4.94,15.03l0 28.16 -7.46 0 0 -55.27 7.15 0 0 10.83z"/>
   <path id="13" fill="none" fill-rule="nonzero" stroke="#B3B3B3" stroke-width="3.69" stroke-miterlimit="2.61313" d="M1324.64 318.74l-46.24 0c0.42,5.74 2.63,10.38 6.62,13.92 3.99,3.54 9.04,5.31 15.13,5.31 3.43,0 6.59,-0.62 9.46,-1.84 2.87,-1.23 5.36,-3.03 7.46,-5.41l4.2 4.83c-2.45,2.94 -5.52,5.19 -9.19,6.72 -3.68,1.54 -7.73,2.31 -12.14,2.31 -5.68,0 -10.7,-1.21 -15.08,-3.62 -4.38,-2.42 -7.79,-5.76 -10.24,-10.04 -2.45,-4.27 -3.68,-9.1 -3.68,-14.5 0,-5.4 1.17,-10.23 3.52,-14.5 2.35,-4.28 5.57,-7.6 9.67,-9.99 4.1,-2.38 8.7,-3.57 13.82,-3.57 5.11,0 9.71,1.19 13.77,3.57 4.06,2.39 7.25,5.69 9.56,9.93 2.31,4.24 3.47,9.09 3.47,14.55l-0.11 2.31zm-26.69 -23.96c-5.32,0 -9.79,1.7 -13.4,5.1 -3.61,3.4 -5.66,7.83 -6.15,13.29l39.2 0c-0.49,-5.46 -2.54,-9.89 -6.15,-13.29 -3.61,-3.4 -8.11,-5.1 -13.51,-5.1z"/>
   <path id="14" fill="none" fill-rule="nonzero" stroke="#B3B3B3" stroke-width="3.69" stroke-miterlimit="2.61313" d="M1390.43 266.09l0 77.97 -7.15 0 0 -10.93c-2.24,3.71 -5.2,6.55 -8.88,8.51 -3.67,1.96 -7.83,2.94 -12.45,2.94 -5.19,0 -9.88,-1.19 -14.08,-3.57 -4.2,-2.38 -7.49,-5.71 -9.88,-9.98 -2.38,-4.27 -3.57,-9.14 -3.57,-14.61 0,-5.46 1.19,-10.34 3.57,-14.61 2.39,-4.28 5.68,-7.59 9.88,-9.93 4.2,-2.35 8.9,-3.52 14.08,-3.52 4.48,0 8.53,0.93 12.13,2.79 3.61,1.86 6.57,4.57 8.88,8.14l0 -33.21 7.46 0zm-27.85 71.88c3.85,0 7.33,-0.9 10.45,-2.68 3.12,-1.79 5.57,-4.32 7.36,-7.62 1.78,-3.29 2.68,-7.04 2.68,-11.24 0,-4.2 -0.9,-7.95 -2.68,-11.24 -1.79,-3.3 -4.24,-5.84 -7.36,-7.62 -3.12,-1.79 -6.6,-2.68 -10.45,-2.68 -3.93,0 -7.45,0.89 -10.56,2.68 -3.12,1.78 -5.57,4.32 -7.35,7.62 -1.79,3.29 -2.68,7.04 -2.68,11.24 0,4.2 0.89,7.95 2.68,11.24 1.78,3.3 4.24,5.83 7.35,7.62 3.12,1.78 6.64,2.68 10.56,2.68z"/>
   <path id="15" fill="none" fill-rule="nonzero" stroke="#B3B3B3" stroke-width="3.69" stroke-miterlimit="2.61313" d="M1411.23 288.79l7.46 0 0 55.27 -7.46 0 0 -55.27zm3.78 -12.09c-1.54,0 -2.84,-0.52 -3.89,-1.58 -1.05,-1.05 -1.58,-2.31 -1.58,-3.78 0,-1.41 0.53,-2.63 1.58,-3.68 1.05,-1.05 2.35,-1.58 3.89,-1.58 1.54,0 2.84,0.5 3.89,1.52 1.05,1.02 1.58,2.23 1.58,3.63 0,1.54 -0.53,2.84 -1.58,3.89 -1.05,1.05 -2.35,1.58 -3.89,1.58z"/>
   <path id="16" fill="none" fill-rule="nonzero" stroke="#B3B3B3" stroke-width="3.69" stroke-miterlimit="2.61313" d="M1468.61 340.7c-1.4,1.26 -3.14,2.23 -5.2,2.89 -2.07,0.67 -4.22,1 -6.47,1 -5.18,0 -9.18,-1.4 -11.98,-4.2 -2.8,-2.8 -4.2,-6.76 -4.2,-11.87l0 -33.42 -9.87 0 0 -6.31 9.87 0 0 -12.09 7.46 0 0 12.09 16.82 0 0 6.31 -16.82 0 0 32.99c0,3.29 0.82,5.8 2.47,7.51 1.64,1.72 4.01,2.57 7.09,2.57 1.54,0 3.03,-0.24 4.46,-0.74 1.43,-0.49 2.68,-1.19 3.73,-2.1l2.63 5.36z"/>
   <path id="17" fill="none" fill-rule="nonzero" stroke="#B3B3B3" stroke-width="3.69" stroke-miterlimit="2.61313" d="M1501.5 288.37c7.21,0 12.75,1.8 16.6,5.41 3.85,3.61 5.78,8.95 5.78,16.02l0 34.26 -7.15 0 0 -8.62c-1.68,2.87 -4.15,5.11 -7.41,6.73 -3.26,1.61 -7.13,2.41 -11.62,2.41 -6.16,0 -11.07,-1.47 -14.71,-4.41 -3.64,-2.94 -5.46,-6.83 -5.46,-11.66 0,-4.69 1.7,-8.48 5.1,-11.35 3.39,-2.87 8.81,-4.31 16.24,-4.31l17.55 0 0 -3.36c0,-4.76 -1.33,-8.39 -3.99,-10.87 -2.66,-2.49 -6.55,-3.73 -11.66,-3.73 -3.5,0 -6.86,0.58 -10.09,1.74 -3.22,1.15 -5.99,2.75 -8.3,4.78l-3.36 -5.57c2.8,-2.38 6.16,-4.22 10.09,-5.52 3.92,-1.29 8.06,-1.94 12.4,-1.94zm-2.63 50.33c4.2,0 7.81,-0.96 10.82,-2.89 3.02,-1.92 5.25,-4.71 6.73,-8.35l0 -9.04 -17.34 0c-9.46,0 -14.18,3.29 -14.18,9.87 0,3.22 1.23,5.76 3.67,7.62 2.45,1.86 5.89,2.78 10.3,2.78z"/>
   <path id="18" fill="none" fill-rule="nonzero" stroke="#B3B3B3" stroke-width="3.69" stroke-miterlimit="2.61313" d="M1558.98 344.59c-4.48,0 -8.77,-0.64 -12.87,-1.94 -4.1,-1.29 -7.31,-2.92 -9.61,-4.89l3.36 -5.89c2.31,1.82 5.22,3.31 8.72,4.47 3.5,1.15 7.15,1.73 10.93,1.73 5.04,0 8.77,-0.79 11.19,-2.36 2.42,-1.58 3.63,-3.8 3.63,-6.68 0,-2.03 -0.66,-3.63 -2,-4.78 -1.33,-1.16 -3.01,-2.03 -5.04,-2.63 -2.03,-0.6 -4.73,-1.17 -8.09,-1.74 -4.48,-0.84 -8.09,-1.7 -10.83,-2.57 -2.73,-0.87 -5.06,-2.37 -6.99,-4.46 -1.93,-2.1 -2.89,-5.01 -2.89,-8.72 0,-4.62 1.93,-8.41 5.78,-11.35 3.85,-2.94 9.21,-4.42 16.08,-4.42 3.57,0 7.15,0.48 10.72,1.42 3.57,0.95 6.52,2.19 8.83,3.73l-3.26 5.99c-4.55,-3.15 -9.98,-4.73 -16.29,-4.73 -4.76,0 -8.35,0.84 -10.77,2.53 -2.41,1.68 -3.62,3.89 -3.62,6.62 0,2.1 0.68,3.79 2.05,5.05 1.37,1.26 3.06,2.19 5.1,2.78 2.03,0.6 4.83,1.21 8.41,1.84 4.41,0.84 7.95,1.68 10.61,2.52 2.66,0.84 4.94,2.28 6.83,4.31 1.89,2.03 2.84,4.83 2.84,8.41 0,4.83 -2.01,8.67 -6.04,11.5 -4.03,2.84 -9.61,4.26 -16.76,4.26z"/>
   <path id="19" fill="none" fill-rule="nonzero" stroke="#B3B3B3" stroke-width="3.69" stroke-miterlimit="2.61313" d="M1595.55 288.79l7.46 0 0 55.27 -7.46 0 0 -55.27zm3.78 -12.09c-1.54,0 -2.84,-0.52 -3.89,-1.58 -1.05,-1.05 -1.58,-2.31 -1.58,-3.78 0,-1.41 0.53,-2.63 1.58,-3.68 1.05,-1.05 2.35,-1.58 3.89,-1.58 1.54,0 2.84,0.5 3.89,1.52 1.05,1.02 1.58,2.23 1.58,3.63 0,1.54 -0.53,2.84 -1.58,3.89 -1.05,1.05 -2.35,1.58 -3.89,1.58z"/>
  </g>
  <rect fill="#2CA67B" transform="matrix(0.607516 -0.000199056 0.00164668 0.372736 2783.94 259.197)" width="1284.91" height="34.82" rx="12.31" ry="12.31"/>
  <polygon fill="#2CA67B" fill-rule="nonzero" points="2781.98,79.57 2809.57,79.57 2809.57,176.28 2869.33,176.28 2869.33,198.76 2781.98,198.76 "/>
  <polygon id="1" fill="#2CA67B" fill-rule="nonzero" points="2928.24,151.93 2912.24,168.62 2912.24,198.76 2884.82,198.76 2884.82,79.57 2912.24,79.57 2912.24,135.24 2965.02,79.57 2995.68,79.57 2946.29,132.69 2998.57,198.76 2966.39,198.76 "/>
  <path id="2" fill="#2CA67B" fill-rule="nonzero" d="M3047.44 200.8c-9.42,0 -18.53,-1.27 -27.33,-3.83 -8.8,-2.55 -15.87,-5.88 -21.2,-9.96l9.37 -20.77c5.11,3.75 11.18,6.75 18.22,9.03 7.04,2.27 14.07,3.4 21.11,3.4 7.83,0 13.62,-1.16 17.37,-3.49 3.75,-2.33 5.62,-5.42 5.62,-9.28 0,-2.84 -1.11,-5.19 -3.32,-7.07 -2.21,-1.87 -5.05,-3.37 -8.51,-4.51 -3.46,-1.13 -8.14,-2.38 -14.05,-3.74 -9.08,-2.16 -16.52,-4.31 -22.3,-6.47 -5.79,-2.16 -10.76,-5.62 -14.9,-10.39 -4.14,-4.77 -6.21,-11.13 -6.21,-19.07 0,-6.92 1.88,-13.2 5.62,-18.81 3.75,-5.62 9.39,-10.07 16.94,-13.37 7.55,-3.29 16.77,-4.94 27.67,-4.94 7.61,0 15.04,0.91 22.3,2.72 7.27,1.82 13.62,4.43 19.07,7.83l-8.51 20.94c-11.01,-6.24 -22.02,-9.37 -33.03,-9.37 -7.72,0 -13.42,1.25 -17.11,3.75 -3.69,2.5 -5.54,5.79 -5.54,9.87 0,4.09 2.13,7.13 6.39,9.11 4.26,1.99 10.75,3.95 19.49,5.88 9.08,2.16 16.52,4.31 22.31,6.47 5.79,2.16 10.75,5.56 14.9,10.22 4.14,4.65 6.21,10.95 6.21,18.9 0,6.81 -1.9,13.03 -5.7,18.65 -3.81,5.62 -9.51,10.07 -17.12,13.37 -7.6,3.29 -16.86,4.94 -27.75,4.94z"/>
  <path id="3" fill="#CCCCCC" fill-rule="nonzero" d="M3202.57 109.19l0 78.67c0,15.21 -3.72,26.48 -11.15,33.8 -7.44,7.32 -18.65,10.99 -33.63,10.99 -8.28,0 -16.15,-1.22 -23.58,-3.66 -7.44,-2.44 -13.48,-5.82 -18.14,-10.13l6.13 -9.2c4.31,3.86 9.56,6.87 15.75,9.03 6.19,2.16 12.69,3.23 19.5,3.23 11.35,0 19.7,-2.64 25.03,-7.92 5.34,-5.28 8,-13.48 8,-24.61l0 -11.41c-3.74,5.68 -8.65,9.99 -14.73,12.94 -6.07,2.95 -12.8,4.43 -20.18,4.43 -8.4,0 -16.04,-1.85 -22.91,-5.54 -6.86,-3.69 -12.26,-8.86 -16.17,-15.49 -3.92,-6.64 -5.88,-14.17 -5.88,-22.56 0,-8.4 1.96,-15.9 5.88,-22.48 3.91,-6.58 9.28,-11.69 16.09,-15.32 6.81,-3.64 14.47,-5.45 22.99,-5.45 7.61,0 14.47,1.53 20.6,4.6 6.13,3.06 11.07,7.49 14.81,13.28l0 -17.2 11.58 0zm-45.8 75.44c6.47,0 12.31,-1.39 17.53,-4.17 5.23,-2.78 9.28,-6.67 12.18,-11.66 2.89,-4.99 4.34,-10.67 4.34,-17.03 0,-6.36 -1.45,-12.01 -4.34,-16.94 -2.89,-4.94 -6.92,-8.8 -12.09,-11.58 -5.16,-2.78 -11.04,-4.17 -17.62,-4.17 -6.47,0 -12.29,1.36 -17.46,4.09 -5.16,2.72 -9.19,6.58 -12.09,11.58 -2.89,4.99 -4.34,10.67 -4.34,17.03 0,6.36 1.44,12.03 4.34,17.03 2.9,4.99 6.93,8.88 12.09,11.66 5.17,2.78 10.99,4.17 17.46,4.17z"/>
  <path id="4" fill="#CCCCCC" fill-rule="nonzero" d="M3248.03 126.73c2.84,-6.02 7.07,-10.56 12.69,-13.62 5.62,-3.06 12.57,-4.6 20.86,-4.6l0 11.75 -2.89 -0.17c-9.42,0 -16.8,2.89 -22.13,8.69 -5.33,5.79 -8,13.9 -8,24.35l0 45.63 -12.09 0 0 -89.57 11.58 0 0 17.54z"/>
  <path id="5" fill="#CCCCCC" fill-rule="nonzero" d="M3334.53 108.51c11.69,0 20.66,2.92 26.91,8.77 6.24,5.85 9.37,14.5 9.37,25.96l0 55.51 -11.58 0 0 -13.96c-2.72,4.65 -6.72,8.28 -12,10.9 -5.28,2.61 -11.55,3.92 -18.81,3.92 -9.99,0 -17.94,-2.39 -23.84,-7.16 -5.9,-4.77 -8.85,-11.07 -8.85,-18.9 0,-7.61 2.75,-13.74 8.26,-18.39 5.51,-4.65 14.28,-6.98 26.31,-6.98l28.44 0 0 -5.45c0,-7.72 -2.16,-13.59 -6.47,-17.63 -4.31,-4.03 -10.61,-6.04 -18.9,-6.04 -5.67,0 -11.12,0.94 -16.35,2.81 -5.22,1.87 -9.71,4.46 -13.45,7.75l-5.45 -9.02c4.54,-3.86 9.99,-6.84 16.35,-8.94 6.36,-2.1 13.06,-3.15 20.09,-3.15zm-4.26 81.56c6.81,0 12.66,-1.56 17.54,-4.68 4.88,-3.12 8.51,-7.64 10.9,-13.54l0 -14.64 -28.1 0c-15.32,0 -22.98,5.33 -22.98,16 0,5.22 1.98,9.34 5.96,12.35 3.98,3.01 9.54,4.51 16.69,4.51z"/>
  <path id="6" fill="#CCCCCC" fill-rule="nonzero" d="M3450.83 193.31c-2.27,2.05 -5.08,3.6 -8.43,4.68 -3.34,1.08 -6.84,1.62 -10.47,1.62 -8.4,0 -14.87,-2.27 -19.41,-6.81 -4.54,-4.54 -6.81,-10.96 -6.81,-19.24l0 -54.15 -16.01 0 0 -10.22 16.01 0 0 -19.58 12.09 0 0 19.58 27.24 0 0 10.22 -27.24 0 0 53.47c0,5.34 1.33,9.39 4,12.17 2.67,2.78 6.5,4.17 11.49,4.17 2.5,0 4.91,-0.4 7.24,-1.19 2.33,-0.8 4.34,-1.93 6.05,-3.4l4.26 8.68z"/>
  <path id="7" fill="#CCCCCC" fill-rule="nonzero" d="M3472.8 109.19l12.09 0 0 89.57 -12.09 0 0 -89.57zm6.13 -19.58c-2.5,0 -4.6,-0.85 -6.3,-2.55 -1.7,-1.7 -2.55,-3.75 -2.55,-6.13 0,-2.27 0.85,-4.26 2.55,-5.96 1.7,-1.7 3.81,-2.55 6.3,-2.55 2.5,0 4.6,0.82 6.3,2.47 1.71,1.64 2.55,3.6 2.55,5.87 0,2.5 -0.85,4.6 -2.55,6.3 -1.7,1.7 -3.8,2.55 -6.3,2.55z"/>
  <path id="8" fill="#CCCCCC" fill-rule="nonzero" d="M3542.62 199.61c-7.27,0 -14.22,-1.05 -20.86,-3.15 -6.64,-2.1 -11.83,-4.74 -15.58,-7.92l5.45 -9.54c3.75,2.95 8.46,5.36 14.14,7.23 5.67,1.88 11.58,2.81 17.71,2.81 8.17,0 14.22,-1.28 18.13,-3.83 3.92,-2.55 5.88,-6.16 5.88,-10.82 0,-3.29 -1.08,-5.88 -3.23,-7.75 -2.16,-1.87 -4.88,-3.29 -8.17,-4.26 -3.29,-0.96 -7.66,-1.9 -13.11,-2.81 -7.26,-1.36 -13.11,-2.75 -17.54,-4.17 -4.43,-1.42 -8.2,-3.83 -11.32,-7.24 -3.12,-3.41 -4.68,-8.12 -4.68,-14.13 0,-7.49 3.12,-13.62 9.36,-18.39 6.24,-4.77 14.93,-7.15 26.06,-7.15 5.79,0 11.58,0.77 17.36,2.3 5.79,1.53 10.56,3.55 14.31,6.05l-5.28 9.71c-7.38,-5.11 -16.18,-7.66 -26.39,-7.66 -7.72,0 -13.54,1.36 -17.46,4.09 -3.92,2.72 -5.88,6.3 -5.88,10.73 0,3.41 1.11,6.13 3.32,8.17 2.22,2.05 4.97,3.55 8.26,4.51 3.29,0.96 7.83,1.96 13.62,2.98 7.15,1.36 12.89,2.72 17.2,4.09 4.31,1.36 8,3.69 11.07,6.98 3.06,3.29 4.6,7.83 4.6,13.62 0,7.83 -3.26,14.05 -9.79,18.64 -6.53,4.6 -15.58,6.9 -27.16,6.9z"/>
 </g>
</svg>
