<?xml version="1.0" encoding="UTF-8"?>
<!DOCTYPE svg PUBLIC "-//W3C//DTD SVG 1.1//EN" "http://www.w3.org/Graphics/SVG/1.1/DTD/svg11.dtd">
<!-- Creator: CorelDRAW 2020 (64-Bit) -->
<svg xmlns="http://www.w3.org/2000/svg" xml:space="preserve" width="2.90706in" height="0.281346in" version="1.1" shape-rendering="geometricPrecision" text-rendering="geometricPrecision" image-rendering="optimizeQuality" fill-rule="evenodd" clip-rule="evenodd"
viewBox="0 0 3370.81 326.23"
 xmlns:xlink="http://www.w3.org/1999/xlink"
 xmlns:xodm="http://www.corel.com/coreldraw/odm/2003">
 <g id="Layer_x0020_1">
  <metadata id="CorelCorpID_0Corel-Layer"/>
  <path fill="#18388F" fill-rule="nonzero" d="M130.29 49.76c10.69,0 19.32,3.2 25.9,9.62 6.57,6.41 9.86,15.93 9.86,28.55l0 49.38 -25.02 0 0 -45.54c0,-6.84 -1.5,-11.95 -4.49,-15.32 -2.99,-3.37 -7.32,-5.05 -12.99,-5.05 -6.31,0 -11.34,1.95 -15.07,5.85 -3.74,3.9 -5.62,9.7 -5.62,17.4l0 42.65 -25.01 0 0 -86.27 23.89 0 0 10.1c3.31,-3.64 7.43,-6.44 12.34,-8.42 4.92,-1.98 10.32,-2.97 16.2,-2.97z"/>
  <path id="1" fill="#18388F" fill-rule="nonzero" d="M230.66 138.6c-9.08,0 -17.24,-1.9 -24.46,-5.69 -7.21,-3.79 -12.85,-9.06 -16.91,-15.8 -4.06,-6.73 -6.09,-14.38 -6.09,-22.93 0,-8.55 2.03,-16.19 6.09,-22.93 4.06,-6.74 9.7,-12 16.91,-15.8 7.22,-3.8 15.37,-5.69 24.46,-5.69 9.08,0 17.21,1.89 24.37,5.69 7.16,3.79 12.77,9.06 16.84,15.8 4.06,6.73 6.09,14.38 6.09,22.93 0,8.55 -2.03,16.2 -6.09,22.93 -4.06,6.74 -9.67,12 -16.84,15.8 -7.16,3.79 -15.29,5.69 -24.37,5.69zm0 -20.52c6.41,0 11.68,-2.16 15.8,-6.5 4.11,-4.33 6.17,-10.13 6.17,-17.4 0,-7.27 -2.06,-13.07 -6.17,-17.4 -4.12,-4.33 -9.38,-6.49 -15.8,-6.49 -6.41,0 -11.7,2.16 -15.87,6.49 -4.17,4.33 -6.25,10.13 -6.25,17.4 0,7.27 2.08,13.07 6.25,17.4 4.17,4.33 9.46,6.5 15.87,6.5z"/>
  <path id="2" fill="#18388F" fill-rule="nonzero" d="M378.83 78.95c6.41,2.03 11.44,5.42 15.07,10.18 3.64,4.76 5.46,10.61 5.46,17.56 0,9.83 -3.83,17.4 -11.47,22.69 -7.64,5.29 -18.79,7.94 -33.43,7.94l-58.05 0 0 -112.24 54.84 0c13.68,0 24.19,2.62 31.51,7.86 7.32,5.24 10.98,12.34 10.98,21.32 0,5.46 -1.31,10.32 -3.93,14.59 -2.62,4.27 -6.28,7.64 -10.98,10.1zm-56.61 -34.32l0 26.45 25.82 0c6.41,0 11.28,-1.12 14.59,-3.36 3.31,-2.25 4.97,-5.56 4.97,-9.94 0,-4.38 -1.66,-7.67 -4.97,-9.86 -3.31,-2.19 -8.18,-3.29 -14.59,-3.29l-25.82 0zm30.31 73.12c6.84,0 12,-1.12 15.48,-3.37 3.47,-2.25 5.21,-5.72 5.21,-10.42 0,-9.3 -6.89,-13.95 -20.68,-13.95l-30.31 0 0 27.74 30.31 0z"/>
  <path id="3" fill="#18388F" fill-rule="nonzero" d="M417.31 51.05l25.01 0 0 86.27 -25.01 0 0 -86.27zm12.51 -12.03c-4.6,0 -8.34,-1.33 -11.23,-4.01 -2.89,-2.67 -4.33,-5.98 -4.33,-9.94 0,-3.96 1.44,-7.27 4.33,-9.94 2.89,-2.68 6.63,-4.01 11.23,-4.01 4.6,0 8.34,1.28 11.22,3.85 2.89,2.57 4.33,5.77 4.33,9.62 0,4.17 -1.44,7.62 -4.33,10.34 -2.89,2.73 -6.62,4.09 -11.22,4.09z"/>
  <path id="4" fill="#18388F" fill-rule="nonzero" d="M500.37 49.76c13.36,0 23.62,3.18 30.79,9.54 7.16,6.36 10.74,15.95 10.74,28.78l0 49.23 -23.41 0 0 -10.74c-4.7,8.02 -13.47,12.02 -26.29,12.02 -6.63,0 -12.38,-1.12 -17.24,-3.37 -4.87,-2.24 -8.58,-5.34 -11.14,-9.3 -2.57,-3.95 -3.85,-8.45 -3.85,-13.47 0,-8.02 3.02,-14.33 9.06,-18.92 6.04,-4.6 15.37,-6.89 27.98,-6.89l19.89 0c0,-5.46 -1.66,-9.65 -4.97,-12.59 -3.31,-2.94 -8.29,-4.41 -14.91,-4.41 -4.59,0 -9.11,0.72 -13.55,2.16 -4.43,1.45 -8.2,3.4 -11.3,5.86l-8.98 -17.48c4.7,-3.31 10.34,-5.88 16.92,-7.7 6.57,-1.82 13.33,-2.73 20.28,-2.73zm-1.92 72c4.27,0 8.07,-0.99 11.38,-2.97 3.31,-1.98 5.67,-4.89 7.06,-8.74l0 -8.82 -17.16 0c-10.26,0 -15.39,3.37 -15.39,10.1 0,3.2 1.26,5.74 3.77,7.61 2.51,1.87 5.96,2.81 10.34,2.81z"/>
  <path id="5" fill="#18388F" fill-rule="nonzero" d="M648.54 51.05l-38.97 91.56c-3.95,9.94 -8.84,16.95 -14.67,21 -5.83,4.06 -12.85,6.09 -21.09,6.09 -4.49,0 -8.92,-0.69 -13.31,-2.08 -4.38,-1.39 -7.96,-3.31 -10.74,-5.77l9.14 -17.8c1.92,1.71 4.14,3.05 6.66,4.01 2.51,0.96 4.99,1.44 7.45,1.44 3.42,0 6.2,-0.83 8.34,-2.48 2.14,-1.66 4.06,-4.41 5.77,-8.26l0.32 -0.8 -37.36 -86.91 25.82 0 24.21 58.52 24.37 -58.52 24.05 0z"/>
  <path id="6" fill="#18388F" fill-rule="nonzero" d="M690.7 49.76c13.36,0 23.62,3.18 30.79,9.54 7.16,6.36 10.74,15.95 10.74,28.78l0 49.23 -23.41 0 0 -10.74c-4.7,8.02 -13.47,12.02 -26.29,12.02 -6.63,0 -12.38,-1.12 -17.24,-3.37 -4.87,-2.24 -8.58,-5.34 -11.14,-9.3 -2.57,-3.95 -3.85,-8.45 -3.85,-13.47 0,-8.02 3.02,-14.33 9.06,-18.92 6.04,-4.6 15.37,-6.89 27.98,-6.89l19.89 0c0,-5.46 -1.66,-9.65 -4.97,-12.59 -3.31,-2.94 -8.29,-4.41 -14.91,-4.41 -4.59,0 -9.11,0.72 -13.55,2.16 -4.43,1.45 -8.2,3.4 -11.3,5.86l-8.98 -17.48c4.7,-3.31 10.34,-5.88 16.92,-7.7 6.57,-1.82 13.33,-2.73 20.28,-2.73zm-1.92 72c4.27,0 8.07,-0.99 11.38,-2.97 3.31,-1.98 5.67,-4.89 7.06,-8.74l0 -8.82 -17.16 0c-10.26,0 -15.39,3.37 -15.39,10.1 0,3.2 1.26,5.74 3.77,7.61 2.51,1.87 5.96,2.81 10.34,2.81z"/>
  <path id="7" fill="#666666" fill-rule="nonzero" d="M43.45 196.48c7.91,0 15.07,1.79 21.49,5.37 6.41,3.58 11.44,8.63 15.07,15.16 3.63,6.52 5.45,13.95 5.45,22.29 0,8.34 -1.82,15.77 -5.45,22.29 -3.63,6.52 -8.66,11.6 -15.07,15.23 -6.41,3.64 -13.58,5.46 -21.49,5.46 -7.05,0 -13.39,-1.5 -19,-4.49 -5.61,-2.99 -10.13,-7.32 -13.55,-12.99l0 16.68 -10.91 0 0 -118.98 11.39 0 0 50.67c3.53,-5.45 8.04,-9.6 13.55,-12.43 5.51,-2.83 11.68,-4.25 18.52,-4.25zm-0.8 75.68c5.88,0 11.22,-1.36 16.03,-4.09 4.81,-2.73 8.58,-6.6 11.3,-11.62 2.73,-5.03 4.09,-10.75 4.09,-17.16 0,-6.41 -1.36,-12.13 -4.09,-17.16 -2.73,-5.03 -6.49,-8.9 -11.3,-11.63 -4.81,-2.73 -10.15,-4.09 -16.03,-4.09 -5.99,0 -11.36,1.36 -16.11,4.09 -4.76,2.73 -8.5,6.6 -11.23,11.63 -2.73,5.02 -4.09,10.74 -4.09,17.16 0,6.41 1.36,12.13 4.09,17.16 2.73,5.02 6.47,8.9 11.23,11.62 4.76,2.73 10.13,4.09 16.11,4.09z"/>
  <path id="8" fill="#666666" fill-rule="nonzero" d="M137.74 196.48c11.01,0 19.46,2.75 25.34,8.26 5.88,5.51 8.82,13.65 8.82,24.45l0 52.27 -10.91 0 0 -13.15c-2.57,4.38 -6.33,7.8 -11.3,10.26 -4.97,2.46 -10.87,3.69 -17.72,3.69 -9.41,0 -16.89,-2.25 -22.45,-6.74 -5.56,-4.49 -8.34,-10.42 -8.34,-17.79 0,-7.16 2.59,-12.94 7.77,-17.32 5.19,-4.38 13.44,-6.57 24.77,-6.57l26.78 0 0 -5.13c0,-7.27 -2.03,-12.8 -6.09,-16.6 -4.06,-3.79 -9.99,-5.69 -17.8,-5.69 -5.34,0 -10.47,0.88 -15.39,2.64 -4.92,1.76 -9.14,4.2 -12.66,7.29l-5.13 -8.5c4.27,-3.64 9.4,-6.44 15.39,-8.42 5.98,-1.98 12.29,-2.97 18.92,-2.97zm-4.01 76.81c6.41,0 11.92,-1.47 16.52,-4.41 4.6,-2.94 8.02,-7.19 10.26,-12.75l0 -13.79 -26.46 0c-14.43,0 -21.64,5.02 -21.64,15.07 0,4.92 1.87,8.79 5.61,11.63 3.74,2.83 8.98,4.25 15.71,4.25z"/>
  <path id="9" fill="#666666" fill-rule="nonzero" d="M245.81 196.48c10.58,0 19,3.07 25.25,9.22 6.25,6.15 9.38,15.1 9.38,26.86l0 48.91 -11.39 0 0 -47.78c0,-8.76 -2.19,-15.45 -6.57,-20.05 -4.38,-4.6 -10.64,-6.89 -18.76,-6.89 -9.08,0 -16.27,2.7 -21.57,8.1 -5.29,5.4 -7.94,12.85 -7.94,22.37l0 44.25 -11.39 0 0 -84.34 10.91 0 0 15.55c3.1,-5.13 7.4,-9.11 12.91,-11.94 5.51,-2.83 11.9,-4.25 19.16,-4.25z"/>
  <path id="10" fill="#666666" fill-rule="nonzero" d="M389.81 197.11l0 74.08c0,14.33 -3.5,24.93 -10.5,31.83 -7,6.9 -17.56,10.34 -31.67,10.34 -7.8,0 -15.21,-1.15 -22.2,-3.45 -7,-2.3 -12.7,-5.48 -17.08,-9.54l5.77 -8.66c4.06,3.63 9.01,6.47 14.83,8.5 5.83,2.03 11.95,3.04 18.36,3.04 10.69,0 18.55,-2.48 23.57,-7.45 5.03,-4.97 7.54,-12.7 7.54,-23.17l0 -10.74c-3.52,5.35 -8.15,9.4 -13.87,12.18 -5.72,2.78 -12.05,4.17 -19,4.17 -7.91,0 -15.1,-1.74 -21.57,-5.21 -6.46,-3.47 -11.55,-8.34 -15.23,-14.59 -3.69,-6.25 -5.53,-13.34 -5.53,-21.25 0,-7.91 1.84,-14.97 5.53,-21.17 3.68,-6.2 8.74,-11.01 15.15,-14.43 6.41,-3.42 13.63,-5.13 21.65,-5.13 7.16,0 13.63,1.44 19.4,4.33 5.77,2.89 10.42,7.06 13.95,12.51l0 -16.2 10.9 0zm-43.13 71.04c6.09,0 11.6,-1.31 16.51,-3.93 4.92,-2.62 8.74,-6.28 11.47,-10.98 2.73,-4.7 4.09,-10.05 4.09,-16.03 0,-5.99 -1.36,-11.31 -4.09,-15.95 -2.73,-4.65 -6.52,-8.29 -11.39,-10.91 -4.86,-2.62 -10.39,-3.93 -16.59,-3.93 -6.09,0 -11.57,1.28 -16.44,3.85 -4.86,2.57 -8.66,6.2 -11.39,10.9 -2.73,4.7 -4.09,10.05 -4.09,16.04 0,5.98 1.36,11.33 4.09,16.03 2.73,4.7 6.52,8.36 11.39,10.98 4.87,2.62 10.34,3.93 16.44,3.93z"/>
  <path id="11" fill="#666666" fill-rule="nonzero" d="M497.72 197.11l0 84.34 -10.91 0 0 -15.39c-2.99,5.13 -7.11,9.11 -12.35,11.95 -5.24,2.83 -11.22,4.25 -17.96,4.25 -11.01,0 -19.69,-3.08 -26.05,-9.22 -6.36,-6.15 -9.54,-15.15 -9.54,-27.02l0 -48.91 11.39 0 0 47.79c0,8.87 2.19,15.6 6.57,20.2 4.38,4.6 10.64,6.9 18.76,6.9 8.87,0 15.88,-2.7 21.01,-8.1 5.13,-5.4 7.7,-12.91 7.7,-22.53l0 -44.26 11.39 0z"/>
  <path id="12" fill="#666666" fill-rule="nonzero" d="M572.6 196.48c10.58,0 19,3.07 25.25,9.22 6.25,6.15 9.38,15.1 9.38,26.86l0 48.91 -11.39 0 0 -47.78c0,-8.76 -2.19,-15.45 -6.57,-20.05 -4.38,-4.6 -10.64,-6.89 -18.76,-6.89 -9.08,0 -16.27,2.7 -21.57,8.1 -5.29,5.4 -7.94,12.85 -7.94,22.37l0 44.25 -11.39 0 0 -84.34 10.91 0 0 15.55c3.1,-5.13 7.4,-9.11 12.91,-11.94 5.51,-2.83 11.9,-4.25 19.16,-4.25z"/>
  <path id="13" fill="#666666" fill-rule="nonzero" d="M667.69 196.48c11.01,0 19.46,2.75 25.34,8.26 5.88,5.51 8.82,13.65 8.82,24.45l0 52.27 -10.91 0 0 -13.15c-2.57,4.38 -6.33,7.8 -11.3,10.26 -4.97,2.46 -10.87,3.69 -17.72,3.69 -9.41,0 -16.89,-2.25 -22.45,-6.74 -5.56,-4.49 -8.34,-10.42 -8.34,-17.79 0,-7.16 2.59,-12.94 7.77,-17.32 5.19,-4.38 13.44,-6.57 24.77,-6.57l26.78 0 0 -5.13c0,-7.27 -2.03,-12.8 -6.09,-16.6 -4.06,-3.79 -9.99,-5.69 -17.8,-5.69 -5.34,0 -10.47,0.88 -15.39,2.64 -4.92,1.76 -9.14,4.2 -12.66,7.29l-5.13 -8.5c4.27,-3.64 9.4,-6.44 15.39,-8.42 5.98,-1.98 12.29,-2.97 18.92,-2.97zm-4.01 76.81c6.41,0 11.92,-1.47 16.52,-4.41 4.6,-2.94 8.02,-7.19 10.26,-12.75l0 -13.79 -26.46 0c-14.43,0 -21.64,5.02 -21.64,15.07 0,4.92 1.87,8.79 5.61,11.63 3.74,2.83 8.98,4.25 15.71,4.25z"/>
  <path id="14" fill="#666666" fill-rule="nonzero" d="M775.77 196.48c10.58,0 19,3.07 25.25,9.22 6.25,6.15 9.38,15.1 9.38,26.86l0 48.91 -11.39 0 0 -47.78c0,-8.76 -2.19,-15.45 -6.57,-20.05 -4.38,-4.6 -10.64,-6.89 -18.76,-6.89 -9.08,0 -16.27,2.7 -21.57,8.1 -5.29,5.4 -7.94,12.85 -7.94,22.37l0 44.25 -11.39 0 0 -84.34 10.91 0 0 15.55c3.1,-5.13 7.4,-9.11 12.91,-11.94 5.51,-2.83 11.9,-4.25 19.16,-4.25z"/>
  <rect fill="#18388F" x="1776.56" y="94.15" width="348.28" height="136.19" rx="1970.72" ry="1970.72"/>
  <path fill="white" fill-rule="nonzero" d="M1859.02 144.92l15.42 0 0 13.41 -14.97 0 0 45.36 -17.43 0 0 -45.36 -9.27 0 0 -13.41 9.27 0 0 -2.68c0,-6.85 2.03,-12.29 6.09,-16.31 4.06,-4.02 9.78,-6.04 17.15,-6.04 2.61,0 5.09,0.28 7.43,0.84 2.35,0.56 4.3,1.36 5.87,2.4l-4.58 12.63c-2.01,-1.42 -4.36,-2.12 -7.04,-2.12 -5.29,0 -7.93,2.9 -7.93,8.71l0 2.57z"/>
  <path id="1" fill="white" fill-rule="nonzero" d="M1908.73 151.51c2.09,-2.91 4.9,-5.1 8.44,-6.59 3.54,-1.49 7.62,-2.24 12.23,-2.24l0 16.09c-1.94,-0.15 -3.24,-0.22 -3.91,-0.22 -4.99,0 -8.9,1.4 -11.73,4.19 -2.83,2.79 -4.25,6.98 -4.25,12.57l0 28.38 -17.43 0 0 -60.11 16.65 0 0 7.93z"/>
  <path id="2" fill="white" fill-rule="nonzero" d="M1998.12 173.86c0,0.22 -0.11,1.79 -0.33,4.69l-45.48 0c0.82,3.73 2.76,6.66 5.81,8.83 3.05,2.16 6.85,3.24 11.39,3.24 3.13,0 5.9,-0.47 8.33,-1.4 2.42,-0.93 4.67,-2.4 6.76,-4.41l9.27 10.05c-5.66,6.48 -13.93,9.72 -24.81,9.72 -6.78,0 -12.77,-1.32 -17.99,-3.97 -5.21,-2.64 -9.24,-6.31 -12.07,-11.01 -2.83,-4.69 -4.25,-10.02 -4.25,-15.98 0,-5.88 1.4,-11.19 4.19,-15.92 2.79,-4.73 6.63,-8.42 11.51,-11.06 4.88,-2.64 10.34,-3.97 16.37,-3.97 5.88,0 11.21,1.26 15.98,3.8 4.77,2.53 8.51,6.17 11.23,10.9 2.72,4.73 4.08,10.22 4.08,16.48zm-31.17 -17.99c-3.94,0 -7.26,1.12 -9.94,3.36 -2.68,2.23 -4.32,5.29 -4.92,9.16l29.61 0c-0.59,-3.8 -2.23,-6.84 -4.92,-9.11 -2.68,-2.27 -5.96,-3.41 -9.83,-3.41z"/>
  <path id="3" fill="white" fill-rule="nonzero" d="M2068.63 173.86c0,0.22 -0.11,1.79 -0.33,4.69l-45.48 0c0.82,3.73 2.76,6.66 5.81,8.83 3.05,2.16 6.85,3.24 11.39,3.24 3.13,0 5.9,-0.47 8.33,-1.4 2.42,-0.93 4.67,-2.4 6.76,-4.41l9.27 10.05c-5.66,6.48 -13.93,9.72 -24.81,9.72 -6.78,0 -12.77,-1.32 -17.99,-3.97 -5.21,-2.64 -9.24,-6.31 -12.07,-11.01 -2.83,-4.69 -4.25,-10.02 -4.25,-15.98 0,-5.88 1.4,-11.19 4.19,-15.92 2.79,-4.73 6.63,-8.42 11.51,-11.06 4.88,-2.64 10.34,-3.97 16.37,-3.97 5.88,0 11.21,1.26 15.98,3.8 4.77,2.53 8.51,6.17 11.23,10.9 2.72,4.73 4.08,10.22 4.08,16.48zm-31.17 -17.99c-3.94,0 -7.26,1.12 -9.94,3.36 -2.68,2.23 -4.32,5.29 -4.92,9.16l29.61 0c-0.59,-3.8 -2.23,-6.84 -4.92,-9.11 -2.68,-2.27 -5.96,-3.41 -9.83,-3.41z"/>
  <path fill="#666666" fill-rule="nonzero" d="M2183.4 210.94c-7.11,0 -13.93,-1.14 -20.45,-3.42 -6.52,-2.28 -11.56,-5.29 -15.11,-9.03l3.97 -7.8c3.46,3.46 8.07,6.27 13.82,8.41 5.74,2.14 11.67,3.21 17.78,3.21 8.57,0 15,-1.57 19.29,-4.72 4.29,-3.15 6.43,-7.23 6.43,-12.24 0,-3.83 -1.16,-6.89 -3.49,-9.17 -2.32,-2.28 -5.18,-4.04 -8.55,-5.27 -3.37,-1.23 -8.07,-2.57 -14.09,-4.04 -7.2,-1.82 -12.95,-3.58 -17.23,-5.26 -4.29,-1.69 -7.96,-4.26 -11.02,-7.73 -3.05,-3.46 -4.58,-8.16 -4.58,-14.09 0,-4.83 1.27,-9.24 3.83,-13.2 2.55,-3.97 6.47,-7.14 11.76,-9.51 5.29,-2.37 11.85,-3.56 19.69,-3.56 5.47,0 10.83,0.75 16.07,2.26 5.25,1.5 9.78,3.58 13.61,6.22l-3.42 8.07c-4.01,-2.64 -8.29,-4.63 -12.86,-5.95 -4.56,-1.32 -9.03,-1.99 -13.41,-1.99 -8.39,0 -14.7,1.62 -18.95,4.86 -4.24,3.24 -6.36,7.41 -6.36,12.52 0,3.83 1.16,6.91 3.49,9.23 2.33,2.33 5.25,4.1 8.76,5.34 3.51,1.23 8.23,2.57 14.16,4.04 7.02,1.73 12.7,3.44 17.03,5.13 4.33,1.69 8,4.24 11.01,7.66 3.01,3.42 4.51,8.05 4.51,13.89 0,4.83 -1.3,9.23 -3.9,13.2 -2.6,3.97 -6.59,7.11 -11.97,9.44 -5.38,2.32 -11.99,3.49 -19.84,3.49z"/>
  <path id="1" fill="#666666" fill-rule="nonzero" d="M2276.96 114.36c12.22,0 21.8,2.92 28.73,8.76 6.93,5.83 10.39,13.86 10.39,24.08 0,10.21 -3.46,18.21 -10.39,24 -6.93,5.79 -16.51,8.69 -28.73,8.69l-25.71 0 0 30.23 -10.12 0 0 -95.75 35.84 0zm-0.27 56.63c9.48,0 16.73,-2.07 21.75,-6.22 5.01,-4.15 7.52,-10.01 7.52,-17.58 0,-7.75 -2.51,-13.7 -7.52,-17.85 -5.02,-4.15 -12.27,-6.22 -21.75,-6.22l-25.45 0 0 47.87 25.45 0z"/>
  <path id="2" fill="#666666" fill-rule="nonzero" d="M2373.81 114.36c12.22,0 21.8,2.92 28.73,8.76 6.93,5.83 10.39,13.86 10.39,24.08 0,10.21 -3.46,18.21 -10.39,24 -6.93,5.79 -16.51,8.69 -28.73,8.69l-25.71 0 0 30.23 -10.12 0 0 -95.75 35.84 0zm-0.27 56.63c9.48,0 16.73,-2.07 21.75,-6.22 5.01,-4.15 7.52,-10.01 7.52,-17.58 0,-7.75 -2.51,-13.7 -7.52,-17.85 -5.02,-4.15 -12.27,-6.22 -21.75,-6.22l-25.45 0 0 47.87 25.45 0z"/>
  <g id="_2503160228944">
   <path fill="#18388F" fill-rule="nonzero" d="M1226.84 229.47c-12.38,0 -23.54,-3.05 -33.49,-9.15 -9.95,-6.1 -17.8,-14.93 -23.54,-26.5 -5.74,-11.57 -8.61,-25.24 -8.61,-41.03 0,-27.26 5.83,-52.5 17.48,-75.73 11.66,-23.22 28.87,-41.88 51.65,-55.95 22.78,-14.08 50.12,-21.12 82.05,-21.12 8.25,0 17.08,0.63 26.5,1.89 9.41,1.26 17.98,3.14 25.69,5.65 5.02,1.44 7.53,5.02 7.53,10.76 0,4.67 -1.75,9.06 -5.25,13.18 -3.5,4.12 -7.58,6.19 -12.24,6.19 -1.43,0 -2.51,-0.09 -3.23,-0.27 -9.33,-2.15 -17.31,-3.72 -23.94,-4.71 -6.63,-0.99 -13.63,-1.48 -20.98,-1.48 -22.78,0 -42.15,5.51 -58.11,16.54 -15.96,11.03 -27.89,25.6 -35.78,43.72 -7.89,18.11 -11.83,37.66 -11.83,58.65 0,15.24 3,27.03 9.01,35.37 6.01,8.34 13.85,12.51 23.54,12.51 10.94,0 20.53,-4.48 28.78,-13.45 8.25,-8.97 15.79,-23.5 22.6,-43.58 6.82,-20.09 13.54,-47.34 20.18,-81.78 1.08,-5.02 3.23,-8.43 6.45,-10.23 3.23,-1.79 7.53,-2.69 12.91,-2.69 12.73,0 19.1,4.13 19.1,12.38 0,1.43 -0.27,3.23 -0.81,5.38 -4.66,17.4 -8.92,36.63 -12.78,57.71 -3.86,21.07 -5.78,37.08 -5.78,48.02 0,9.69 1.43,16.73 4.3,21.12 2.87,4.4 7.26,6.59 13.18,6.59 5.74,0 11.21,-1.93 16.41,-5.78 5.2,-3.86 11.75,-10.44 19.64,-19.77 2.15,-2.51 4.57,-3.77 7.26,-3.77 2.33,0 4.17,1.08 5.51,3.23 1.35,2.15 2.02,5.11 2.02,8.88 0,6.99 -1.7,12.55 -5.11,16.68 -8.79,10.58 -17.39,18.65 -25.82,24.21 -8.43,5.56 -18.74,8.34 -30.94,8.34 -12.55,0 -22.68,-3.63 -30.4,-10.9 -7.71,-7.26 -12.55,-17.53 -14.53,-30.8 -13.27,27.8 -32.82,41.7 -58.64,41.7z"/>
   <path fill="#666666" fill-rule="nonzero" d="M1064.82 271.55c6.79,0 12.01,1.7 15.64,5.1 3.62,3.4 5.44,8.43 5.44,15.09l0 32.26 -6.73 0 0 -8.12c-1.58,2.71 -3.91,4.82 -6.98,6.34 -3.07,1.52 -6.72,2.27 -10.94,2.27 -5.8,0 -10.42,-1.38 -13.85,-4.15 -3.43,-2.77 -5.14,-6.43 -5.14,-10.98 0,-4.42 1.6,-7.98 4.8,-10.69 3.2,-2.71 8.29,-4.06 15.29,-4.06l16.53 0 0 -3.17c0,-4.48 -1.26,-7.9 -3.76,-10.24 -2.51,-2.34 -6.17,-3.52 -10.98,-3.52 -3.3,0 -6.46,0.54 -9.5,1.63 -3.04,1.09 -5.64,2.59 -7.82,4.5l-3.16 -5.25c2.64,-2.24 5.8,-3.97 9.5,-5.2 3.69,-1.22 7.59,-1.83 11.68,-1.83zm-2.47 47.4c3.96,0 7.35,-0.9 10.19,-2.72 2.84,-1.81 4.95,-4.43 6.34,-7.87l0 -8.51 -16.33 0c-8.91,0 -13.36,3.1 -13.36,9.3 0,3.04 1.15,5.43 3.46,7.18 2.31,1.75 5.54,2.62 9.7,2.62z"/>
   <polygon id="1" fill="#666666" fill-rule="nonzero" points="1124.29,297.87 1112.02,309.15 1112.02,324 1104.99,324 1104.99,250.57 1112.02,250.57 1112.02,300.34 1143.09,271.95 1151.8,271.95 1129.53,293.22 1153.87,324 1145.27,324 "/>
   <path id="2" fill="#666666" fill-rule="nonzero" d="M1170.4 282.14c1.65,-3.5 4.11,-6.14 7.37,-7.92 3.26,-1.78 7.3,-2.67 12.12,-2.67l0 6.83 -1.68 -0.1c-5.48,0 -9.76,1.68 -12.86,5.05 -3.1,3.36 -4.65,8.08 -4.65,14.15l0 26.52 -7.03 0 0 -52.05 6.73 0 0 10.19z"/>
   <path id="3" fill="#666666" fill-rule="nonzero" d="M1247.39 300.15l-43.54 0c0.4,5.41 2.47,9.78 6.24,13.11 3.76,3.33 8.51,5 14.25,5 3.23,0 6.2,-0.58 8.91,-1.73 2.71,-1.15 5.05,-2.85 7.03,-5.09l3.96 4.55c-2.31,2.77 -5.2,4.88 -8.66,6.33 -3.46,1.45 -7.28,2.18 -11.43,2.18 -5.35,0 -10.08,-1.14 -14.2,-3.41 -4.12,-2.28 -7.34,-5.43 -9.65,-9.45 -2.31,-4.02 -3.46,-8.57 -3.46,-13.65 0,-5.08 1.1,-9.63 3.31,-13.65 2.21,-4.03 5.25,-7.16 9.11,-9.4 3.86,-2.24 8.19,-3.36 13.01,-3.36 4.82,0 9.14,1.12 12.96,3.36 3.83,2.25 6.83,5.36 9,9.35 2.18,3.99 3.27,8.56 3.27,13.7l-0.1 2.18zm-25.14 -22.57c-5.01,0 -9.22,1.6 -12.62,4.8 -3.4,3.2 -5.33,7.37 -5.79,12.52l36.91 0c-0.46,-5.14 -2.39,-9.32 -5.79,-12.52 -3.4,-3.2 -7.64,-4.8 -12.72,-4.8z"/>
   <path id="4" fill="#666666" fill-rule="nonzero" d="M1309.34 250.57l0 73.42 -6.73 0 0 -10.29c-2.11,3.5 -4.9,6.17 -8.36,8.01 -3.46,1.85 -7.37,2.77 -11.72,2.77 -4.88,0 -9.3,-1.12 -13.26,-3.36 -3.96,-2.24 -7.06,-5.37 -9.3,-9.4 -2.24,-4.02 -3.36,-8.61 -3.36,-13.75 0,-5.14 1.12,-9.73 3.36,-13.75 2.25,-4.03 5.35,-7.14 9.3,-9.35 3.96,-2.21 8.38,-3.31 13.26,-3.31 4.22,0 8.03,0.88 11.43,2.62 3.4,1.75 6.19,4.3 8.36,7.67l0 -31.27 7.03 0zm-26.22 67.69c3.62,0 6.91,-0.84 9.84,-2.52 2.94,-1.68 5.25,-4.07 6.93,-7.18 1.68,-3.1 2.52,-6.63 2.52,-10.59 0,-3.96 -0.84,-7.49 -2.52,-10.59 -1.68,-3.1 -3.99,-5.5 -6.93,-7.18 -2.94,-1.68 -6.22,-2.52 -9.84,-2.52 -3.7,0 -7.01,0.84 -9.95,2.52 -2.94,1.68 -5.25,4.07 -6.93,7.18 -1.68,3.1 -2.52,6.63 -2.52,10.59 0,3.96 0.84,7.49 2.52,10.59 1.68,3.1 3.99,5.49 6.93,7.18 2.94,1.68 6.25,2.52 9.95,2.52z"/>
   <path id="5" fill="#666666" fill-rule="nonzero" d="M1328.93 271.95l7.03 0 0 52.05 -7.03 0 0 -52.05zm3.56 -11.38c-1.45,0 -2.67,-0.49 -3.66,-1.48 -0.99,-0.99 -1.48,-2.18 -1.48,-3.56 0,-1.32 0.5,-2.47 1.48,-3.46 0.99,-0.99 2.21,-1.48 3.66,-1.48 1.45,0 2.68,0.47 3.66,1.43 0.99,0.96 1.49,2.1 1.49,3.41 0,1.45 -0.5,2.67 -1.49,3.66 -0.99,0.99 -2.21,1.48 -3.66,1.48z"/>
   <path id="6" fill="#666666" fill-rule="nonzero" d="M1382.96 320.83c-1.32,1.19 -2.95,2.1 -4.9,2.72 -1.95,0.63 -3.98,0.94 -6.09,0.94 -4.88,0 -8.64,-1.32 -11.28,-3.96 -2.64,-2.64 -3.96,-6.36 -3.96,-11.18l0 -31.47 -9.3 0 0 -5.94 9.3 0 0 -11.38 7.03 0 0 11.38 15.84 0 0 5.94 -15.84 0 0 31.07c0,3.1 0.78,5.46 2.33,7.08 1.55,1.62 3.78,2.42 6.68,2.42 1.45,0 2.85,-0.23 4.2,-0.69 1.35,-0.46 2.52,-1.12 3.52,-1.98l2.47 5.04z"/>
   <path id="7" fill="#666666" fill-rule="nonzero" d="M1413.94 271.55c6.79,0 12.01,1.7 15.64,5.1 3.62,3.4 5.44,8.43 5.44,15.09l0 32.26 -6.73 0 0 -8.12c-1.58,2.71 -3.91,4.82 -6.98,6.34 -3.07,1.52 -6.72,2.27 -10.94,2.27 -5.8,0 -10.42,-1.38 -13.85,-4.15 -3.43,-2.77 -5.14,-6.43 -5.14,-10.98 0,-4.42 1.6,-7.98 4.8,-10.69 3.2,-2.71 8.29,-4.06 15.29,-4.06l16.53 0 0 -3.17c0,-4.48 -1.26,-7.9 -3.76,-10.24 -2.51,-2.34 -6.17,-3.52 -10.98,-3.52 -3.3,0 -6.46,0.54 -9.5,1.63 -3.04,1.09 -5.64,2.59 -7.82,4.5l-3.16 -5.25c2.64,-2.24 5.8,-3.97 9.5,-5.2 3.69,-1.22 7.59,-1.83 11.68,-1.83zm-2.47 47.4c3.96,0 7.35,-0.9 10.19,-2.72 2.84,-1.81 4.95,-4.43 6.34,-7.87l0 -8.51 -16.33 0c-8.91,0 -13.36,3.1 -13.36,9.3 0,3.04 1.15,5.43 3.46,7.18 2.31,1.75 5.54,2.62 9.7,2.62z"/>
   <path id="8" fill="#666666" fill-rule="nonzero" d="M1468.06 324.49c-4.22,0 -8.26,-0.61 -12.12,-1.83 -3.86,-1.22 -6.88,-2.75 -9.05,-4.6l3.16 -5.54c2.18,1.72 4.92,3.12 8.21,4.21 3.3,1.09 6.73,1.63 10.29,1.63 4.75,0 8.26,-0.74 10.54,-2.22 2.28,-1.48 3.41,-3.58 3.41,-6.29 0,-1.91 -0.63,-3.41 -1.88,-4.5 -1.25,-1.09 -2.83,-1.91 -4.75,-2.47 -1.91,-0.56 -4.46,-1.1 -7.62,-1.63 -4.22,-0.79 -7.62,-1.6 -10.19,-2.42 -2.57,-0.82 -4.77,-2.23 -6.58,-4.2 -1.82,-1.98 -2.73,-4.72 -2.73,-8.21 0,-4.36 1.82,-7.92 5.45,-10.69 3.63,-2.77 8.67,-4.16 15.14,-4.16 3.36,0 6.73,0.45 10.09,1.34 3.36,0.89 6.14,2.06 8.31,3.51l-3.07 5.64c-4.29,-2.97 -9.4,-4.46 -15.34,-4.46 -4.48,0 -7.87,0.79 -10.14,2.38 -2.27,1.58 -3.41,3.66 -3.41,6.23 0,1.98 0.64,3.57 1.93,4.75 1.29,1.19 2.89,2.06 4.8,2.62 1.91,0.56 4.55,1.14 7.92,1.73 4.15,0.79 7.49,1.58 9.99,2.37 2.51,0.79 4.65,2.15 6.43,4.06 1.78,1.91 2.67,4.55 2.67,7.92 0,4.55 -1.89,8.16 -5.69,10.83 -3.79,2.68 -9.05,4.01 -15.79,4.01z"/>
   <path id="9" fill="#666666" fill-rule="nonzero" d="M1502.5 271.95l7.03 0 0 52.05 -7.03 0 0 -52.05zm3.56 -11.38c-1.45,0 -2.67,-0.49 -3.66,-1.48 -0.99,-0.99 -1.48,-2.18 -1.48,-3.56 0,-1.32 0.5,-2.47 1.48,-3.46 0.99,-0.99 2.21,-1.48 3.66,-1.48 1.45,0 2.68,0.47 3.66,1.43 0.99,0.96 1.49,2.1 1.49,3.41 0,1.45 -0.5,2.67 -1.49,3.66 -0.99,0.99 -2.21,1.48 -3.66,1.48z"/>
   <path id="10" fill="none" fill-rule="nonzero" stroke="#B3B3B3" stroke-width="3.48" stroke-miterlimit="2.61313" d="M1064.82 271.55c6.79,0 12.01,1.7 15.64,5.1 3.62,3.4 5.44,8.43 5.44,15.09l0 32.26 -6.73 0 0 -8.12c-1.58,2.71 -3.91,4.82 -6.98,6.34 -3.07,1.52 -6.72,2.27 -10.94,2.27 -5.8,0 -10.42,-1.38 -13.85,-4.15 -3.43,-2.77 -5.14,-6.43 -5.14,-10.98 0,-4.42 1.6,-7.98 4.8,-10.69 3.2,-2.71 8.29,-4.06 15.29,-4.06l16.53 0 0 -3.17c0,-4.48 -1.26,-7.9 -3.76,-10.24 -2.51,-2.34 -6.17,-3.52 -10.98,-3.52 -3.3,0 -6.46,0.54 -9.5,1.63 -3.04,1.09 -5.64,2.59 -7.82,4.5l-3.16 -5.25c2.64,-2.24 5.8,-3.97 9.5,-5.2 3.69,-1.22 7.59,-1.83 11.68,-1.83zm-2.47 47.4c3.96,0 7.35,-0.9 10.19,-2.72 2.84,-1.81 4.95,-4.43 6.34,-7.87l0 -8.51 -16.33 0c-8.91,0 -13.36,3.1 -13.36,9.3 0,3.04 1.15,5.43 3.46,7.18 2.31,1.75 5.54,2.62 9.7,2.62z"/>
   <polygon id="11" fill="none" fill-rule="nonzero" stroke="#B3B3B3" stroke-width="3.48" stroke-miterlimit="2.61313" points="1124.29,297.87 1112.02,309.15 1112.02,324 1104.99,324 1104.99,250.57 1112.02,250.57 1112.02,300.34 1143.09,271.95 1151.8,271.95 1129.53,293.22 1153.87,324 1145.27,324 "/>
   <path id="12" fill="none" fill-rule="nonzero" stroke="#B3B3B3" stroke-width="3.48" stroke-miterlimit="2.61313" d="M1170.4 282.14c1.65,-3.5 4.11,-6.14 7.37,-7.92 3.26,-1.78 7.3,-2.67 12.12,-2.67l0 6.83 -1.68 -0.1c-5.48,0 -9.76,1.68 -12.86,5.05 -3.1,3.36 -4.65,8.08 -4.65,14.15l0 26.52 -7.03 0 0 -52.05 6.73 0 0 10.19z"/>
   <path id="13" fill="none" fill-rule="nonzero" stroke="#B3B3B3" stroke-width="3.48" stroke-miterlimit="2.61313" d="M1247.39 300.15l-43.54 0c0.4,5.41 2.47,9.78 6.24,13.11 3.76,3.33 8.51,5 14.25,5 3.23,0 6.2,-0.58 8.91,-1.73 2.71,-1.15 5.05,-2.85 7.03,-5.09l3.96 4.55c-2.31,2.77 -5.2,4.88 -8.66,6.33 -3.46,1.45 -7.28,2.18 -11.43,2.18 -5.35,0 -10.08,-1.14 -14.2,-3.41 -4.12,-2.28 -7.34,-5.43 -9.65,-9.45 -2.31,-4.02 -3.46,-8.57 -3.46,-13.65 0,-5.08 1.1,-9.63 3.31,-13.65 2.21,-4.03 5.25,-7.16 9.11,-9.4 3.86,-2.24 8.19,-3.36 13.01,-3.36 4.82,0 9.14,1.12 12.96,3.36 3.83,2.25 6.83,5.36 9,9.35 2.18,3.99 3.27,8.56 3.27,13.7l-0.1 2.18zm-25.14 -22.57c-5.01,0 -9.22,1.6 -12.62,4.8 -3.4,3.2 -5.33,7.37 -5.79,12.52l36.91 0c-0.46,-5.14 -2.39,-9.32 -5.79,-12.52 -3.4,-3.2 -7.64,-4.8 -12.72,-4.8z"/>
   <path id="14" fill="none" fill-rule="nonzero" stroke="#B3B3B3" stroke-width="3.48" stroke-miterlimit="2.61313" d="M1309.34 250.57l0 73.42 -6.73 0 0 -10.29c-2.11,3.5 -4.9,6.17 -8.36,8.01 -3.46,1.85 -7.37,2.77 -11.72,2.77 -4.88,0 -9.3,-1.12 -13.26,-3.36 -3.96,-2.24 -7.06,-5.37 -9.3,-9.4 -2.24,-4.02 -3.36,-8.61 -3.36,-13.75 0,-5.14 1.12,-9.73 3.36,-13.75 2.25,-4.03 5.35,-7.14 9.3,-9.35 3.96,-2.21 8.38,-3.31 13.26,-3.31 4.22,0 8.03,0.88 11.43,2.62 3.4,1.75 6.19,4.3 8.36,7.67l0 -31.27 7.03 0zm-26.22 67.69c3.62,0 6.91,-0.84 9.84,-2.52 2.94,-1.68 5.25,-4.07 6.93,-7.18 1.68,-3.1 2.52,-6.63 2.52,-10.59 0,-3.96 -0.84,-7.49 -2.52,-10.59 -1.68,-3.1 -3.99,-5.5 -6.93,-7.18 -2.94,-1.68 -6.22,-2.52 -9.84,-2.52 -3.7,0 -7.01,0.84 -9.95,2.52 -2.94,1.68 -5.25,4.07 -6.93,7.18 -1.68,3.1 -2.52,6.63 -2.52,10.59 0,3.96 0.84,7.49 2.52,10.59 1.68,3.1 3.99,5.49 6.93,7.18 2.94,1.68 6.25,2.52 9.95,2.52z"/>
   <path id="15" fill="none" fill-rule="nonzero" stroke="#B3B3B3" stroke-width="3.48" stroke-miterlimit="2.61313" d="M1328.93 271.95l7.03 0 0 52.05 -7.03 0 0 -52.05zm3.56 -11.38c-1.45,0 -2.67,-0.49 -3.66,-1.48 -0.99,-0.99 -1.48,-2.18 -1.48,-3.56 0,-1.32 0.5,-2.47 1.48,-3.46 0.99,-0.99 2.21,-1.48 3.66,-1.48 1.45,0 2.68,0.47 3.66,1.43 0.99,0.96 1.49,2.1 1.49,3.41 0,1.45 -0.5,2.67 -1.49,3.66 -0.99,0.99 -2.21,1.48 -3.66,1.48z"/>
   <path id="16" fill="none" fill-rule="nonzero" stroke="#B3B3B3" stroke-width="3.48" stroke-miterlimit="2.61313" d="M1382.96 320.83c-1.32,1.19 -2.95,2.1 -4.9,2.72 -1.95,0.63 -3.98,0.94 -6.09,0.94 -4.88,0 -8.64,-1.32 -11.28,-3.96 -2.64,-2.64 -3.96,-6.36 -3.96,-11.18l0 -31.47 -9.3 0 0 -5.94 9.3 0 0 -11.38 7.03 0 0 11.38 15.84 0 0 5.94 -15.84 0 0 31.07c0,3.1 0.78,5.46 2.33,7.08 1.55,1.62 3.78,2.42 6.68,2.42 1.45,0 2.85,-0.23 4.2,-0.69 1.35,-0.46 2.52,-1.12 3.52,-1.98l2.47 5.04z"/>
   <path id="17" fill="none" fill-rule="nonzero" stroke="#B3B3B3" stroke-width="3.48" stroke-miterlimit="2.61313" d="M1413.94 271.55c6.79,0 12.01,1.7 15.64,5.1 3.62,3.4 5.44,8.43 5.44,15.09l0 32.26 -6.73 0 0 -8.12c-1.58,2.71 -3.91,4.82 -6.98,6.34 -3.07,1.52 -6.72,2.27 -10.94,2.27 -5.8,0 -10.42,-1.38 -13.85,-4.15 -3.43,-2.77 -5.14,-6.43 -5.14,-10.98 0,-4.42 1.6,-7.98 4.8,-10.69 3.2,-2.71 8.29,-4.06 15.29,-4.06l16.53 0 0 -3.17c0,-4.48 -1.26,-7.9 -3.76,-10.24 -2.51,-2.34 -6.17,-3.52 -10.98,-3.52 -3.3,0 -6.46,0.54 -9.5,1.63 -3.04,1.09 -5.64,2.59 -7.82,4.5l-3.16 -5.25c2.64,-2.24 5.8,-3.97 9.5,-5.2 3.69,-1.22 7.59,-1.83 11.68,-1.83zm-2.47 47.4c3.96,0 7.35,-0.9 10.19,-2.72 2.84,-1.81 4.95,-4.43 6.34,-7.87l0 -8.51 -16.33 0c-8.91,0 -13.36,3.1 -13.36,9.3 0,3.04 1.15,5.43 3.46,7.18 2.31,1.75 5.54,2.62 9.7,2.62z"/>
   <path id="18" fill="none" fill-rule="nonzero" stroke="#B3B3B3" stroke-width="3.48" stroke-miterlimit="2.61313" d="M1468.06 324.49c-4.22,0 -8.26,-0.61 -12.12,-1.83 -3.86,-1.22 -6.88,-2.75 -9.05,-4.6l3.16 -5.54c2.18,1.72 4.92,3.12 8.21,4.21 3.3,1.09 6.73,1.63 10.29,1.63 4.75,0 8.26,-0.74 10.54,-2.22 2.28,-1.48 3.41,-3.58 3.41,-6.29 0,-1.91 -0.63,-3.41 -1.88,-4.5 -1.25,-1.09 -2.83,-1.91 -4.75,-2.47 -1.91,-0.56 -4.46,-1.1 -7.62,-1.63 -4.22,-0.79 -7.62,-1.6 -10.19,-2.42 -2.57,-0.82 -4.77,-2.23 -6.58,-4.2 -1.82,-1.98 -2.73,-4.72 -2.73,-8.21 0,-4.36 1.82,-7.92 5.45,-10.69 3.63,-2.77 8.67,-4.16 15.14,-4.16 3.36,0 6.73,0.45 10.09,1.34 3.36,0.89 6.14,2.06 8.31,3.51l-3.07 5.64c-4.29,-2.97 -9.4,-4.46 -15.34,-4.46 -4.48,0 -7.87,0.79 -10.14,2.38 -2.27,1.58 -3.41,3.66 -3.41,6.23 0,1.98 0.64,3.57 1.93,4.75 1.29,1.19 2.89,2.06 4.8,2.62 1.91,0.56 4.55,1.14 7.92,1.73 4.15,0.79 7.49,1.58 9.99,2.37 2.51,0.79 4.65,2.15 6.43,4.06 1.78,1.91 2.67,4.55 2.67,7.92 0,4.55 -1.89,8.16 -5.69,10.83 -3.79,2.68 -9.05,4.01 -15.79,4.01z"/>
   <path id="19" fill="none" fill-rule="nonzero" stroke="#B3B3B3" stroke-width="3.48" stroke-miterlimit="2.61313" d="M1502.5 271.95l7.03 0 0 52.05 -7.03 0 0 -52.05zm3.56 -11.38c-1.45,0 -2.67,-0.49 -3.66,-1.48 -0.99,-0.99 -1.48,-2.18 -1.48,-3.56 0,-1.32 0.5,-2.47 1.48,-3.46 0.99,-0.99 2.21,-1.48 3.66,-1.48 1.45,0 2.68,0.47 3.66,1.43 0.99,0.96 1.49,2.1 1.49,3.41 0,1.45 -0.5,2.67 -1.49,3.66 -0.99,0.99 -2.21,1.48 -3.66,1.48z"/>
  </g>
  <rect fill="#18388F" transform="matrix(0.607516 -0.000199056 0.00164668 0.372736 2621.58 244.081)" width="1209.97" height="32.79" rx="11.6" ry="11.6"/>
  <polygon fill="#18388F" fill-rule="nonzero" points="2619.73,74.93 2645.71,74.93 2645.71,166 2701.99,166 2701.99,187.17 2619.73,187.17 "/>
  <polygon id="1" fill="#18388F" fill-rule="nonzero" points="2757.47,143.07 2742.4,158.79 2742.4,187.17 2716.58,187.17 2716.58,74.93 2742.4,74.93 2742.4,127.36 2792.11,74.93 2820.97,74.93 2774.47,124.95 2823.7,187.17 2793.39,187.17 "/>
  <path id="2" fill="#18388F" fill-rule="nonzero" d="M2869.72 189.09c-8.87,0 -17.45,-1.2 -25.73,-3.61 -8.29,-2.41 -14.94,-5.53 -19.97,-9.38l8.82 -19.56c4.81,3.53 10.53,6.36 17.16,8.5 6.63,2.14 13.25,3.2 19.88,3.2 7.38,0 12.83,-1.1 16.36,-3.29 3.53,-2.19 5.29,-5.1 5.29,-8.74 0,-2.68 -1.04,-4.89 -3.13,-6.66 -2.08,-1.76 -4.76,-3.18 -8.02,-4.25 -3.26,-1.07 -7.67,-2.24 -13.23,-3.52 -8.55,-2.03 -15.55,-4.06 -21,-6.09 -5.46,-2.03 -10.13,-5.29 -14.03,-9.78 -3.9,-4.49 -5.85,-10.48 -5.85,-17.96 0,-6.52 1.77,-12.43 5.29,-17.72 3.53,-5.29 8.85,-9.49 15.95,-12.59 7.11,-3.1 15.8,-4.65 26.06,-4.65 7.16,0 14.17,0.85 21,2.57 6.84,1.71 12.83,4.17 17.96,7.38l-8.02 19.72c-10.37,-5.88 -20.74,-8.82 -31.11,-8.82 -7.27,0 -12.64,1.18 -16.11,3.53 -3.47,2.35 -5.21,5.45 -5.21,9.3 0,3.85 2,6.71 6.02,8.58 4.01,1.87 10.13,3.72 18.36,5.53 8.55,2.03 15.55,4.06 21.01,6.09 5.45,2.03 10.13,5.24 14.03,9.62 3.9,4.38 5.85,10.31 5.85,17.79 0,6.41 -1.79,12.27 -5.37,17.56 -3.58,5.29 -8.96,9.49 -16.12,12.59 -7.16,3.1 -15.87,4.65 -26.13,4.65z"/>
  <path id="3" fill="#666666" fill-rule="nonzero" d="M3015.79 102.82l0 74.08c0,14.33 -3.5,24.93 -10.5,31.83 -7,6.9 -17.56,10.34 -31.67,10.34 -7.8,0 -15.21,-1.15 -22.2,-3.45 -7,-2.3 -12.7,-5.48 -17.08,-9.54l5.77 -8.66c4.06,3.63 9.01,6.47 14.83,8.5 5.83,2.03 11.95,3.04 18.36,3.04 10.69,0 18.55,-2.48 23.57,-7.45 5.03,-4.97 7.54,-12.7 7.54,-23.17l0 -10.74c-3.52,5.35 -8.15,9.4 -13.87,12.18 -5.72,2.78 -12.05,4.17 -19,4.17 -7.91,0 -15.1,-1.74 -21.57,-5.21 -6.46,-3.47 -11.55,-8.34 -15.23,-14.59 -3.69,-6.25 -5.53,-13.34 -5.53,-21.25 0,-7.91 1.84,-14.97 5.53,-21.17 3.68,-6.2 8.74,-11.01 15.15,-14.43 6.41,-3.42 13.63,-5.13 21.65,-5.13 7.16,0 13.63,1.44 19.4,4.33 5.77,2.89 10.42,7.06 13.95,12.51l0 -16.2 10.9 0zm-43.13 71.04c6.09,0 11.6,-1.31 16.51,-3.93 4.92,-2.62 8.74,-6.28 11.47,-10.98 2.73,-4.7 4.09,-10.05 4.09,-16.03 0,-5.99 -1.36,-11.31 -4.09,-15.95 -2.73,-4.65 -6.52,-8.29 -11.39,-10.91 -4.86,-2.62 -10.39,-3.93 -16.59,-3.93 -6.09,0 -11.57,1.28 -16.44,3.85 -4.86,2.57 -8.66,6.2 -11.39,10.9 -2.73,4.7 -4.09,10.05 -4.09,16.04 0,5.98 1.36,11.33 4.09,16.03 2.73,4.7 6.52,8.36 11.39,10.98 4.87,2.62 10.34,3.93 16.44,3.93z"/>
  <path id="4" fill="#666666" fill-rule="nonzero" d="M3058.61 119.34c2.67,-5.67 6.66,-9.94 11.95,-12.83 5.29,-2.89 11.84,-4.33 19.64,-4.33l0 11.06 -2.73 -0.16c-8.87,0 -15.82,2.73 -20.84,8.18 -5.02,5.45 -7.54,13.09 -7.54,22.93l0 42.97 -11.39 0 0 -84.34 10.91 0 0 16.52z"/>
  <path id="5" fill="#666666" fill-rule="nonzero" d="M3140.06 102.18c11.01,0 19.46,2.75 25.34,8.26 5.88,5.51 8.82,13.65 8.82,24.45l0 52.27 -10.91 0 0 -13.15c-2.57,4.38 -6.33,7.8 -11.3,10.26 -4.97,2.46 -10.87,3.69 -17.72,3.69 -9.41,0 -16.89,-2.25 -22.45,-6.74 -5.56,-4.49 -8.34,-10.42 -8.34,-17.79 0,-7.16 2.59,-12.94 7.77,-17.32 5.19,-4.38 13.44,-6.57 24.77,-6.57l26.78 0 0 -5.13c0,-7.27 -2.03,-12.8 -6.09,-16.6 -4.06,-3.79 -9.99,-5.69 -17.8,-5.69 -5.34,0 -10.47,0.88 -15.39,2.64 -4.92,1.76 -9.14,4.2 -12.66,7.29l-5.13 -8.5c4.27,-3.64 9.4,-6.44 15.39,-8.42 5.98,-1.98 12.29,-2.97 18.92,-2.97zm-4.01 76.81c6.41,0 11.92,-1.47 16.52,-4.41 4.6,-2.94 8.02,-7.19 10.26,-12.75l0 -13.79 -26.46 0c-14.43,0 -21.64,5.02 -21.64,15.07 0,4.92 1.87,8.79 5.61,11.63 3.74,2.83 8.98,4.25 15.71,4.25z"/>
  <path id="6" fill="#666666" fill-rule="nonzero" d="M3249.58 182.04c-2.14,1.93 -4.78,3.39 -7.94,4.41 -3.15,1.01 -6.44,1.52 -9.86,1.52 -7.91,0 -14,-2.14 -18.28,-6.41 -4.28,-4.28 -6.41,-10.32 -6.41,-18.12l0 -50.99 -15.07 0 0 -9.62 15.07 0 0 -18.44 11.39 0 0 18.44 25.66 0 0 9.62 -25.66 0 0 50.35c0,5.03 1.26,8.85 3.77,11.46 2.51,2.62 6.12,3.93 10.82,3.93 2.35,0 4.62,-0.37 6.82,-1.12 2.19,-0.75 4.09,-1.82 5.69,-3.2l4.01 8.18z"/>
  <path id="7" fill="#666666" fill-rule="nonzero" d="M3270.27 102.82l11.39 0 0 84.34 -11.39 0 0 -84.34zm5.77 -18.44c-2.35,0 -4.33,-0.8 -5.93,-2.41 -1.6,-1.6 -2.41,-3.53 -2.41,-5.77 0,-2.14 0.8,-4.01 2.41,-5.62 1.6,-1.6 3.58,-2.41 5.93,-2.41 2.35,0 4.33,0.78 5.93,2.33 1.61,1.55 2.41,3.39 2.41,5.53 0,2.36 -0.8,4.33 -2.41,5.93 -1.6,1.6 -3.58,2.41 -5.93,2.41z"/>
  <path id="8" fill="#666666" fill-rule="nonzero" d="M3336.02 187.97c-6.84,0 -13.39,-0.99 -19.64,-2.97 -6.25,-1.98 -11.14,-4.46 -14.67,-7.45l5.13 -8.98c3.53,2.78 7.97,5.05 13.31,6.81 5.34,1.77 10.9,2.65 16.68,2.65 7.7,0 13.39,-1.21 17.07,-3.61 3.69,-2.41 5.53,-5.8 5.53,-10.18 0,-3.1 -1.01,-5.53 -3.04,-7.29 -2.03,-1.76 -4.6,-3.1 -7.7,-4.01 -3.1,-0.91 -7.22,-1.79 -12.35,-2.65 -6.84,-1.28 -12.34,-2.59 -16.52,-3.93 -4.17,-1.34 -7.72,-3.61 -10.66,-6.82 -2.94,-3.21 -4.41,-7.64 -4.41,-13.31 0,-7.06 2.94,-12.83 8.82,-17.32 5.88,-4.49 14.06,-6.73 24.54,-6.73 5.45,0 10.9,0.72 16.35,2.16 5.46,1.44 9.94,3.34 13.47,5.69l-4.97 9.14c-6.95,-4.81 -15.23,-7.22 -24.85,-7.22 -7.27,0 -12.75,1.28 -16.44,3.85 -3.69,2.57 -5.53,5.93 -5.53,10.1 0,3.21 1.05,5.77 3.13,7.7 2.09,1.93 4.68,3.34 7.78,4.25 3.1,0.91 7.38,1.84 12.83,2.81 6.73,1.28 12.13,2.57 16.2,3.85 4.06,1.28 7.53,3.47 10.42,6.57 2.89,3.1 4.33,7.38 4.33,12.83 0,7.38 -3.07,13.23 -9.22,17.56 -6.14,4.33 -14.67,6.5 -25.57,6.5z"/>
 </g>
</svg>
