<?xml version="1.0" encoding="UTF-8"?>
<!DOCTYPE svg PUBLIC "-//W3C//DTD SVG 1.1//EN" "http://www.w3.org/Graphics/SVG/1.1/DTD/svg11.dtd">
<!-- Creator: CorelDRAW 2020 (64-Bit) -->
<svg xmlns="http://www.w3.org/2000/svg" xml:space="preserve" width="2.90707in" height="0.279866in" version="1.1" shape-rendering="geometricPrecision" text-rendering="geometricPrecision" image-rendering="optimizeQuality" fill-rule="evenodd" clip-rule="evenodd"
viewBox="0 0 2653.97 255.5"
 xmlns:xlink="http://www.w3.org/1999/xlink"
 xmlns:xodm="http://www.corel.com/coreldraw/odm/2003">
 <g id="Layer_x0020_1">
  <metadata id="CorelCorpID_0Corel-Layer"/>
  <g id="_2411593578048">
   <path fill="#B3B3B3" fill-rule="nonzero" d="M102.59 39.18c8.42,0 15.21,2.52 20.39,7.57 5.17,5.05 7.76,12.54 7.76,22.48l0 38.88 -19.7 0 0 -35.86c0,-5.38 -1.18,-9.41 -3.54,-12.06 -2.35,-2.65 -5.76,-3.98 -10.23,-3.98 -4.97,0 -8.93,1.53 -11.86,4.6 -2.94,3.07 -4.42,7.64 -4.42,13.7l0 33.58 -19.69 0 0 -67.92 18.81 0 0 7.95c2.61,-2.86 5.85,-5.07 9.72,-6.63 3.87,-1.56 8.13,-2.34 12.76,-2.34l0.01 0.02z"/>
   <path id="_1" fill="#B3B3B3" fill-rule="nonzero" d="M181.61 109.13c-7.15,0 -13.57,-1.5 -19.26,-4.48 -5.68,-2.98 -10.12,-7.13 -13.31,-12.44 -3.2,-5.3 -4.79,-11.32 -4.79,-18.05 0,-6.73 1.6,-12.75 4.79,-18.05 3.2,-5.31 7.64,-9.45 13.31,-12.44 5.69,-2.99 12.1,-4.48 19.26,-4.48 7.15,0 13.55,1.49 19.19,4.48 5.64,2.98 10.05,7.13 13.26,12.44 3.2,5.3 4.79,11.32 4.79,18.05 0,6.73 -1.6,12.76 -4.79,18.05 -3.2,5.31 -7.61,9.45 -13.26,12.44 -5.64,2.98 -12.04,4.48 -19.19,4.48zm0 -16.16c5.05,0 9.2,-1.7 12.44,-5.12 3.23,-3.41 4.86,-7.98 4.86,-13.7 0,-5.73 -1.62,-10.29 -4.86,-13.7 -3.25,-3.41 -7.39,-5.11 -12.44,-5.11 -5.05,0 -9.21,1.7 -12.49,5.11 -3.28,3.41 -4.92,7.98 -4.92,13.7 0,5.73 1.64,10.29 4.92,13.7 3.28,3.41 7.45,5.12 12.49,5.12z"/>
   <path id="_2" fill="#B3B3B3" fill-rule="nonzero" d="M298.27 62.17c5.05,1.6 9.01,4.27 11.86,8.02 2.86,3.75 4.3,8.35 4.3,13.83 0,7.74 -3.02,13.7 -9.03,17.86 -6.02,4.17 -14.79,6.25 -26.32,6.25l-45.7 0 0 -88.37 43.18 0c10.77,0 19.05,2.06 24.81,6.19 5.76,4.13 8.64,9.72 8.64,16.79 0,4.3 -1.03,8.13 -3.09,11.49 -2.06,3.36 -4.95,6.02 -8.64,7.95l0 0zm-44.57 -27.02l0 20.83 20.33 0c5.05,0 8.88,-0.88 11.49,-2.65 2.61,-1.77 3.91,-4.38 3.91,-7.82 0,-3.45 -1.31,-6.04 -3.91,-7.76 -2.61,-1.73 -6.44,-2.59 -11.49,-2.59l-20.33 0zm23.87 57.57c5.38,0 9.45,-0.88 12.19,-2.65 2.73,-1.77 4.1,-4.5 4.1,-8.21 0,-7.32 -5.42,-10.98 -16.28,-10.98l-23.87 0 0 21.84 23.87 0 -0.01 0z"/>
   <path id="_3" fill="#B3B3B3" fill-rule="nonzero" d="M328.57 40.2l19.69 0 0 67.92 -19.69 0 0 -67.92zm9.85 -9.47c-3.62,0 -6.57,-1.05 -8.84,-3.16 -2.28,-2.1 -3.41,-4.71 -3.41,-7.82 0,-3.12 1.13,-5.73 3.41,-7.82 2.28,-2.11 5.22,-3.16 8.84,-3.16 3.62,0 6.57,1.01 8.83,3.03 2.28,2.02 3.41,4.54 3.41,7.57 0,3.28 -1.13,6 -3.41,8.14 -2.28,2.15 -5.21,3.22 -8.83,3.22l0 -0z"/>
   <path id="_4" fill="#B3B3B3" fill-rule="nonzero" d="M393.96 39.18c10.52,0 18.6,2.51 24.24,7.51 5.64,5.01 8.46,12.56 8.46,22.66l0 38.76 -18.43 0 0 -8.46c-3.7,6.32 -10.61,9.46 -20.7,9.46 -5.22,0 -9.75,-0.88 -13.57,-2.65 -3.84,-1.76 -6.75,-4.21 -8.77,-7.32 -2.02,-3.11 -3.03,-6.65 -3.03,-10.61 0,-6.32 2.38,-11.28 7.13,-14.89 4.76,-3.62 12.1,-5.42 22.03,-5.42l15.66 0c0,-4.3 -1.31,-7.6 -3.91,-9.91 -2.61,-2.31 -6.53,-3.47 -11.74,-3.47 -3.61,0 -7.17,0.57 -10.67,1.7 -3.49,1.14 -6.46,2.68 -8.9,4.62l-7.07 -13.76c3.7,-2.61 8.14,-4.63 13.32,-6.06 5.17,-1.43 10.5,-2.15 15.97,-2.15l-0.02 0.01zm-1.51 56.69c3.36,0 6.35,-0.78 8.96,-2.34 2.61,-1.56 4.46,-3.85 5.56,-6.88l0 -6.94 -13.51 0c-8.08,0 -12.12,2.65 -12.12,7.95 0,2.52 0.99,4.52 2.97,5.99 1.98,1.47 4.69,2.21 8.14,2.21l-0 0.01z"/>
   <path id="_5" fill="#B3B3B3" fill-rule="nonzero" d="M510.62 40.2l-30.68 72.09c-3.11,7.82 -6.96,13.35 -11.55,16.53 -4.59,3.2 -10.12,4.79 -16.61,4.79 -3.54,0 -7.02,-0.54 -10.48,-1.64 -3.45,-1.09 -6.27,-2.61 -8.46,-4.54l7.2 -14.01c1.51,1.35 3.26,2.4 5.24,3.16 1.98,0.75 3.93,1.13 5.87,1.13 2.69,0 4.88,-0.65 6.57,-1.95 1.69,-1.31 3.2,-3.47 4.54,-6.5l0.25 -0.63 -29.42 -68.43 20.33 0 19.06 46.07 19.19 -46.07 18.93 0 0.02 0z"/>
   <path id="_6" fill="#B3B3B3" fill-rule="nonzero" d="M543.82 39.18c10.52,0 18.6,2.51 24.24,7.51 5.64,5.01 8.46,12.56 8.46,22.66l0 38.76 -18.43 0 0 -8.46c-3.7,6.32 -10.61,9.46 -20.7,9.46 -5.22,0 -9.75,-0.88 -13.57,-2.65 -3.84,-1.76 -6.75,-4.21 -8.77,-7.32 -2.02,-3.11 -3.03,-6.65 -3.03,-10.61 0,-6.32 2.38,-11.28 7.13,-14.89 4.76,-3.62 12.1,-5.42 22.03,-5.42l15.66 0c0,-4.3 -1.31,-7.6 -3.91,-9.91 -2.61,-2.31 -6.53,-3.47 -11.74,-3.47 -3.61,0 -7.17,0.57 -10.67,1.7 -3.49,1.14 -6.46,2.68 -8.9,4.62l-7.07 -13.76c3.7,-2.61 8.14,-4.63 13.32,-6.06 5.17,-1.43 10.5,-2.15 15.97,-2.15l-0.02 0.01zm-1.51 56.69c3.36,0 6.35,-0.78 8.96,-2.34 2.61,-1.56 4.46,-3.85 5.56,-6.88l0 -6.94 -13.51 0c-8.08,0 -12.12,2.65 -12.12,7.95 0,2.52 0.99,4.52 2.97,5.99 1.98,1.47 4.69,2.21 8.14,2.21l-0 0.01z"/>
   <path id="_7" fill="#B3B3B3" fill-rule="nonzero" d="M34.22 154.7c6.23,0 11.86,1.41 16.92,4.23 5.05,2.82 9.01,6.79 11.86,11.94 2.86,5.13 4.29,10.98 4.29,17.55 0,6.57 -1.43,12.41 -4.29,17.55 -2.86,5.13 -6.82,9.13 -11.86,11.99 -5.05,2.86 -10.69,4.3 -16.92,4.3 -5.55,0 -10.54,-1.18 -14.96,-3.54 -4.42,-2.35 -7.98,-5.76 -10.67,-10.23l0 13.13 -8.59 0 0 -93.68 8.97 0 0 39.89c2.78,-4.29 6.33,-7.56 10.67,-9.79 4.34,-2.23 9.2,-3.35 14.58,-3.35l0 -0zm-0.63 59.59c4.63,0 8.83,-1.07 12.62,-3.22 3.79,-2.15 6.75,-5.2 8.9,-9.15 2.15,-3.96 3.22,-8.46 3.22,-13.51 0,-5.05 -1.07,-9.55 -3.22,-13.51 -2.15,-3.96 -5.11,-7.01 -8.9,-9.16 -3.79,-2.15 -7.99,-3.22 -12.62,-3.22 -4.72,0 -8.94,1.07 -12.68,3.22 -3.75,2.15 -6.69,5.2 -8.84,9.16 -2.15,3.95 -3.22,8.46 -3.22,13.51 0,5.05 1.07,9.55 3.22,13.51 2.15,3.95 5.09,7.01 8.84,9.15 3.75,2.15 7.98,3.22 12.68,3.22z"/>
   <path id="_8" fill="#B3B3B3" fill-rule="nonzero" d="M108.45 154.7c8.67,0 15.32,2.16 19.95,6.5 4.63,4.34 6.94,10.75 6.94,19.25l0 41.15 -8.59 0 0 -10.36c-2.02,3.45 -4.99,6.14 -8.9,8.08 -3.91,1.94 -8.56,2.9 -13.95,2.9 -7.41,0 -13.3,-1.77 -17.68,-5.31 -4.38,-3.54 -6.57,-8.21 -6.57,-14.01 0,-5.64 2.04,-10.19 6.12,-13.64 4.09,-3.45 10.58,-5.17 19.5,-5.17l21.08 0 0 -4.04c0,-5.73 -1.6,-10.08 -4.79,-13.07 -3.2,-2.98 -7.86,-4.48 -14.01,-4.48 -4.21,0 -8.24,0.69 -12.12,2.08 -3.87,1.39 -7.2,3.31 -9.97,5.74l-4.04 -6.69c3.36,-2.86 7.4,-5.07 12.12,-6.63 4.71,-1.56 9.68,-2.34 14.89,-2.34l0 0.02zm-3.16 60.47c5.05,0 9.38,-1.16 13.01,-3.47 3.62,-2.31 6.32,-5.66 8.08,-10.04l0 -10.86 -20.83 0c-11.36,0 -17.04,3.95 -17.04,11.86 0,3.87 1.47,6.92 4.42,9.16 2.94,2.23 7.07,3.35 12.37,3.35z"/>
   <path id="_9" fill="#B3B3B3" fill-rule="nonzero" d="M193.54 154.7c8.33,0 14.96,2.42 19.88,7.26 4.92,4.84 7.39,11.89 7.39,21.15l0 38.51 -8.97 0 0 -37.62c0,-6.9 -1.73,-12.16 -5.17,-15.79 -3.45,-3.62 -8.38,-5.42 -14.77,-5.42 -7.15,0 -12.81,2.12 -16.98,6.38 -4.17,4.25 -6.25,10.12 -6.25,17.61l0 34.84 -8.97 0 0 -66.4 8.59 0 0 12.24c2.44,-4.04 5.83,-7.17 10.16,-9.4 4.34,-2.23 9.37,-3.35 15.09,-3.35l0 -0.01z"/>
   <path id="_10" fill="#B3B3B3" fill-rule="nonzero" d="M306.92 155.2l0 58.32c0,11.28 -2.76,19.63 -8.27,25.06 -5.51,5.43 -13.83,8.14 -24.93,8.14 -6.14,0 -11.98,-0.91 -17.48,-2.72 -5.51,-1.81 -10,-4.31 -13.45,-7.51l4.54 -6.82c3.2,2.86 7.1,5.09 11.68,6.69 4.59,1.6 9.41,2.39 14.46,2.39 8.42,0 14.6,-1.95 18.56,-5.87 3.96,-3.91 5.94,-10 5.94,-18.24l0 -8.46c-2.77,4.21 -6.42,7.4 -10.92,9.59 -4.5,2.19 -9.49,3.28 -14.96,3.28 -6.23,0 -11.89,-1.37 -16.98,-4.1 -5.09,-2.73 -9.09,-6.57 -11.99,-11.49 -2.9,-4.92 -4.35,-10.5 -4.35,-16.73 0,-6.23 1.45,-11.79 4.35,-16.67 2.9,-4.88 6.88,-8.67 11.93,-11.36 5.05,-2.69 10.73,-4.04 17.05,-4.04 5.64,0 10.73,1.13 15.28,3.41 4.54,2.28 8.21,5.56 10.98,9.85l0 -12.76 8.58 0 -0.01 0.01zm-33.96 55.93c4.79,0 9.13,-1.03 13,-3.09 3.87,-2.06 6.88,-4.95 9.03,-8.64 2.15,-3.7 3.22,-7.91 3.22,-12.62 0,-4.72 -1.07,-8.9 -3.22,-12.56 -2.15,-3.66 -5.13,-6.53 -8.97,-8.59 -3.83,-2.06 -8.18,-3.09 -13.06,-3.09 -4.79,0 -9.11,1.01 -12.94,3.03 -3.83,2.02 -6.82,4.88 -8.97,8.58 -2.15,3.7 -3.22,7.91 -3.22,12.63 0,4.71 1.07,8.92 3.22,12.62 2.15,3.7 5.13,6.58 8.97,8.64 3.84,2.06 8.14,3.09 12.94,3.09l-0 0z"/>
   <path id="_11" fill="#B3B3B3" fill-rule="nonzero" d="M391.88 155.2l0 66.4 -8.59 0 0 -12.12c-2.35,4.04 -5.6,7.17 -9.72,9.41 -4.13,2.23 -8.83,3.35 -14.14,3.35 -8.67,0 -15.5,-2.43 -20.51,-7.26 -5.01,-4.84 -7.51,-11.93 -7.51,-21.27l0 -38.51 8.97 0 0 37.63c0,6.98 1.73,12.28 5.17,15.9 3.45,3.62 8.38,5.43 14.77,5.43 6.98,0 12.5,-2.12 16.54,-6.38 4.04,-4.25 6.06,-10.16 6.06,-17.74l0 -34.85 8.97 0 -0.01 -0z"/>
   <path id="_12" fill="#B3B3B3" fill-rule="nonzero" d="M450.83 154.7c8.33,0 14.96,2.42 19.88,7.26 4.92,4.84 7.39,11.89 7.39,21.15l0 38.51 -8.97 0 0 -37.62c0,-6.9 -1.73,-12.16 -5.17,-15.79 -3.45,-3.62 -8.38,-5.42 -14.77,-5.42 -7.15,0 -12.81,2.12 -16.98,6.38 -4.17,4.25 -6.25,10.12 -6.25,17.61l0 34.84 -8.97 0 0 -66.4 8.59 0 0 12.24c2.44,-4.04 5.83,-7.17 10.16,-9.4 4.34,-2.23 9.37,-3.35 15.09,-3.35l0 -0.01z"/>
   <path id="_13" fill="#B3B3B3" fill-rule="nonzero" d="M525.7 154.7c8.67,0 15.32,2.16 19.95,6.5 4.63,4.34 6.94,10.75 6.94,19.25l0 41.15 -8.59 0 0 -10.36c-2.02,3.45 -4.99,6.14 -8.9,8.08 -3.91,1.94 -8.56,2.9 -13.95,2.9 -7.41,0 -13.3,-1.77 -17.68,-5.31 -4.38,-3.54 -6.57,-8.21 -6.57,-14.01 0,-5.64 2.04,-10.19 6.12,-13.64 4.09,-3.45 10.58,-5.17 19.5,-5.17l21.08 0 0 -4.04c0,-5.73 -1.6,-10.08 -4.79,-13.07 -3.2,-2.98 -7.86,-4.48 -14.01,-4.48 -4.21,0 -8.24,0.69 -12.12,2.08 -3.87,1.39 -7.2,3.31 -9.97,5.74l-4.04 -6.69c3.36,-2.86 7.4,-5.07 12.12,-6.63 4.71,-1.56 9.68,-2.34 14.89,-2.34l0 0.02zm-3.16 60.47c5.05,0 9.38,-1.16 13.01,-3.47 3.62,-2.31 6.32,-5.66 8.08,-10.04l0 -10.86 -20.83 0c-11.36,0 -17.04,3.95 -17.04,11.86 0,3.87 1.47,6.92 4.42,9.16 2.94,2.23 7.07,3.35 12.37,3.35z"/>
   <path id="_14" fill="#B3B3B3" fill-rule="nonzero" d="M610.79 154.7c8.33,0 14.96,2.42 19.88,7.26 4.92,4.84 7.39,11.89 7.39,21.15l0 38.51 -8.97 0 0 -37.62c0,-6.9 -1.73,-12.16 -5.17,-15.79 -3.45,-3.62 -8.38,-5.42 -14.77,-5.42 -7.15,0 -12.81,2.12 -16.98,6.38 -4.17,4.25 -6.25,10.12 -6.25,17.61l0 34.84 -8.97 0 0 -66.4 8.59 0 0 12.24c2.44,-4.04 5.83,-7.17 10.16,-9.4 4.34,-2.23 9.37,-3.35 15.09,-3.35l0 -0.01z"/>
   <path fill="#B3B3B3" d="M1535.85 74.13l0 0c75.71,0 137.11,24.01 137.11,53.61l0 0c0,29.6 -61.4,53.61 -137.11,53.61l0 0.01c-75.71,-0.01 -137.11,-24.02 -137.11,-53.62l0 0c0,-29.6 61.4,-53.61 137.11,-53.61z"/>
   <path fill="#B3B3B3" fill-rule="nonzero" d="M1463.67 114.11l12.14 0 0 10.56 -11.79 0 0 35.71 -13.72 0 0 -35.71 -7.3 0 0 -10.56 7.3 0 0 -2.11c0,-5.39 1.6,-9.68 4.79,-12.84 3.2,-3.17 7.7,-4.76 13.5,-4.76 2.06,0 4.01,0.22 5.85,0.66 1.85,0.44 3.39,1.07 4.62,1.89l-3.61 9.95c-1.58,-1.12 -3.43,-1.67 -5.54,-1.67 -4.17,0 -6.24,2.28 -6.24,6.86l0 2.02 -0.01 -0z"/>
   <path id="_1_0" fill="#B3B3B3" fill-rule="nonzero" d="M1502.81 119.3c1.65,-2.29 3.86,-4.01 6.65,-5.19 2.79,-1.17 6,-1.76 9.63,-1.76l0 12.67c-1.53,-0.12 -2.55,-0.17 -3.08,-0.17 -3.93,0 -7.01,1.1 -9.23,3.3 -2.23,2.2 -3.35,5.5 -3.35,9.9l0 22.35 -13.72 0 0 -47.33 13.11 0 0 6.24 -0 -0z"/>
   <path id="_2_1" fill="#B3B3B3" fill-rule="nonzero" d="M1573.18 136.89c0,0.17 -0.09,1.41 -0.26,3.69l-35.81 0c0.65,2.94 2.17,5.24 4.58,6.95 2.4,1.7 5.39,2.55 8.97,2.55 2.47,0 4.64,-0.37 6.56,-1.1 1.9,-0.73 3.68,-1.89 5.32,-3.47l7.3 7.91c-4.46,5.1 -10.97,7.65 -19.53,7.65 -5.34,0 -10.05,-1.04 -14.16,-3.13 -4.1,-2.08 -7.27,-4.97 -9.5,-8.67 -2.23,-3.69 -3.35,-7.89 -3.35,-12.58 0,-4.63 1.1,-8.81 3.3,-12.53 2.2,-3.72 5.22,-6.63 9.06,-8.71 3.84,-2.08 8.14,-3.13 12.89,-3.13 4.63,0 8.83,0.99 12.58,2.99 3.76,1.99 6.7,4.86 8.84,8.58 2.14,3.72 3.21,8.05 3.21,12.98l0.01 0.01zm-24.54 -14.16c-3.1,0 -5.71,0.88 -7.82,2.65 -2.11,1.75 -3.4,4.17 -3.87,7.21l23.31 0c-0.46,-2.99 -1.75,-5.38 -3.87,-7.17 -2.11,-1.79 -4.69,-2.68 -7.74,-2.68z"/>
   <path id="_3_2" fill="#B3B3B3" fill-rule="nonzero" d="M1628.7 136.89c0,0.17 -0.09,1.41 -0.26,3.69l-35.81 0c0.65,2.94 2.17,5.24 4.58,6.95 2.4,1.7 5.39,2.55 8.97,2.55 2.47,0 4.64,-0.37 6.56,-1.1 1.9,-0.73 3.68,-1.89 5.32,-3.47l7.3 7.91c-4.46,5.1 -10.97,7.65 -19.53,7.65 -5.34,0 -10.05,-1.04 -14.16,-3.13 -4.1,-2.08 -7.27,-4.97 -9.5,-8.67 -2.23,-3.69 -3.35,-7.89 -3.35,-12.58 0,-4.63 1.1,-8.81 3.3,-12.53 2.2,-3.72 5.22,-6.63 9.06,-8.71 3.84,-2.08 8.14,-3.13 12.89,-3.13 4.63,0 8.83,0.99 12.58,2.99 3.76,1.99 6.7,4.86 8.84,8.58 2.14,3.72 3.21,8.05 3.21,12.98l0.01 0.01zm-24.54 -14.16c-3.1,0 -5.71,0.88 -7.82,2.65 -2.11,1.75 -3.4,4.17 -3.87,7.21l23.31 0c-0.46,-2.99 -1.75,-5.38 -3.87,-7.17 -2.11,-1.79 -4.69,-2.68 -7.74,-2.68z"/>
   <path fill="#B3B3B3" fill-rule="nonzero" d="M1719.06 166.09c-5.6,0 -10.97,-0.9 -16.1,-2.69 -5.13,-1.79 -9.1,-4.17 -11.9,-7.11l3.13 -6.14c2.72,2.72 6.35,4.93 10.88,6.62 4.52,1.69 9.19,2.53 14,2.53 6.75,0 11.81,-1.24 15.19,-3.72 3.38,-2.48 5.06,-5.69 5.06,-9.64 0,-3.02 -0.91,-5.42 -2.75,-7.22 -1.83,-1.79 -4.08,-3.18 -6.73,-4.15 -2.65,-0.97 -6.35,-2.02 -11.09,-3.18 -5.67,-1.43 -10.2,-2.82 -13.56,-4.14 -3.38,-1.33 -6.27,-3.35 -8.68,-6.09 -2.4,-2.72 -3.61,-6.42 -3.61,-11.09 0,-3.8 1,-7.27 3.02,-10.39 2.01,-3.13 5.09,-5.62 9.26,-7.49 4.17,-1.87 9.33,-2.8 15.5,-2.8 4.31,0 8.53,0.59 12.65,1.78 4.13,1.18 7.7,2.82 10.71,4.9l-2.69 6.35c-3.16,-2.08 -6.53,-3.64 -10.12,-4.68 -3.59,-1.04 -7.11,-1.57 -10.56,-1.57 -6.61,0 -11.57,1.28 -14.92,3.83 -3.34,2.55 -5.01,5.83 -5.01,9.86 0,3.02 0.91,5.44 2.75,7.27 1.83,1.83 4.13,3.23 6.9,4.21 2.76,0.97 6.48,2.02 11.15,3.18 5.53,1.36 10,2.71 13.41,4.04 3.41,1.33 6.3,3.34 8.67,6.03 2.37,2.69 3.55,6.34 3.55,10.94 0,3.8 -1.02,7.27 -3.07,10.39 -2.05,3.13 -5.19,5.6 -9.42,7.43 -4.24,1.83 -9.44,2.75 -15.62,2.75l0.01 -0z"/>
   <path id="_1_3" fill="#B3B3B3" fill-rule="nonzero" d="M1792.72 90.05c9.62,0 17.16,2.3 22.62,6.9 5.46,4.59 8.18,10.91 8.18,18.96 0,8.04 -2.72,14.34 -8.18,18.89 -5.46,4.56 -13,6.84 -22.62,6.84l-20.24 0 0 23.8 -7.97 0 0 -75.39 28.22 0 -0.01 -0.01zm-0.21 44.59c7.47,0 13.17,-1.63 17.12,-4.9 3.94,-3.27 5.92,-7.88 5.92,-13.84 0,-6.1 -1.98,-10.79 -5.92,-14.05 -3.95,-3.27 -9.66,-4.9 -17.12,-4.9l-20.04 0 0 37.69 20.04 0 0 0z"/>
   <path id="_2_4" fill="#B3B3B3" fill-rule="nonzero" d="M1868.98 90.05c9.62,0 17.16,2.3 22.62,6.9 5.46,4.59 8.18,10.91 8.18,18.96 0,8.04 -2.72,14.34 -8.18,18.89 -5.46,4.56 -13,6.84 -22.62,6.84l-20.24 0 0 23.8 -7.97 0 0 -75.39 28.22 0 -0.01 -0.01zm-0.22 44.59c7.47,0 13.17,-1.63 17.12,-4.9 3.94,-3.27 5.92,-7.88 5.92,-13.84 0,-6.1 -1.98,-10.79 -5.92,-14.05 -3.95,-3.27 -9.66,-4.9 -17.12,-4.9l-20.04 0 0 37.69 20.04 0 0 0z"/>
   <g id="_2503160228944">
    <path fill="#B3B3B3" fill-rule="nonzero" d="M965.94 180.68c-9.75,0 -18.54,-2.4 -26.37,-7.2 -7.84,-4.8 -14.01,-11.75 -18.54,-20.86 -4.52,-9.11 -6.78,-19.87 -6.78,-32.31 0,-21.46 4.59,-41.33 13.76,-59.62 9.18,-18.28 22.73,-32.97 40.67,-44.05 17.94,-11.08 39.46,-16.63 64.6,-16.63 6.49,0 13.45,0.5 20.86,1.49 7.41,0.99 14.16,2.47 20.22,4.45 3.95,1.13 5.93,3.95 5.93,8.47 0,3.68 -1.38,7.13 -4.13,10.38 -2.76,3.25 -5.97,4.87 -9.64,4.87 -1.12,0 -1.98,-0.07 -2.54,-0.21 -7.35,-1.69 -13.63,-2.93 -18.85,-3.71 -5.22,-0.78 -10.73,-1.16 -16.52,-1.16 -17.94,0 -33.19,4.34 -45.75,13.02 -12.57,8.68 -21.96,20.16 -28.17,34.42 -6.21,14.26 -9.31,29.65 -9.31,46.18 0,12 2.36,21.28 7.1,27.85 4.73,6.57 10.9,9.85 18.54,9.85 8.61,0 16.16,-3.53 22.66,-10.59 6.49,-7.06 12.43,-18.5 17.8,-34.31 5.37,-15.82 10.66,-37.27 15.89,-64.39 0.85,-3.95 2.54,-6.64 5.08,-8.05 2.54,-1.41 5.93,-2.12 10.16,-2.12 10.02,0 15.04,3.25 15.04,9.75 0,1.12 -0.21,2.54 -0.64,4.24 -3.67,13.7 -7.02,28.84 -10.06,45.44 -3.04,16.59 -4.55,29.2 -4.55,37.81 0,7.63 1.12,13.17 3.39,16.63 2.26,3.46 5.71,5.19 10.38,5.19 4.52,0 8.83,-1.52 12.92,-4.55 4.09,-3.04 9.25,-8.22 15.46,-15.57 1.69,-1.98 3.6,-2.97 5.71,-2.97 1.83,0 3.28,0.85 4.34,2.54 1.06,1.69 1.59,4.02 1.59,6.99 0,5.5 -1.34,9.88 -4.02,13.13 -6.92,8.33 -13.69,14.68 -20.33,19.06 -6.64,4.38 -14.75,6.57 -24.36,6.57 -9.88,0 -17.86,-2.86 -23.93,-8.58 -6.07,-5.71 -9.88,-13.8 -11.44,-24.25 -10.45,21.89 -25.84,32.83 -46.17,32.83l0.02 -0.01z"/>
    <path fill="#B3B3B3" fill-rule="nonzero" d="M838.37 213.81c5.34,0 9.46,1.34 12.31,4.01 2.85,2.68 4.28,6.64 4.28,11.88l0 25.4 -5.3 0 0 -6.39c-1.24,2.13 -3.08,3.8 -5.5,4.99 -2.42,1.2 -5.29,1.79 -8.61,1.79 -4.57,0 -8.21,-1.09 -10.9,-3.27 -2.7,-2.18 -4.05,-5.06 -4.05,-8.64 0,-3.48 1.26,-6.28 3.78,-8.42 2.52,-2.13 6.53,-3.2 12.04,-3.2l13.01 0 0 -2.49c0,-3.53 -0.99,-6.22 -2.96,-8.06 -1.98,-1.84 -4.86,-2.77 -8.64,-2.77 -2.6,0 -5.09,0.42 -7.48,1.28 -2.39,0.86 -4.44,2.04 -6.16,3.54l-2.49 -4.13c2.08,-1.76 4.57,-3.13 7.48,-4.09 2.9,-0.96 5.98,-1.44 9.2,-1.44l-0.02 0.01zm-1.94 37.32c3.12,0 5.79,-0.71 8.02,-2.14 2.24,-1.42 3.9,-3.49 4.99,-6.2l0 -6.7 -12.86 0c-7.02,0 -10.52,2.44 -10.52,7.32 0,2.39 0.91,4.27 2.72,5.65 1.82,1.38 4.36,2.06 7.64,2.06z"/>
    <polygon id="_1_5" fill="#B3B3B3" fill-rule="nonzero" points="885.2,234.53 875.54,243.41 875.54,255.1 870,255.1 870,197.29 875.54,197.29 875.54,236.48 900,214.12 906.86,214.12 889.32,230.87 908.48,255.1 901.71,255.1 "/>
    <path id="_2_6" fill="#B3B3B3" fill-rule="nonzero" d="M921.5 222.15c1.3,-2.76 3.23,-4.83 5.8,-6.24 2.57,-1.4 5.75,-2.1 9.54,-2.1l0 5.38 -1.32 -0.08c-4.31,0 -7.68,1.32 -10.12,3.98 -2.44,2.65 -3.66,6.36 -3.66,11.14l0 20.88 -5.54 0 0 -40.98 5.3 0 0 8.02 0 0z"/>
    <path id="_3_7" fill="#B3B3B3" fill-rule="nonzero" d="M982.12 236.32l-34.28 0c0.32,4.26 1.94,7.7 4.91,10.32 2.96,2.62 6.7,3.94 11.22,3.94 2.54,0 4.88,-0.46 7.02,-1.36 2.13,-0.91 3.98,-2.24 5.54,-4.01l3.12 3.58c-1.82,2.18 -4.09,3.84 -6.82,4.99 -2.72,1.14 -5.73,1.72 -9,1.72 -4.21,0 -7.94,-0.9 -11.18,-2.68 -3.25,-1.79 -5.78,-4.27 -7.6,-7.44 -1.82,-3.17 -2.72,-6.75 -2.72,-10.75 0,-4 0.87,-7.58 2.61,-10.75 1.74,-3.17 4.13,-5.64 7.17,-7.4 3.04,-1.76 6.45,-2.65 10.24,-2.65 3.8,0 7.2,0.88 10.2,2.65 3.02,1.77 5.38,4.22 7.08,7.36 1.72,3.14 2.57,6.74 2.57,10.79l-0.08 1.72 -0 -0.02zm-19.79 -17.77c-3.94,0 -7.26,1.26 -9.93,3.78 -2.68,2.52 -4.2,5.8 -4.56,9.86l29.06 0c-0.36,-4.05 -1.88,-7.34 -4.56,-9.86 -2.68,-2.52 -6.02,-3.78 -10.01,-3.78l0 0z"/>
    <path id="_4_8" fill="#B3B3B3" fill-rule="nonzero" d="M1030.89 197.29l0 57.81 -5.3 0 0 -8.1c-1.66,2.76 -3.86,4.86 -6.58,6.31 -2.72,1.46 -5.8,2.18 -9.23,2.18 -3.84,0 -7.32,-0.88 -10.44,-2.65 -3.12,-1.76 -5.56,-4.23 -7.32,-7.4 -1.76,-3.17 -2.65,-6.78 -2.65,-10.83 0,-4.05 0.88,-7.66 2.65,-10.83 1.77,-3.17 4.21,-5.62 7.32,-7.36 3.12,-1.74 6.6,-2.61 10.44,-2.61 3.32,0 6.32,0.69 9,2.06 2.68,1.38 4.87,3.39 6.58,6.04l0 -24.62 5.54 0 -0.01 -0.01zm-20.65 53.3c2.85,0 5.44,-0.66 7.75,-1.98 2.31,-1.32 4.13,-3.21 5.46,-5.65 1.32,-2.44 1.98,-5.22 1.98,-8.34 0,-3.12 -0.66,-5.9 -1.98,-8.34 -1.32,-2.44 -3.14,-4.33 -5.46,-5.65 -2.31,-1.32 -4.9,-1.98 -7.75,-1.98 -2.91,0 -5.52,0.66 -7.84,1.98 -2.31,1.32 -4.13,3.21 -5.46,5.65 -1.32,2.44 -1.98,5.22 -1.98,8.34 0,3.12 0.66,5.9 1.98,8.34 1.32,2.44 3.14,4.32 5.46,5.65 2.31,1.32 4.92,1.98 7.84,1.98z"/>
    <path id="_5_9" fill="#B3B3B3" fill-rule="nonzero" d="M1046.32 214.12l5.54 0 0 40.98 -5.54 0 0 -40.98zm2.8 -8.96c-1.14,0 -2.1,-0.38 -2.88,-1.16 -0.78,-0.78 -1.16,-1.72 -1.16,-2.8 0,-1.04 0.4,-1.94 1.16,-2.72 0.78,-0.78 1.74,-1.16 2.88,-1.16 1.14,0 2.11,0.37 2.88,1.12 0.78,0.75 1.17,1.65 1.17,2.68 0,1.14 -0.4,2.1 -1.17,2.88 -0.78,0.78 -1.74,1.16 -2.88,1.16z"/>
    <path id="_6_10" fill="#B3B3B3" fill-rule="nonzero" d="M1088.85 252.61c-1.04,0.94 -2.32,1.65 -3.86,2.14 -1.53,0.5 -3.13,0.74 -4.79,0.74 -3.84,0 -6.8,-1.04 -8.88,-3.12 -2.08,-2.08 -3.12,-5.01 -3.12,-8.8l0 -24.78 -7.32 0 0 -4.68 7.32 0 0 -8.96 5.54 0 0 8.96 12.47 0 0 4.68 -12.47 0 0 24.46c0,2.44 0.61,4.3 1.83,5.57 1.22,1.28 2.98,1.9 5.26,1.9 1.14,0 2.24,-0.18 3.31,-0.54 1.06,-0.36 1.98,-0.88 2.77,-1.56l1.94 3.97 0 0.01z"/>
    <path id="_7_11" fill="#B3B3B3" fill-rule="nonzero" d="M1113.25 213.81c5.34,0 9.46,1.34 12.31,4.01 2.85,2.68 4.28,6.64 4.28,11.88l0 25.4 -5.3 0 0 -6.39c-1.24,2.13 -3.08,3.8 -5.5,4.99 -2.42,1.2 -5.29,1.79 -8.61,1.79 -4.57,0 -8.21,-1.09 -10.9,-3.27 -2.7,-2.18 -4.05,-5.06 -4.05,-8.64 0,-3.48 1.26,-6.28 3.78,-8.42 2.52,-2.13 6.53,-3.2 12.04,-3.2l13.01 0 0 -2.49c0,-3.53 -0.99,-6.22 -2.96,-8.06 -1.98,-1.84 -4.86,-2.77 -8.64,-2.77 -2.6,0 -5.09,0.42 -7.48,1.28 -2.39,0.86 -4.44,2.04 -6.16,3.54l-2.49 -4.13c2.08,-1.76 4.57,-3.13 7.48,-4.09 2.9,-0.96 5.98,-1.44 9.2,-1.44l-0.02 0.01zm-1.94 37.32c3.12,0 5.79,-0.71 8.02,-2.14 2.24,-1.42 3.9,-3.49 4.99,-6.2l0 -6.7 -12.86 0c-7.02,0 -10.52,2.44 -10.52,7.32 0,2.39 0.91,4.27 2.72,5.65 1.82,1.38 4.36,2.06 7.64,2.06z"/>
    <path id="_8_12" fill="#B3B3B3" fill-rule="nonzero" d="M1155.86 255.49c-3.32,0 -6.5,-0.48 -9.54,-1.44 -3.04,-0.96 -5.42,-2.16 -7.12,-3.62l2.49 -4.36c1.72,1.36 3.87,2.45 6.46,3.31 2.6,0.86 5.3,1.28 8.1,1.28 3.74,0 6.5,-0.58 8.3,-1.75 1.79,-1.16 2.68,-2.82 2.68,-4.95 0,-1.5 -0.5,-2.68 -1.48,-3.54 -0.98,-0.86 -2.23,-1.5 -3.74,-1.94 -1.5,-0.44 -3.51,-0.87 -6,-1.28 -3.32,-0.62 -6,-1.26 -8.02,-1.9 -2.02,-0.65 -3.76,-1.75 -5.18,-3.31 -1.43,-1.56 -2.15,-3.72 -2.15,-6.46 0,-3.43 1.43,-6.24 4.29,-8.42 2.86,-2.18 6.83,-3.27 11.92,-3.27 2.65,0 5.3,0.36 7.94,1.06 2.65,0.7 4.83,1.62 6.54,2.76l-2.42 4.44c-3.38,-2.34 -7.4,-3.51 -12.08,-3.51 -3.53,0 -6.2,0.62 -7.98,1.87 -1.79,1.24 -2.68,2.88 -2.68,4.91 0,1.56 0.5,2.81 1.52,3.74 1.02,0.94 2.28,1.62 3.78,2.06 1.5,0.44 3.58,0.9 6.24,1.36 3.27,0.62 5.9,1.24 7.86,1.87 1.98,0.62 3.66,1.69 5.06,3.2 1.4,1.5 2.1,3.58 2.1,6.24 0,3.58 -1.49,6.42 -4.48,8.53 -2.98,2.11 -7.12,3.16 -12.43,3.16l0.01 -0z"/>
    <path id="_9_13" fill="#B3B3B3" fill-rule="nonzero" d="M1182.97 214.12l5.54 0 0 40.98 -5.54 0 0 -40.98zm2.8 -8.96c-1.14,0 -2.1,-0.38 -2.88,-1.16 -0.78,-0.78 -1.16,-1.72 -1.16,-2.8 0,-1.04 0.4,-1.94 1.16,-2.72 0.78,-0.78 1.74,-1.16 2.88,-1.16 1.14,0 2.11,0.37 2.88,1.12 0.78,0.75 1.17,1.65 1.17,2.68 0,1.14 -0.4,2.1 -1.17,2.88 -0.78,0.78 -1.74,1.16 -2.88,1.16z"/>
    <path id="_10_14" fill="#B3B3B3" fill-rule="nonzero" d="M838.37 213.81c5.34,0 9.46,1.34 12.31,4.01 2.85,2.68 4.28,6.64 4.28,11.88l0 25.4 -5.3 0 0 -6.39c-1.24,2.13 -3.08,3.8 -5.5,4.99 -2.42,1.2 -5.29,1.79 -8.61,1.79 -4.57,0 -8.21,-1.09 -10.9,-3.27 -2.7,-2.18 -4.05,-5.06 -4.05,-8.64 0,-3.48 1.26,-6.28 3.78,-8.42 2.52,-2.13 6.53,-3.2 12.04,-3.2l13.01 0 0 -2.49c0,-3.53 -0.99,-6.22 -2.96,-8.06 -1.98,-1.84 -4.86,-2.77 -8.64,-2.77 -2.6,0 -5.09,0.42 -7.48,1.28 -2.39,0.86 -4.44,2.04 -6.16,3.54l-2.49 -4.13c2.08,-1.76 4.57,-3.13 7.48,-4.09 2.9,-0.96 5.98,-1.44 9.2,-1.44l-0.02 0.01zm-1.94 37.32c3.12,0 5.79,-0.71 8.02,-2.14 2.24,-1.42 3.9,-3.49 4.99,-6.2l0 -6.7 -12.86 0c-7.02,0 -10.52,2.44 -10.52,7.32 0,2.39 0.91,4.27 2.72,5.65 1.82,1.38 4.36,2.06 7.64,2.06z"/>
    <polygon id="_11_15" fill="#B3B3B3" fill-rule="nonzero" points="885.2,234.53 875.54,243.41 875.54,255.1 870,255.1 870,197.29 875.54,197.29 875.54,236.48 900,214.12 906.86,214.12 889.32,230.87 908.48,255.1 901.71,255.1 "/>
    <path id="_12_16" fill="#B3B3B3" fill-rule="nonzero" d="M921.5 222.15c1.3,-2.76 3.23,-4.83 5.8,-6.24 2.57,-1.4 5.75,-2.1 9.54,-2.1l0 5.38 -1.32 -0.08c-4.31,0 -7.68,1.32 -10.12,3.98 -2.44,2.65 -3.66,6.36 -3.66,11.14l0 20.88 -5.54 0 0 -40.98 5.3 0 0 8.02 0 0z"/>
    <path id="_13_17" fill="#B3B3B3" fill-rule="nonzero" d="M982.12 236.32l-34.28 0c0.32,4.26 1.94,7.7 4.91,10.32 2.96,2.62 6.7,3.94 11.22,3.94 2.54,0 4.88,-0.46 7.02,-1.36 2.13,-0.91 3.98,-2.24 5.54,-4.01l3.12 3.58c-1.82,2.18 -4.09,3.84 -6.82,4.99 -2.72,1.14 -5.73,1.72 -9,1.72 -4.21,0 -7.94,-0.9 -11.18,-2.68 -3.25,-1.79 -5.78,-4.27 -7.6,-7.44 -1.82,-3.17 -2.72,-6.75 -2.72,-10.75 0,-4 0.87,-7.58 2.61,-10.75 1.74,-3.17 4.13,-5.64 7.17,-7.4 3.04,-1.76 6.45,-2.65 10.24,-2.65 3.8,0 7.2,0.88 10.2,2.65 3.02,1.77 5.38,4.22 7.08,7.36 1.72,3.14 2.57,6.74 2.57,10.79l-0.08 1.72 -0 -0.02zm-19.79 -17.77c-3.94,0 -7.26,1.26 -9.93,3.78 -2.68,2.52 -4.2,5.8 -4.56,9.86l29.06 0c-0.36,-4.05 -1.88,-7.34 -4.56,-9.86 -2.68,-2.52 -6.02,-3.78 -10.01,-3.78l0 0z"/>
    <path id="_14_18" fill="#B3B3B3" fill-rule="nonzero" d="M1030.89 197.29l0 57.81 -5.3 0 0 -8.1c-1.66,2.76 -3.86,4.86 -6.58,6.31 -2.72,1.46 -5.8,2.18 -9.23,2.18 -3.84,0 -7.32,-0.88 -10.44,-2.65 -3.12,-1.76 -5.56,-4.23 -7.32,-7.4 -1.76,-3.17 -2.65,-6.78 -2.65,-10.83 0,-4.05 0.88,-7.66 2.65,-10.83 1.77,-3.17 4.21,-5.62 7.32,-7.36 3.12,-1.74 6.6,-2.61 10.44,-2.61 3.32,0 6.32,0.69 9,2.06 2.68,1.38 4.87,3.39 6.58,6.04l0 -24.62 5.54 0 -0.01 -0.01zm-20.65 53.3c2.85,0 5.44,-0.66 7.75,-1.98 2.31,-1.32 4.13,-3.21 5.46,-5.65 1.32,-2.44 1.98,-5.22 1.98,-8.34 0,-3.12 -0.66,-5.9 -1.98,-8.34 -1.32,-2.44 -3.14,-4.33 -5.46,-5.65 -2.31,-1.32 -4.9,-1.98 -7.75,-1.98 -2.91,0 -5.52,0.66 -7.84,1.98 -2.31,1.32 -4.13,3.21 -5.46,5.65 -1.32,2.44 -1.98,5.22 -1.98,8.34 0,3.12 0.66,5.9 1.98,8.34 1.32,2.44 3.14,4.32 5.46,5.65 2.31,1.32 4.92,1.98 7.84,1.98z"/>
    <path id="_15" fill="#B3B3B3" fill-rule="nonzero" d="M1046.32 214.12l5.54 0 0 40.98 -5.54 0 0 -40.98zm2.8 -8.96c-1.14,0 -2.1,-0.38 -2.88,-1.16 -0.78,-0.78 -1.16,-1.72 -1.16,-2.8 0,-1.04 0.4,-1.94 1.16,-2.72 0.78,-0.78 1.74,-1.16 2.88,-1.16 1.14,0 2.11,0.37 2.88,1.12 0.78,0.75 1.17,1.65 1.17,2.68 0,1.14 -0.4,2.1 -1.17,2.88 -0.78,0.78 -1.74,1.16 -2.88,1.16z"/>
    <path id="_16" fill="#B3B3B3" fill-rule="nonzero" d="M1088.85 252.61c-1.04,0.94 -2.32,1.65 -3.86,2.14 -1.53,0.5 -3.13,0.74 -4.79,0.74 -3.84,0 -6.8,-1.04 -8.88,-3.12 -2.08,-2.08 -3.12,-5.01 -3.12,-8.8l0 -24.78 -7.32 0 0 -4.68 7.32 0 0 -8.96 5.54 0 0 8.96 12.47 0 0 4.68 -12.47 0 0 24.46c0,2.44 0.61,4.3 1.83,5.57 1.22,1.28 2.98,1.9 5.26,1.9 1.14,0 2.24,-0.18 3.31,-0.54 1.06,-0.36 1.98,-0.88 2.77,-1.56l1.94 3.97 0 0.01z"/>
    <path id="_17" fill="#B3B3B3" fill-rule="nonzero" d="M1113.25 213.81c5.34,0 9.46,1.34 12.31,4.01 2.85,2.68 4.28,6.64 4.28,11.88l0 25.4 -5.3 0 0 -6.39c-1.24,2.13 -3.08,3.8 -5.5,4.99 -2.42,1.2 -5.29,1.79 -8.61,1.79 -4.57,0 -8.21,-1.09 -10.9,-3.27 -2.7,-2.18 -4.05,-5.06 -4.05,-8.64 0,-3.48 1.26,-6.28 3.78,-8.42 2.52,-2.13 6.53,-3.2 12.04,-3.2l13.01 0 0 -2.49c0,-3.53 -0.99,-6.22 -2.96,-8.06 -1.98,-1.84 -4.86,-2.77 -8.64,-2.77 -2.6,0 -5.09,0.42 -7.48,1.28 -2.39,0.86 -4.44,2.04 -6.16,3.54l-2.49 -4.13c2.08,-1.76 4.57,-3.13 7.48,-4.09 2.9,-0.96 5.98,-1.44 9.2,-1.44l-0.02 0.01zm-1.94 37.32c3.12,0 5.79,-0.71 8.02,-2.14 2.24,-1.42 3.9,-3.49 4.99,-6.2l0 -6.7 -12.86 0c-7.02,0 -10.52,2.44 -10.52,7.32 0,2.39 0.91,4.27 2.72,5.65 1.82,1.38 4.36,2.06 7.64,2.06z"/>
    <path id="_18" fill="#B3B3B3" fill-rule="nonzero" d="M1155.86 255.49c-3.32,0 -6.5,-0.48 -9.54,-1.44 -3.04,-0.96 -5.42,-2.16 -7.12,-3.62l2.49 -4.36c1.72,1.36 3.87,2.45 6.46,3.31 2.6,0.86 5.3,1.28 8.1,1.28 3.74,0 6.5,-0.58 8.3,-1.75 1.79,-1.16 2.68,-2.82 2.68,-4.95 0,-1.5 -0.5,-2.68 -1.48,-3.54 -0.98,-0.86 -2.23,-1.5 -3.74,-1.94 -1.5,-0.44 -3.51,-0.87 -6,-1.28 -3.32,-0.62 -6,-1.26 -8.02,-1.9 -2.02,-0.65 -3.76,-1.75 -5.18,-3.31 -1.43,-1.56 -2.15,-3.72 -2.15,-6.46 0,-3.43 1.43,-6.24 4.29,-8.42 2.86,-2.18 6.83,-3.27 11.92,-3.27 2.65,0 5.3,0.36 7.94,1.06 2.65,0.7 4.83,1.62 6.54,2.76l-2.42 4.44c-3.38,-2.34 -7.4,-3.51 -12.08,-3.51 -3.53,0 -6.2,0.62 -7.98,1.87 -1.79,1.24 -2.68,2.88 -2.68,4.91 0,1.56 0.5,2.81 1.52,3.74 1.02,0.94 2.28,1.62 3.78,2.06 1.5,0.44 3.58,0.9 6.24,1.36 3.27,0.62 5.9,1.24 7.86,1.87 1.98,0.62 3.66,1.69 5.06,3.2 1.4,1.5 2.1,3.58 2.1,6.24 0,3.58 -1.49,6.42 -4.48,8.53 -2.98,2.11 -7.12,3.16 -12.43,3.16l0.01 -0z"/>
    <path id="_19" fill="#B3B3B3" fill-rule="nonzero" d="M1182.97 214.12l5.54 0 0 40.98 -5.54 0 0 -40.98zm2.8 -8.96c-1.14,0 -2.1,-0.38 -2.88,-1.16 -0.78,-0.78 -1.16,-1.72 -1.16,-2.8 0,-1.04 0.4,-1.94 1.16,-2.72 0.78,-0.78 1.74,-1.16 2.88,-1.16 1.14,0 2.11,0.37 2.88,1.12 0.78,0.75 1.17,1.65 1.17,2.68 0,1.14 -0.4,2.1 -1.17,2.88 -0.78,0.78 -1.74,1.16 -2.88,1.16z"/>
   </g>
   <path fill="#B3B3B3" d="M2069.6 192.18l567.65 -0.18c3.06,-0 5.56,1.52 5.56,3.4l0.01 2.81c0.01,1.88 -2.47,3.4 -5.53,3.4l-567.65 0.19c-3.06,0 -5.55,-1.52 -5.56,-3.4l-0.01 -2.81c-0.01,-1.88 2.47,-3.41 5.53,-3.41z"/>
   <polygon fill="#B3B3B3" fill-rule="nonzero" points="2062.6,59 2083.05,59 2083.05,130.7 2127.37,130.7 2127.37,147.37 2062.6,147.37 "/>
   <polygon id="_1_19" fill="#B3B3B3" fill-rule="nonzero" points="2171.05,112.65 2159.18,125.03 2159.18,147.37 2138.85,147.37 2138.85,59 2159.18,59 2159.18,100.28 2198.32,59 2221.04,59 2184.43,98.39 2223.19,147.37 2199.33,147.37 "/>
   <path id="_2_20" fill="#B3B3B3" fill-rule="nonzero" d="M2259.42 148.88c-6.98,0 -13.74,-0.95 -20.26,-2.84 -6.53,-1.9 -11.76,-4.35 -15.72,-7.39l6.94 -15.4c3.79,2.78 8.29,5.01 13.51,6.69 5.22,1.69 10.43,2.52 15.65,2.52 5.81,0 10.1,-0.87 12.88,-2.59 2.78,-1.73 4.17,-4.01 4.17,-6.88 0,-2.11 -0.82,-3.85 -2.47,-5.24 -1.64,-1.39 -3.75,-2.51 -6.32,-3.35 -2.57,-0.84 -6.04,-1.76 -10.42,-2.77 -6.73,-1.6 -12.24,-3.2 -16.53,-4.79 -4.3,-1.6 -7.98,-4.17 -11.05,-7.7 -3.07,-3.54 -4.6,-8.25 -4.6,-14.14 0,-5.13 1.39,-9.79 4.17,-13.95 2.78,-4.17 6.97,-7.47 12.56,-9.91 5.6,-2.44 12.44,-3.66 20.52,-3.66 5.64,0 11.16,0.67 16.53,2.02 5.38,1.35 10.1,3.28 14.14,5.81l-6.32 15.53c-8.17,-4.63 -16.33,-6.94 -24.49,-6.94 -5.73,0 -9.95,0.93 -12.68,2.78 -2.73,1.85 -4.1,4.29 -4.1,7.32 0,3.03 1.57,5.28 4.74,6.75 3.16,1.47 7.98,2.93 14.46,4.35 6.73,1.6 12.24,3.2 16.54,4.79 4.29,1.6 7.98,4.13 11.05,7.57 3.07,3.45 4.6,8.12 4.6,14.01 0,5.05 -1.41,9.66 -4.23,13.83 -2.82,4.17 -7.06,7.47 -12.69,9.91 -5.64,2.44 -12.49,3.66 -20.57,3.66l-0.01 0.01z"/>
   <path id="_3_21" fill="#B3B3B3" fill-rule="nonzero" d="M2374.43 80.96l0 58.32c0,11.28 -2.76,19.63 -8.27,25.06 -5.51,5.43 -13.83,8.14 -24.93,8.14 -6.14,0 -11.98,-0.91 -17.48,-2.72 -5.51,-1.81 -10,-4.31 -13.45,-7.51l4.54 -6.82c3.2,2.86 7.1,5.09 11.68,6.69 4.59,1.6 9.41,2.39 14.46,2.39 8.42,0 14.6,-1.95 18.56,-5.87 3.96,-3.91 5.94,-10 5.94,-18.24l0 -8.46c-2.77,4.21 -6.42,7.4 -10.92,9.59 -4.5,2.19 -9.49,3.28 -14.96,3.28 -6.23,0 -11.89,-1.37 -16.98,-4.1 -5.09,-2.73 -9.09,-6.57 -11.99,-11.49 -2.9,-4.92 -4.35,-10.5 -4.35,-16.73 0,-6.23 1.45,-11.79 4.35,-16.67 2.9,-4.88 6.88,-8.67 11.93,-11.36 5.05,-2.69 10.73,-4.04 17.05,-4.04 5.64,0 10.73,1.13 15.28,3.41 4.54,2.28 8.21,5.56 10.98,9.85l0 -12.76 8.58 0 -0.01 0.01zm-33.96 55.93c4.79,0 9.13,-1.03 13,-3.09 3.87,-2.06 6.88,-4.95 9.03,-8.64 2.15,-3.7 3.22,-7.91 3.22,-12.62 0,-4.72 -1.07,-8.9 -3.22,-12.56 -2.15,-3.66 -5.13,-6.53 -8.97,-8.59 -3.83,-2.06 -8.18,-3.09 -13.06,-3.09 -4.79,0 -9.11,1.01 -12.94,3.03 -3.83,2.02 -6.82,4.88 -8.97,8.58 -2.15,3.7 -3.22,7.91 -3.22,12.63 0,4.71 1.07,8.92 3.22,12.62 2.15,3.7 5.13,6.58 8.97,8.64 3.84,2.06 8.14,3.09 12.94,3.09l-0 0z"/>
   <path id="_4_22" fill="#B3B3B3" fill-rule="nonzero" d="M2408.14 93.97c2.1,-4.46 5.24,-7.82 9.41,-10.1 4.17,-2.28 9.32,-3.41 15.46,-3.41l0 8.71 -2.15 -0.13c-6.98,0 -12.45,2.15 -16.41,6.44 -3.95,4.29 -5.94,10.3 -5.94,18.05l0 33.83 -8.97 0 0 -66.4 8.59 0 0 13.01 0 -0z"/>
   <path id="_5_23" fill="#B3B3B3" fill-rule="nonzero" d="M2472.27 80.46c8.67,0 15.32,2.16 19.95,6.5 4.63,4.34 6.94,10.75 6.94,19.25l0 41.15 -8.59 0 0 -10.36c-2.02,3.45 -4.99,6.14 -8.9,8.08 -3.91,1.94 -8.56,2.9 -13.95,2.9 -7.41,0 -13.3,-1.77 -17.68,-5.31 -4.38,-3.54 -6.57,-8.21 -6.57,-14.01 0,-5.64 2.04,-10.19 6.12,-13.64 4.09,-3.45 10.58,-5.17 19.5,-5.17l21.08 0 0 -4.04c0,-5.73 -1.6,-10.08 -4.79,-13.07 -3.2,-2.98 -7.86,-4.48 -14.01,-4.48 -4.21,0 -8.24,0.69 -12.12,2.08 -3.87,1.39 -7.2,3.31 -9.97,5.74l-4.04 -6.69c3.36,-2.86 7.4,-5.07 12.12,-6.63 4.71,-1.56 9.68,-2.34 14.89,-2.34l0 0.02zm-3.16 60.47c5.05,0 9.38,-1.16 13.01,-3.47 3.62,-2.31 6.32,-5.66 8.08,-10.04l0 -10.86 -20.83 0c-11.36,0 -17.04,3.95 -17.04,11.86 0,3.87 1.47,6.92 4.42,9.16 2.94,2.23 7.07,3.35 12.37,3.35z"/>
   <path id="_6_24" fill="#B3B3B3" fill-rule="nonzero" d="M2558.5 143.33c-1.69,1.52 -3.76,2.67 -6.25,3.47 -2.48,0.79 -5.07,1.2 -7.76,1.2 -6.23,0 -11.02,-1.69 -14.39,-5.05 -3.37,-3.37 -5.05,-8.13 -5.05,-14.27l0 -40.15 -11.86 0 0 -7.57 11.86 0 0 -14.52 8.97 0 0 14.52 20.2 0 0 7.57 -20.2 0 0 39.64c0,3.96 0.99,6.97 2.97,9.02 1.98,2.06 4.82,3.09 8.52,3.09 1.85,0 3.64,-0.29 5.37,-0.88 1.73,-0.59 3.22,-1.43 4.48,-2.52l3.16 6.44 -0.01 -0.01z"/>
   <path id="_7_25" fill="#B3B3B3" fill-rule="nonzero" d="M2574.79 80.96l8.97 0 0 66.4 -8.97 0 0 -66.4zm4.54 -14.52c-1.85,0 -3.41,-0.63 -4.67,-1.9 -1.26,-1.26 -1.9,-2.78 -1.9,-4.54 0,-1.69 0.63,-3.16 1.9,-4.42 1.26,-1.26 2.82,-1.9 4.67,-1.9 1.85,0 3.41,0.61 4.67,1.83 1.27,1.22 1.9,2.67 1.9,4.35 0,1.86 -0.63,3.41 -1.9,4.67 -1.26,1.26 -2.82,1.9 -4.67,1.9l0 0.01z"/>
   <path id="_8_26" fill="#B3B3B3" fill-rule="nonzero" d="M2626.55 148c-5.38,0 -10.54,-0.78 -15.46,-2.34 -4.92,-1.56 -8.77,-3.51 -11.55,-5.87l4.04 -7.07c2.78,2.19 6.28,3.98 10.48,5.36 4.21,1.39 8.58,2.08 13.13,2.08 6.06,0 10.54,-0.95 13.44,-2.84 2.9,-1.9 4.35,-4.57 4.35,-8.02 0,-2.44 -0.79,-4.35 -2.39,-5.74 -1.6,-1.39 -3.62,-2.44 -6.06,-3.16 -2.44,-0.72 -5.69,-1.41 -9.72,-2.08 -5.38,-1.01 -9.72,-2.04 -13.01,-3.09 -3.28,-1.06 -6.08,-2.84 -8.39,-5.37 -2.31,-2.53 -3.47,-6.02 -3.47,-10.48 0,-5.56 2.31,-10.1 6.94,-13.64 4.63,-3.54 11.07,-5.3 19.32,-5.3 4.29,0 8.58,0.57 12.87,1.7 4.3,1.13 7.82,2.63 10.61,4.48l-3.91 7.2c-5.47,-3.79 -11.99,-5.69 -19.56,-5.69 -5.73,0 -10.04,1.01 -12.94,3.03 -2.9,2.02 -4.35,4.67 -4.35,7.95 0,2.53 0.83,4.54 2.47,6.06 1.65,1.52 3.68,2.63 6.12,3.35 2.44,0.72 5.81,1.45 10.1,2.21 5.3,1.01 9.55,2.02 12.76,3.03 3.2,1.01 5.93,2.73 8.21,5.17 2.28,2.44 3.41,5.81 3.41,10.1 0,5.81 -2.42,10.42 -7.26,13.83 -4.83,3.41 -11.55,5.12 -20.13,5.12l-0.03 0.01z"/>
  </g>
  <path fill="white" fill-rule="nonzero" d="M1463.37 113.79l6.61 0 0 -3.41c0,-3.8 0.41,-6.64 1.22,-8.51 0.81,-1.89 2.31,-3.41 4.48,-4.58 2.19,-1.18 4.95,-1.77 8.28,-1.77 3.41,0 6.76,0.51 10.04,1.52l-1.52 8.3c-1.94,-0.45 -3.81,-0.68 -5.61,-0.68 -1.77,0 -3.03,0.41 -3.8,1.22 -0.77,0.81 -1.16,2.38 -1.16,4.7l0 3.22 8.96 0 0 9.4 -8.96 0 0 35.76 -11.92 0 0 -35.76 -6.61 0 0 -9.4z"/>
  <path id="1" fill="white" fill-rule="nonzero" d="M1508.97 158.94l-11.92 0 0 -45.16 11.05 0 0 6.41c1.9,-3.03 3.61,-5.02 5.14,-5.96 1.52,-0.95 3.25,-1.41 5.18,-1.41 2.73,0 5.35,0.75 7.87,2.25l-3.7 10.41c-2.02,-1.3 -3.89,-1.96 -5.61,-1.96 -1.68,0 -3.11,0.46 -4.27,1.38 -1.16,0.93 -2.07,2.58 -2.74,4.99 -0.67,2.41 -1,7.45 -1,15.13l0 13.92z"/>
  <path id="2" fill="white" fill-rule="nonzero" d="M1557.53 144.68l11.92 2c-1.52,4.36 -3.94,7.68 -7.24,9.97 -3.31,2.28 -7.44,3.43 -12.39,3.43 -7.85,0 -13.66,-2.57 -17.42,-7.7 -2.97,-4.12 -4.46,-9.31 -4.46,-15.59 0,-7.48 1.96,-13.36 5.86,-17.59 3.9,-4.25 8.85,-6.37 14.82,-6.37 6.7,0 11.99,2.22 15.88,6.66 3.87,4.44 5.73,11.24 5.55,20.4l-29.85 0c0.09,3.54 1.05,6.29 2.89,8.27 1.83,1.97 4.12,2.96 6.85,2.96 1.87,0 3.44,-0.51 4.7,-1.52 1.28,-1.02 2.23,-2.66 2.89,-4.92zm0.69 -12.09c-0.09,-3.47 -0.97,-6.11 -2.67,-7.9 -1.7,-1.82 -3.76,-2.71 -6.19,-2.71 -2.6,0 -4.74,0.96 -6.44,2.86 -1.7,1.9 -2.52,4.5 -2.49,7.76l17.79 0z"/>
  <path id="3" fill="white" fill-rule="nonzero" d="M1605.93 144.68l11.92 2c-1.52,4.36 -3.94,7.68 -7.24,9.97 -3.31,2.28 -7.44,3.43 -12.39,3.43 -7.85,0 -13.66,-2.57 -17.42,-7.7 -2.97,-4.12 -4.46,-9.31 -4.46,-15.59 0,-7.48 1.96,-13.36 5.86,-17.59 3.9,-4.25 8.85,-6.37 14.82,-6.37 6.7,0 11.99,2.22 15.88,6.66 3.87,4.44 5.73,11.24 5.55,20.4l-29.85 0c0.09,3.54 1.05,6.29 2.89,8.27 1.83,1.97 4.12,2.96 6.85,2.96 1.87,0 3.44,-0.51 4.7,-1.52 1.28,-1.02 2.23,-2.66 2.89,-4.92zm0.69 -12.09c-0.09,-3.47 -0.97,-6.11 -2.67,-7.9 -1.7,-1.82 -3.76,-2.71 -6.19,-2.71 -2.6,0 -4.74,0.96 -6.44,2.86 -1.7,1.9 -2.52,4.5 -2.49,7.76l17.79 0z"/>
 </g>
</svg>
