<svg width="57" height="44" viewBox="0 0 57 44" fill="none" xmlns="http://www.w3.org/2000/svg">
<path d="M50.0156 0.859375C50.9531 0.859375 51.5391 1.16406 51.7734 1.77344C52.0078 2.38281 52.125 2.94531 52.125 3.46094C52.0781 4.07031 51.8672 4.63281 51.4922 5.14844C51.1641 5.66406 50.7422 6.13281 50.2266 6.55469C49.7109 6.97656 49.1719 7.39844 48.6094 7.82031C48.0938 8.19531 47.625 8.57031 47.2031 8.94531C46.5469 9.60156 45.8672 10.3281 45.1641 11.125C44.4609 11.9219 43.8281 12.7656 43.2656 13.6562C42.7031 14.5469 42.2344 15.4609 41.8594 16.3984C41.4844 17.3359 41.2969 18.2734 41.2969 19.2109C41.2969 19.5859 41.3438 19.9844 41.4375 20.4062C41.5781 20.8281 42.0469 21.0391 42.8438 21.0391C44.3438 21.0391 45.8672 21.2734 47.4141 21.7422C49.0078 22.2109 50.4609 22.9141 51.7734 23.8516C53.0859 24.7891 54.1406 25.9609 54.9375 27.3672C55.7812 28.7266 56.2031 30.3203 56.2031 32.1484C56.2031 33.9297 55.9219 35.5234 55.3594 36.9297C54.7969 38.2891 54 39.4375 52.9688 40.375C51.9375 41.3125 50.7188 42.0391 49.3125 42.5547C47.9531 43.0234 46.4297 43.2578 44.7422 43.2578C41.8359 43.2578 39.4688 42.7188 37.6406 41.6406C35.8594 40.5156 34.4766 39.1797 33.4922 37.6328C32.5078 36.0391 31.8516 34.3984 31.5234 32.7109C31.1953 30.9766 31.0312 29.4766 31.0312 28.2109C31.0312 25.6797 31.4062 23.1953 32.1562 20.7578C32.9531 18.3203 34.0078 16.0234 35.3203 13.8672C36.6328 11.7109 38.1328 9.74219 39.8203 7.96094C41.5078 6.13281 43.2422 4.53906 45.0234 3.17969C45.7266 2.66406 46.5234 2.14844 47.4141 1.63281C48.3516 1.11719 49.2188 0.859375 50.0156 0.859375ZM19.1484 0.859375C20.0859 0.859375 20.6719 1.16406 20.9062 1.77344C21.1406 2.38281 21.2578 2.94531 21.2578 3.46094C21.2109 4.07031 21 4.63281 20.625 5.14844C20.2969 5.66406 19.875 6.13281 19.3594 6.55469C18.8438 6.97656 18.3047 7.39844 17.7422 7.82031C17.2266 8.19531 16.7578 8.57031 16.3359 8.94531C15.6797 9.60156 15 10.3281 14.2969 11.125C13.5938 11.9219 12.9609 12.7656 12.3984 13.6562C11.8359 14.5469 11.3672 15.4609 10.9922 16.3984C10.6172 17.3359 10.4297 18.2734 10.4297 19.2109C10.4297 19.5859 10.4766 19.9844 10.5703 20.4062C10.7109 20.8281 11.1797 21.0391 11.9766 21.0391C13.4766 21.0391 15 21.2734 16.5469 21.7422C18.1406 22.2109 19.5938 22.9141 20.9062 23.8516C22.2188 24.7891 23.2734 25.9609 24.0703 27.3672C24.9141 28.7266 25.3359 30.3203 25.3359 32.1484C25.3359 33.9297 25.0547 35.5234 24.4922 36.9297C23.9297 38.2891 23.1328 39.4375 22.1016 40.375C21.0703 41.3125 19.8516 42.0391 18.4453 42.5547C17.0859 43.0234 15.5625 43.2578 13.875 43.2578C10.9688 43.2578 8.60156 42.7188 6.77344 41.6406C4.99219 40.5156 3.60938 39.1797 2.625 37.6328C1.64062 36.0391 0.984375 34.3984 0.656251 32.7109C0.328126 30.9766 0.164062 29.4766 0.164062 28.2109C0.164062 25.6797 0.539062 23.1953 1.28906 20.7578C2.08594 18.3203 3.14062 16.0234 4.45312 13.8672C5.76562 11.7109 7.26562 9.74219 8.95312 7.96094C10.6406 6.13281 12.375 4.53906 14.1562 3.17969C14.8594 2.66406 15.6562 2.14844 16.5469 1.63281C17.4844 1.11719 18.3516 0.859375 19.1484 0.859375Z" fill="#1A7629"/>
</svg>
