<?xml version="1.0" encoding="UTF-8"?>
<!DOCTYPE svg PUBLIC "-//W3C//DTD SVG 1.1//EN" "http://www.w3.org/Graphics/SVG/1.1/DTD/svg11.dtd">
<!-- Creator: CorelDRAW 2020 (64-Bit) -->
<svg xmlns="http://www.w3.org/2000/svg" xml:space="preserve" width="0.0843346in" height="0.0780039in" version="1.1" shape-rendering="geometricPrecision" text-rendering="geometricPrecision" image-rendering="optimizeQuality" fill-rule="evenodd" clip-rule="evenodd"
viewBox="0 0 13.02 12.04"
 xmlns:xlink="http://www.w3.org/1999/xlink"
 xmlns:xodm="http://www.corel.com/coreldraw/odm/2003">
 <g id="Layer_x0020_1">
  <metadata id="CorelCorpID_0Corel-Layer"/>
  <path fill="springgreen" fill-rule="nonzero" d="M4.84 6.79l0 5.25 -4.84 0 0 -4.17c0,-2.23 0.27,-3.85 0.81,-4.84 0.71,-1.34 1.83,-2.34 3.36,-3.03l1.08 1.76c-0.93,0.39 -1.6,0.95 -2.04,1.71 -0.43,0.76 -0.68,1.87 -0.73,3.32l2.36 0zm7.77 0l0 5.25 -4.84 0 0 -4.17c0,-2.23 0.27,-3.85 0.81,-4.84 0.71,-1.34 1.83,-2.34 3.36,-3.03l1.08 1.76c-0.93,0.39 -1.6,0.95 -2.04,1.71 -0.43,0.76 -0.68,1.87 -0.73,3.32l2.36 0z"/>
 </g>
</svg>
